SplineFontDB: 3.2
FontName: UnispaceBold
FullName: Unispace Bold
FamilyName: Unispace
Weight: Bold
Copyright: (C) 2000 Ray Larabie - rlarabie@hotmail.com
Version: 1.00
ItalicAngle: 0
UnderlinePosition: -143
UnderlineWidth: 20
Ascent: 800
Descent: 200
InvalidEm: 0
sfntRevision: 0x00010000
LayerCount: 2
Layer: 0 1 "Back" 1
Layer: 1 1 "Fore" 0
XUID: [1021 514 2065066123 683240]
StyleMap: 0x0020
FSType: 0
OS2Version: 1
OS2_WeightWidthSlopeOnly: 0
OS2_UseTypoMetrics: 0
CreationTime: 949479647
ModificationTime: 1702566752
PfmFamily: 81
TTFWeight: 700
TTFWidth: 5
LineGap: 0
VLineGap: 0
Panose: 0 0 7 9 0 0 0 0 0 0
OS2TypoAscent: 826
OS2TypoAOffset: 0
OS2TypoDescent: -214
OS2TypoDOffset: 0
OS2TypoLinegap: 0
OS2WinAscent: 826
OS2WinAOffset: 0
OS2WinDescent: 214
OS2WinDOffset: 0
HheadAscent: 826
HheadAOffset: 0
HheadDescent: -214
HheadDOffset: 0
OS2SubXSize: 700
OS2SubYSize: 650
OS2SubXOff: 0
OS2SubYOff: 143
OS2SupXSize: 700
OS2SupYSize: 650
OS2SupXOff: 0
OS2SupYOff: 453
OS2StrikeYSize: 50
OS2StrikeYPos: 259
OS2Vendor: 'LARA'
OS2CodePages: 00000001.00000000
OS2UnicodeRanges: 00000003.00000000.00000000.00000000
DEI: 91125
TtTable: prep
NPUSHB
 25
 15
 15
 14
 14
 13
 13
 12
 12
 11
 11
 10
 10
 9
 9
 8
 8
 3
 3
 2
 2
 1
 1
 0
 0
 1
SCANTYPE
PUSHW_1
 511
SCANCTRL
RCVT
ROUND[Grey]
WCVTP
RCVT
ROUND[Grey]
WCVTP
RCVT
ROUND[Grey]
WCVTP
RCVT
ROUND[Grey]
WCVTP
RCVT
ROUND[Grey]
WCVTP
RCVT
ROUND[Grey]
WCVTP
RCVT
ROUND[Grey]
WCVTP
RCVT
ROUND[Grey]
WCVTP
RCVT
ROUND[Grey]
WCVTP
RCVT
ROUND[Grey]
WCVTP
RCVT
ROUND[Grey]
WCVTP
RCVT
ROUND[Grey]
WCVTP
PUSHB_4
 5
 4
 70
 0
CALL
PUSHB_4
 7
 6
 70
 0
CALL
PUSHB_2
 4
 4
RCVT
ROUND[Grey]
WCVTP
PUSHB_2
 6
 6
RCVT
ROUND[Grey]
WCVTP
EndTTInstrs
TtTable: fpgm
NPUSHB
 1
 0
FDEF
SROUND
RCVT
DUP
PUSHB_1
 3
CINDEX
RCVT
SWAP
SUB
ROUND[Grey]
RTG
SWAP
ROUND[Grey]
ADD
WCVTP
ENDF
EndTTInstrs
ShortTable: cvt  28
  -210
  -15
  542
  677
  133
  125
  86
  66
  123
  80
  427
  376
  320
  487
  462
  308
  23193
  23193
  23193
  23193
  23193
  23193
  23193
  7

StartChar: .notdef
Encoding: 65536 -1 0
Width: 500
Flags: W
LayerCount: 2
Fore
SplineSet
63 0 m 1,0,-1
 63 800 l 1,1,-1
 438 800 l 1,2,-1
 438 0 l 1,3,-1
 63 0 l 1,0,-1
125 63 m 1,4,-1
 375 63 l 1,5,-1
 375 738 l 1,6,-1
 125 738 l 1,7,-1
 125 63 l 1,4,-1
EndSplineSet
Validated: 1
EndChar

StartChar: exclam
Encoding: 33 33 4
Width: 500
GlyphClass: 2
Flags: W
LayerCount: 2
Fore
SplineSet
303 170 m 1,0,-1
 170 170 l 1,1,-1
 170 678 l 1,2,-1
 303 678 l 1,3,-1
 303 170 l 1,0,-1
303 -14 m 1,4,-1
 170 -14 l 1,5,-1
 170 89 l 1,6,-1
 303 89 l 1,7,-1
 303 -14 l 1,4,-1
EndSplineSet
Validated: 1
EndChar

StartChar: quotedbl
Encoding: 34 34 5
Width: 500
GlyphClass: 2
Flags: W
LayerCount: 2
Fore
SplineSet
382 746 m 1,0,-1
 350 516 l 1,1,-1
 266 516 l 1,2,-1
 260 746 l 1,3,-1
 382 746 l 1,0,-1
246 746 m 1,4,-1
 213 516 l 1,5,-1
 128 516 l 1,6,-1
 122 746 l 1,7,-1
 246 746 l 1,4,-1
EndSplineSet
Validated: 1
EndChar

StartChar: numbersign
Encoding: 35 35 6
Width: 500
GlyphClass: 2
Flags: W
LayerCount: 2
Fore
SplineSet
443 241 m 1,0,-1
 357 241 l 1,1,-1
 357 150 l 1,2,-1
 267 150 l 1,3,-1
 267 241 l 1,4,-1
 236 241 l 1,5,-1
 236 150 l 1,6,-1
 146 150 l 1,7,-1
 146 241 l 1,8,-1
 52 241 l 1,9,-1
 52 329 l 1,10,-1
 146 329 l 1,11,-1
 146 356 l 1,12,-1
 52 356 l 1,13,-1
 52 445 l 1,14,-1
 146 445 l 1,15,-1
 146 526 l 1,16,-1
 236 526 l 1,17,-1
 236 445 l 1,18,-1
 267 445 l 1,19,-1
 267 526 l 1,20,-1
 357 526 l 1,21,-1
 357 445 l 1,22,-1
 443 445 l 1,23,-1
 443 356 l 1,24,-1
 357 356 l 1,25,-1
 357 329 l 1,26,-1
 443 329 l 1,27,-1
 443 241 l 1,0,-1
267 329 m 1,28,-1
 267 356 l 1,29,-1
 236 356 l 1,30,-1
 236 329 l 1,31,-1
 267 329 l 1,28,-1
EndSplineSet
Validated: 1
EndChar

StartChar: dollar
Encoding: 36 36 7
Width: 500
GlyphClass: 2
Flags: W
LayerCount: 2
Fore
SplineSet
451 376 m 0,0,1
 451 326 451 326 431 289 c 0,2,3
 406 238 406 238 353 238 c 2,4,-1
 291 238 l 1,5,-1
 291 183 l 1,6,-1
 229 183 l 1,7,-1
 229 238 l 1,8,-1
 81 238 l 1,9,-1
 81 323 l 1,10,-1
 229 323 l 1,11,-1
 229 418 l 1,12,-1
 172 418 l 2,13,14
 117 418 117 418 87 471 c 0,15,16
 62 514 62 514 62 565 c 0,17,18
 62 619 62 619 89 656 c 0,19,20
 121 699 121 699 177 699 c 2,21,-1
 229 699 l 1,22,-1
 229 743 l 1,23,-1
 291 743 l 1,24,-1
 291 699 l 1,25,-1
 414 699 l 1,26,-1
 414 613 l 1,27,-1
 291 613 l 1,28,-1
 291 526 l 1,29,-1
 353 526 l 2,30,31
 401 526 401 526 429 471 c 0,32,33
 451 427 451 427 451 376 c 0,0,1
229 526 m 1,34,-1
 229 613 l 1,35,-1
 214 613 l 2,36,37
 186 613 186 613 186 570 c 0,38,39
 186 526 186 526 214 526 c 2,40,-1
 229 526 l 1,34,-1
332 370 m 0,41,42
 332 418 332 418 298 418 c 2,43,-1
 291 418 l 1,44,-1
 291 323 l 1,45,-1
 298 323 l 2,46,47
 332 323 332 323 332 370 c 0,41,42
EndSplineSet
Validated: 1
EndChar

StartChar: percent
Encoding: 37 37 8
Width: 1000
GlyphClass: 2
Flags: W
LayerCount: 2
Fore
SplineSet
66 775.5 m 128,-1,1
 66 779 66 779 68 777 c 0,2,3
 71 775 71 775 70 768 c 0,4,5
 68 761 68 761 63.5 760.5 c 128,-1,6
 59 760 59 760 56 767 c 0,7,8
 53 772 53 772 59.5 772 c 128,-1,0
 66 772 66 772 66 775.5 c 128,-1,1
166 775.5 m 128,-1,10
 166 779 166 779 168 777 c 0,11,12
 171 775 171 775 170 768 c 0,13,14
 168 761 168 761 163.5 760.5 c 128,-1,15
 159 760 159 760 156 767 c 0,16,17
 153 772 153 772 159.5 772 c 128,-1,9
 166 772 166 772 166 775.5 c 128,-1,10
266 775.5 m 128,-1,19
 266 779 266 779 268 777 c 0,20,21
 271 775 271 775 270 768 c 0,22,23
 268 761 268 761 263.5 760.5 c 128,-1,24
 259 760 259 760 256 767 c 0,25,26
 253 772 253 772 259.5 772 c 128,-1,18
 266 772 266 772 266 775.5 c 128,-1,19
366 775.5 m 128,-1,28
 366 779 366 779 368 777 c 0,29,30
 371 775 371 775 370 768 c 0,31,32
 368 761 368 761 363.5 760.5 c 128,-1,33
 359 760 359 760 356 767 c 0,34,35
 353 772 353 772 359.5 772 c 128,-1,27
 366 772 366 772 366 775.5 c 128,-1,28
466 775.5 m 128,-1,37
 466 779 466 779 468 777 c 0,38,39
 471 775 471 775 470 768 c 0,40,41
 468 761 468 761 463.5 760.5 c 128,-1,42
 459 760 459 760 456 767 c 0,43,44
 453 772 453 772 459.5 772 c 128,-1,36
 466 772 466 772 466 775.5 c 128,-1,37
566 775.5 m 128,-1,46
 566 779 566 779 568 777 c 0,47,48
 571 775 571 775 570 768 c 0,49,50
 568 761 568 761 563.5 760.5 c 128,-1,51
 559 760 559 760 556 767 c 0,52,53
 553 772 553 772 559.5 772 c 128,-1,45
 566 772 566 772 566 775.5 c 128,-1,46
666 775.5 m 128,-1,55
 666 779 666 779 668 777 c 0,56,57
 671 775 671 775 670 768 c 0,58,59
 668 761 668 761 663.5 760.5 c 128,-1,60
 659 760 659 760 656 767 c 0,61,62
 653 772 653 772 659.5 772 c 128,-1,54
 666 772 666 772 666 775.5 c 128,-1,55
766 775.5 m 128,-1,64
 766 779 766 779 768 777 c 0,65,66
 771 775 771 775 770 768 c 0,67,68
 768 761 768 761 763.5 760.5 c 128,-1,69
 759 760 759 760 756 767 c 0,70,71
 753 772 753 772 759.5 772 c 128,-1,63
 766 772 766 772 766 775.5 c 128,-1,64
866 775.5 m 128,-1,73
 866 779 866 779 868 777 c 0,74,75
 871 775 871 775 870 768 c 0,76,77
 868 761 868 761 863.5 760.5 c 128,-1,78
 859 760 859 760 856 767 c 0,79,80
 853 772 853 772 859.5 772 c 128,-1,72
 866 772 866 772 866 775.5 c 128,-1,73
966 775.5 m 128,-1,82
 966 779 966 779 968 777 c 0,83,84
 971 775 971 775 970 768 c 0,85,86
 968 761 968 761 963.5 760.5 c 128,-1,87
 959 760 959 760 956 767 c 0,88,89
 953 772 953 772 959.5 772 c 128,-1,81
 966 772 966 772 966 775.5 c 128,-1,82
14 750 m 0,90,91
 17 756 17 756 18 751 c 0,92,93
 18 747 18 747 16 741 c 0,94,95
 13 734 13 734 8.5 732.5 c 128,-1,96
 4 731 4 731 2 737 c 0,97,98
 0 741 0 741 2 745 c 128,-1,99
 4 749 4 749 8 748 c 0,100,101
 12 746 12 746 14 750 c 0,90,91
114 750 m 0,102,103
 117 756 117 756 118 751 c 0,104,105
 118 747 118 747 116 741 c 0,106,107
 113 734 113 734 108.5 732.5 c 128,-1,108
 104 731 104 731 102 737 c 0,109,110
 100 741 100 741 102 745 c 128,-1,111
 104 749 104 749 108 748 c 0,112,113
 112 746 112 746 114 750 c 0,102,103
214 750 m 0,114,115
 217 756 217 756 218 751 c 0,116,117
 218 747 218 747 216 741 c 0,118,119
 213 734 213 734 208.5 732.5 c 128,-1,120
 204 731 204 731 202 737 c 0,121,122
 200 741 200 741 202 745 c 128,-1,123
 204 749 204 749 208 748 c 0,124,125
 212 746 212 746 214 750 c 0,114,115
314 750 m 0,126,127
 317 756 317 756 318 751 c 0,128,129
 318 747 318 747 316 741 c 0,130,131
 313 734 313 734 308.5 732.5 c 128,-1,132
 304 731 304 731 302 737 c 0,133,134
 300 741 300 741 302 745 c 128,-1,135
 304 749 304 749 308 748 c 0,136,137
 312 746 312 746 314 750 c 0,126,127
414 750 m 0,138,139
 417 756 417 756 418 751 c 0,140,141
 418 747 418 747 416 741 c 0,142,143
 413 734 413 734 408.5 732.5 c 128,-1,144
 404 731 404 731 402 737 c 0,145,146
 400 741 400 741 402 745 c 128,-1,147
 404 749 404 749 408 748 c 0,148,149
 412 746 412 746 414 750 c 0,138,139
514 750 m 0,150,151
 517 756 517 756 518 751 c 0,152,153
 518 747 518 747 516 741 c 0,154,155
 513 734 513 734 508.5 732.5 c 128,-1,156
 504 731 504 731 502 737 c 0,157,158
 500 741 500 741 502 745 c 128,-1,159
 504 749 504 749 508 748 c 0,160,161
 512 746 512 746 514 750 c 0,150,151
614 750 m 0,162,163
 617 756 617 756 618 751 c 0,164,165
 618 747 618 747 616 741 c 0,166,167
 613 734 613 734 608.5 732.5 c 128,-1,168
 604 731 604 731 602 737 c 0,169,170
 600 741 600 741 602 745 c 128,-1,171
 604 749 604 749 608 748 c 0,172,173
 612 746 612 746 614 750 c 0,162,163
714 750 m 0,174,175
 717 756 717 756 718 751 c 0,176,177
 718 747 718 747 716 741 c 0,178,179
 713 734 713 734 708.5 732.5 c 128,-1,180
 704 731 704 731 702 737 c 0,181,182
 700 741 700 741 702 745 c 128,-1,183
 704 749 704 749 708 748 c 0,184,185
 712 746 712 746 714 750 c 0,174,175
814 750 m 0,186,187
 817 756 817 756 818 751 c 0,188,189
 818 747 818 747 816 741 c 0,190,191
 813 734 813 734 808.5 732.5 c 128,-1,192
 804 731 804 731 802 737 c 0,193,194
 800 741 800 741 802 745 c 128,-1,195
 804 749 804 749 808 748 c 0,196,197
 812 746 812 746 814 750 c 0,186,187
914 750 m 0,198,199
 917 756 917 756 918 751 c 0,200,201
 918 747 918 747 916 741 c 0,202,203
 913 734 913 734 908.5 732.5 c 128,-1,204
 904 731 904 731 902 737 c 0,205,206
 900 741 900 741 902 745 c 128,-1,207
 904 749 904 749 908 748 c 0,208,209
 912 746 912 746 914 750 c 0,198,199
51 716 m 0,210,211
 54 719 54 719 56 719.5 c 128,-1,212
 58 720 58 720 59 719 c 0,213,214
 60 715 60 715 54.5 707.5 c 128,-1,215
 49 700 49 700 46 701 c 0,216,217
 42 702 42 702 39.5 707.5 c 128,-1,218
 37 713 37 713 39 715 c 0,219,220
 42 717 42 717 43 713 c 0,221,222
 44 710 44 710 51 716 c 0,210,211
151 716 m 0,223,224
 154 719 154 719 156 719.5 c 128,-1,225
 158 720 158 720 159 719 c 0,226,227
 160 715 160 715 154.5 707.5 c 128,-1,228
 149 700 149 700 146 701 c 0,229,230
 142 702 142 702 139.5 707.5 c 128,-1,231
 137 713 137 713 139 715 c 0,232,233
 142 717 142 717 143 713 c 0,234,235
 144 710 144 710 151 716 c 0,223,224
251 716 m 0,236,237
 254 719 254 719 256 719.5 c 128,-1,238
 258 720 258 720 259 719 c 0,239,240
 260 715 260 715 254.5 707.5 c 128,-1,241
 249 700 249 700 246 701 c 0,242,243
 242 702 242 702 239.5 707.5 c 128,-1,244
 237 713 237 713 239 715 c 0,245,246
 242 717 242 717 243 713 c 0,247,248
 244 710 244 710 251 716 c 0,236,237
351 716 m 0,249,250
 354 719 354 719 356 719.5 c 128,-1,251
 358 720 358 720 359 719 c 0,252,253
 360 715 360 715 354.5 707.5 c 128,-1,254
 349 700 349 700 346 701 c 0,255,256
 342 702 342 702 339.5 707.5 c 128,-1,257
 337 713 337 713 339 715 c 0,258,259
 342 717 342 717 343 713 c 0,260,261
 344 710 344 710 351 716 c 0,249,250
451 716 m 0,262,263
 454 719 454 719 456 719.5 c 128,-1,264
 458 720 458 720 459 719 c 0,265,266
 460 715 460 715 454.5 707.5 c 128,-1,267
 449 700 449 700 446 701 c 0,268,269
 442 702 442 702 439.5 707.5 c 128,-1,270
 437 713 437 713 439 715 c 0,271,272
 442 717 442 717 443 713 c 0,273,274
 444 710 444 710 451 716 c 0,262,263
551 716 m 0,275,276
 554 719 554 719 556 719.5 c 128,-1,277
 558 720 558 720 559 719 c 0,278,279
 560 715 560 715 554.5 707.5 c 128,-1,280
 549 700 549 700 546 701 c 0,281,282
 542 702 542 702 539.5 707.5 c 128,-1,283
 537 713 537 713 539 715 c 0,284,285
 542 717 542 717 543 713 c 0,286,287
 544 710 544 710 551 716 c 0,275,276
651 716 m 0,288,289
 654 719 654 719 656 719.5 c 128,-1,290
 658 720 658 720 659 719 c 0,291,292
 660 715 660 715 654.5 707.5 c 128,-1,293
 649 700 649 700 646 701 c 0,294,295
 642 702 642 702 639.5 707.5 c 128,-1,296
 637 713 637 713 639 715 c 0,297,298
 642 717 642 717 643 713 c 0,299,300
 644 710 644 710 651 716 c 0,288,289
751 716 m 0,301,302
 754 719 754 719 756 719.5 c 128,-1,303
 758 720 758 720 759 719 c 0,304,305
 760 715 760 715 754.5 707.5 c 128,-1,306
 749 700 749 700 746 701 c 0,307,308
 742 702 742 702 739.5 707.5 c 128,-1,309
 737 713 737 713 739 715 c 0,310,311
 742 717 742 717 743 713 c 0,312,313
 744 710 744 710 751 716 c 0,301,302
851 716 m 0,314,315
 854 719 854 719 856 719.5 c 128,-1,316
 858 720 858 720 859 719 c 0,317,318
 860 715 860 715 854.5 707.5 c 128,-1,319
 849 700 849 700 846 701 c 0,320,321
 842 702 842 702 839.5 707.5 c 128,-1,322
 837 713 837 713 839 715 c 0,323,324
 842 717 842 717 843 713 c 0,325,326
 844 710 844 710 851 716 c 0,314,315
951 716 m 0,327,328
 954 719 954 719 956 719.5 c 128,-1,329
 958 720 958 720 959 719 c 0,330,331
 960 715 960 715 954.5 707.5 c 128,-1,332
 949 700 949 700 946 701 c 0,333,334
 942 702 942 702 939.5 707.5 c 128,-1,335
 937 713 937 713 939 715 c 0,336,337
 942 717 942 717 943 713 c 0,338,339
 944 710 944 710 951 716 c 0,327,328
66 675.5 m 128,-1,341
 66 679 66 679 68 677 c 0,342,343
 71 675 71 675 70 668 c 0,344,345
 68 661 68 661 63.5 660.5 c 128,-1,346
 59 660 59 660 56 667 c 0,347,348
 53 672 53 672 59.5 672 c 128,-1,340
 66 672 66 672 66 675.5 c 128,-1,341
166 675.5 m 128,-1,350
 166 679 166 679 168 677 c 0,351,352
 171 675 171 675 170 668 c 0,353,354
 168 661 168 661 163.5 660.5 c 128,-1,355
 159 660 159 660 156 667 c 0,356,357
 153 672 153 672 159.5 672 c 128,-1,349
 166 672 166 672 166 675.5 c 128,-1,350
266 675.5 m 128,-1,359
 266 679 266 679 268 677 c 0,360,361
 271 675 271 675 270 668 c 0,362,363
 268 661 268 661 263.5 660.5 c 128,-1,364
 259 660 259 660 256 667 c 0,365,366
 253 672 253 672 259.5 672 c 128,-1,358
 266 672 266 672 266 675.5 c 128,-1,359
366 675.5 m 128,-1,368
 366 679 366 679 368 677 c 0,369,370
 371 675 371 675 370 668 c 0,371,372
 368 661 368 661 363.5 660.5 c 128,-1,373
 359 660 359 660 356 667 c 0,374,375
 353 672 353 672 359.5 672 c 128,-1,367
 366 672 366 672 366 675.5 c 128,-1,368
466 675.5 m 128,-1,377
 466 679 466 679 468 677 c 0,378,379
 471 675 471 675 470 668 c 0,380,381
 468 661 468 661 463.5 660.5 c 128,-1,382
 459 660 459 660 456 667 c 0,383,384
 453 672 453 672 459.5 672 c 128,-1,376
 466 672 466 672 466 675.5 c 128,-1,377
566 675.5 m 128,-1,386
 566 679 566 679 568 677 c 0,387,388
 571 675 571 675 570 668 c 0,389,390
 568 661 568 661 563.5 660.5 c 128,-1,391
 559 660 559 660 556 667 c 0,392,393
 553 672 553 672 559.5 672 c 128,-1,385
 566 672 566 672 566 675.5 c 128,-1,386
666 675.5 m 128,-1,395
 666 679 666 679 668 677 c 0,396,397
 671 675 671 675 670 668 c 0,398,399
 668 661 668 661 663.5 660.5 c 128,-1,400
 659 660 659 660 656 667 c 0,401,402
 653 672 653 672 659.5 672 c 128,-1,394
 666 672 666 672 666 675.5 c 128,-1,395
766 675.5 m 128,-1,404
 766 679 766 679 768 677 c 0,405,406
 771 675 771 675 770 668 c 0,407,408
 768 661 768 661 763.5 660.5 c 128,-1,409
 759 660 759 660 756 667 c 0,410,411
 753 672 753 672 759.5 672 c 128,-1,403
 766 672 766 672 766 675.5 c 128,-1,404
866 675.5 m 128,-1,413
 866 679 866 679 868 677 c 0,414,415
 871 675 871 675 870 668 c 0,416,417
 868 661 868 661 863.5 660.5 c 128,-1,418
 859 660 859 660 856 667 c 0,419,420
 853 672 853 672 859.5 672 c 128,-1,412
 866 672 866 672 866 675.5 c 128,-1,413
966 675.5 m 128,-1,422
 966 679 966 679 968 677 c 0,423,424
 971 675 971 675 970 668 c 0,425,426
 968 661 968 661 963.5 660.5 c 128,-1,427
 959 660 959 660 956 667 c 0,428,429
 953 672 953 672 959.5 672 c 128,-1,421
 966 672 966 672 966 675.5 c 128,-1,422
14 650 m 0,430,431
 17 656 17 656 18 651 c 0,432,433
 18 647 18 647 16 641 c 0,434,435
 13 634 13 634 8.5 632.5 c 128,-1,436
 4 631 4 631 2 637 c 0,437,438
 0 641 0 641 2 645 c 128,-1,439
 4 649 4 649 8 648 c 0,440,441
 12 646 12 646 14 650 c 0,430,431
114 650 m 0,442,443
 117 656 117 656 118 651 c 0,444,445
 118 647 118 647 116 641 c 0,446,447
 113 634 113 634 108.5 632.5 c 128,-1,448
 104 631 104 631 102 637 c 0,449,450
 100 641 100 641 102 645 c 128,-1,451
 104 649 104 649 108 648 c 0,452,453
 112 646 112 646 114 650 c 0,442,443
214 650 m 0,454,455
 217 656 217 656 218 651 c 0,456,457
 218 647 218 647 216 641 c 0,458,459
 213 634 213 634 208.5 632.5 c 128,-1,460
 204 631 204 631 202 637 c 0,461,462
 200 641 200 641 202 645 c 128,-1,463
 204 649 204 649 208 648 c 0,464,465
 212 646 212 646 214 650 c 0,454,455
314 650 m 0,466,467
 317 656 317 656 318 651 c 0,468,469
 318 647 318 647 316 641 c 0,470,471
 313 634 313 634 308.5 632.5 c 128,-1,472
 304 631 304 631 302 637 c 0,473,474
 300 641 300 641 302 645 c 128,-1,475
 304 649 304 649 308 648 c 0,476,477
 312 646 312 646 314 650 c 0,466,467
414 650 m 0,478,479
 417 656 417 656 418 651 c 0,480,481
 418 647 418 647 416 641 c 0,482,483
 413 634 413 634 408.5 632.5 c 128,-1,484
 404 631 404 631 402 637 c 0,485,486
 400 641 400 641 402 645 c 128,-1,487
 404 649 404 649 408 648 c 0,488,489
 412 646 412 646 414 650 c 0,478,479
514 650 m 0,490,491
 517 656 517 656 518 651 c 0,492,493
 518 647 518 647 516 641 c 0,494,495
 513 634 513 634 508.5 632.5 c 128,-1,496
 504 631 504 631 502 637 c 0,497,498
 500 641 500 641 502 645 c 128,-1,499
 504 649 504 649 508 648 c 0,500,501
 512 646 512 646 514 650 c 0,490,491
614 650 m 0,502,503
 617 656 617 656 618 651 c 0,504,505
 618 647 618 647 616 641 c 0,506,507
 613 634 613 634 608.5 632.5 c 128,-1,508
 604 631 604 631 602 637 c 0,509,510
 600 641 600 641 602 645 c 128,-1,511
 604 649 604 649 608 648 c 0,512,513
 612 646 612 646 614 650 c 0,502,503
714 650 m 0,514,515
 717 656 717 656 718 651 c 0,516,517
 718 647 718 647 716 641 c 0,518,519
 713 634 713 634 708.5 632.5 c 128,-1,520
 704 631 704 631 702 637 c 0,521,522
 700 641 700 641 702 645 c 128,-1,523
 704 649 704 649 708 648 c 0,524,525
 712 646 712 646 714 650 c 0,514,515
814 650 m 0,526,527
 817 656 817 656 818 651 c 0,528,529
 818 647 818 647 816 641 c 0,530,531
 813 634 813 634 808.5 632.5 c 128,-1,532
 804 631 804 631 802 637 c 0,533,534
 800 641 800 641 802 645 c 128,-1,535
 804 649 804 649 808 648 c 0,536,537
 812 646 812 646 814 650 c 0,526,527
914 650 m 0,538,539
 917 656 917 656 918 651 c 0,540,541
 918 647 918 647 916 641 c 0,542,543
 913 634 913 634 908.5 632.5 c 128,-1,544
 904 631 904 631 902 637 c 0,545,546
 900 641 900 641 902 645 c 128,-1,547
 904 649 904 649 908 648 c 0,548,549
 912 646 912 646 914 650 c 0,538,539
51 616 m 0,550,551
 54 619 54 619 56 619.5 c 128,-1,552
 58 620 58 620 59 619 c 0,553,554
 60 615 60 615 54.5 607.5 c 128,-1,555
 49 600 49 600 46 601 c 0,556,557
 42 602 42 602 39.5 607.5 c 128,-1,558
 37 613 37 613 39 615 c 0,559,560
 42 617 42 617 43 613 c 0,561,562
 44 610 44 610 51 616 c 0,550,551
151 616 m 0,563,564
 154 619 154 619 156 619.5 c 128,-1,565
 158 620 158 620 159 619 c 0,566,567
 160 615 160 615 154.5 607.5 c 128,-1,568
 149 600 149 600 146 601 c 0,569,570
 142 602 142 602 139.5 607.5 c 128,-1,571
 137 613 137 613 139 615 c 0,572,573
 142 617 142 617 143 613 c 0,574,575
 144 610 144 610 151 616 c 0,563,564
251 616 m 0,576,577
 254 619 254 619 256 619.5 c 128,-1,578
 258 620 258 620 259 619 c 0,579,580
 260 615 260 615 254.5 607.5 c 128,-1,581
 249 600 249 600 246 601 c 0,582,583
 242 602 242 602 239.5 607.5 c 128,-1,584
 237 613 237 613 239 615 c 0,585,586
 242 617 242 617 243 613 c 0,587,588
 244 610 244 610 251 616 c 0,576,577
351 616 m 0,589,590
 354 619 354 619 356 619.5 c 128,-1,591
 358 620 358 620 359 619 c 0,592,593
 360 615 360 615 354.5 607.5 c 128,-1,594
 349 600 349 600 346 601 c 0,595,596
 342 602 342 602 339.5 607.5 c 128,-1,597
 337 613 337 613 339 615 c 0,598,599
 342 617 342 617 343 613 c 0,600,601
 344 610 344 610 351 616 c 0,589,590
451 616 m 0,602,603
 454 619 454 619 456 619.5 c 128,-1,604
 458 620 458 620 459 619 c 0,605,606
 460 615 460 615 454.5 607.5 c 128,-1,607
 449 600 449 600 446 601 c 0,608,609
 442 602 442 602 439.5 607.5 c 128,-1,610
 437 613 437 613 439 615 c 0,611,612
 442 617 442 617 443 613 c 0,613,614
 444 610 444 610 451 616 c 0,602,603
551 616 m 0,615,616
 554 619 554 619 556 619.5 c 128,-1,617
 558 620 558 620 559 619 c 0,618,619
 560 615 560 615 554.5 607.5 c 128,-1,620
 549 600 549 600 546 601 c 0,621,622
 542 602 542 602 539.5 607.5 c 128,-1,623
 537 613 537 613 539 615 c 0,624,625
 542 617 542 617 543 613 c 0,626,627
 544 610 544 610 551 616 c 0,615,616
651 616 m 0,628,629
 654 619 654 619 656 619.5 c 128,-1,630
 658 620 658 620 659 619 c 0,631,632
 660 615 660 615 654.5 607.5 c 128,-1,633
 649 600 649 600 646 601 c 0,634,635
 642 602 642 602 639.5 607.5 c 128,-1,636
 637 613 637 613 639 615 c 0,637,638
 642 617 642 617 643 613 c 0,639,640
 644 610 644 610 651 616 c 0,628,629
751 616 m 0,641,642
 754 619 754 619 756 619.5 c 128,-1,643
 758 620 758 620 759 619 c 0,644,645
 760 615 760 615 754.5 607.5 c 128,-1,646
 749 600 749 600 746 601 c 0,647,648
 742 602 742 602 739.5 607.5 c 128,-1,649
 737 613 737 613 739 615 c 0,650,651
 742 617 742 617 743 613 c 0,652,653
 744 610 744 610 751 616 c 0,641,642
851 616 m 0,654,655
 854 619 854 619 856 619.5 c 128,-1,656
 858 620 858 620 859 619 c 0,657,658
 860 615 860 615 854.5 607.5 c 128,-1,659
 849 600 849 600 846 601 c 0,660,661
 842 602 842 602 839.5 607.5 c 128,-1,662
 837 613 837 613 839 615 c 0,663,664
 842 617 842 617 843 613 c 0,665,666
 844 610 844 610 851 616 c 0,654,655
951 616 m 0,667,668
 954 619 954 619 956 619.5 c 128,-1,669
 958 620 958 620 959 619 c 0,670,671
 960 615 960 615 954.5 607.5 c 128,-1,672
 949 600 949 600 946 601 c 0,673,674
 942 602 942 602 939.5 607.5 c 128,-1,675
 937 613 937 613 939 615 c 0,676,677
 942 617 942 617 943 613 c 0,678,679
 944 610 944 610 951 616 c 0,667,668
66 575.5 m 128,-1,681
 66 579 66 579 68 577 c 0,682,683
 71 575 71 575 70 568 c 0,684,685
 68 561 68 561 63.5 560.5 c 128,-1,686
 59 560 59 560 56 567 c 0,687,688
 53 572 53 572 59.5 572 c 128,-1,680
 66 572 66 572 66 575.5 c 128,-1,681
166 575.5 m 128,-1,690
 166 579 166 579 168 577 c 0,691,692
 171 575 171 575 170 568 c 0,693,694
 168 561 168 561 163.5 560.5 c 128,-1,695
 159 560 159 560 156 567 c 0,696,697
 153 572 153 572 159.5 572 c 128,-1,689
 166 572 166 572 166 575.5 c 128,-1,690
266 575.5 m 128,-1,699
 266 579 266 579 268 577 c 0,700,701
 271 575 271 575 270 568 c 0,702,703
 268 561 268 561 263.5 560.5 c 128,-1,704
 259 560 259 560 256 567 c 0,705,706
 253 572 253 572 259.5 572 c 128,-1,698
 266 572 266 572 266 575.5 c 128,-1,699
366 575.5 m 128,-1,708
 366 579 366 579 368 577 c 0,709,710
 371 575 371 575 370 568 c 0,711,712
 368 561 368 561 363.5 560.5 c 128,-1,713
 359 560 359 560 356 567 c 0,714,715
 353 572 353 572 359.5 572 c 128,-1,707
 366 572 366 572 366 575.5 c 128,-1,708
466 575.5 m 128,-1,717
 466 579 466 579 468 577 c 0,718,719
 471 575 471 575 470 568 c 0,720,721
 468 561 468 561 463.5 560.5 c 128,-1,722
 459 560 459 560 456 567 c 0,723,724
 453 572 453 572 459.5 572 c 128,-1,716
 466 572 466 572 466 575.5 c 128,-1,717
566 575.5 m 128,-1,726
 566 579 566 579 568 577 c 0,727,728
 571 575 571 575 570 568 c 0,729,730
 568 561 568 561 563.5 560.5 c 128,-1,731
 559 560 559 560 556 567 c 0,732,733
 553 572 553 572 559.5 572 c 128,-1,725
 566 572 566 572 566 575.5 c 128,-1,726
666 575.5 m 128,-1,735
 666 579 666 579 668 577 c 0,736,737
 671 575 671 575 670 568 c 0,738,739
 668 561 668 561 663.5 560.5 c 128,-1,740
 659 560 659 560 656 567 c 0,741,742
 653 572 653 572 659.5 572 c 128,-1,734
 666 572 666 572 666 575.5 c 128,-1,735
766 575.5 m 128,-1,744
 766 579 766 579 768 577 c 0,745,746
 771 575 771 575 770 568 c 0,747,748
 768 561 768 561 763.5 560.5 c 128,-1,749
 759 560 759 560 756 567 c 0,750,751
 753 572 753 572 759.5 572 c 128,-1,743
 766 572 766 572 766 575.5 c 128,-1,744
866 575.5 m 128,-1,753
 866 579 866 579 868 577 c 0,754,755
 871 575 871 575 870 568 c 0,756,757
 868 561 868 561 863.5 560.5 c 128,-1,758
 859 560 859 560 856 567 c 0,759,760
 853 572 853 572 859.5 572 c 128,-1,752
 866 572 866 572 866 575.5 c 128,-1,753
966 575.5 m 128,-1,762
 966 579 966 579 968 577 c 0,763,764
 971 575 971 575 970 568 c 0,765,766
 968 561 968 561 963.5 560.5 c 128,-1,767
 959 560 959 560 956 567 c 0,768,769
 953 572 953 572 959.5 572 c 128,-1,761
 966 572 966 572 966 575.5 c 128,-1,762
14 550 m 0,770,771
 17 556 17 556 18 551 c 0,772,773
 18 547 18 547 16 541 c 0,774,775
 13 534 13 534 8.5 532.5 c 128,-1,776
 4 531 4 531 2 537 c 0,777,778
 0 541 0 541 2 545 c 128,-1,779
 4 549 4 549 8 548 c 0,780,781
 12 546 12 546 14 550 c 0,770,771
114 550 m 0,782,783
 117 556 117 556 118 551 c 0,784,785
 118 547 118 547 116 541 c 0,786,787
 113 534 113 534 108.5 532.5 c 128,-1,788
 104 531 104 531 102 537 c 0,789,790
 100 541 100 541 102 545 c 128,-1,791
 104 549 104 549 108 548 c 0,792,793
 112 546 112 546 114 550 c 0,782,783
214 550 m 0,794,795
 217 556 217 556 218 551 c 0,796,797
 218 547 218 547 216 541 c 0,798,799
 213 534 213 534 208.5 532.5 c 128,-1,800
 204 531 204 531 202 537 c 0,801,802
 200 541 200 541 202 545 c 128,-1,803
 204 549 204 549 208 548 c 0,804,805
 212 546 212 546 214 550 c 0,794,795
314 550 m 0,806,807
 317 556 317 556 318 551 c 0,808,809
 318 547 318 547 316 541 c 0,810,811
 313 534 313 534 308.5 532.5 c 128,-1,812
 304 531 304 531 302 537 c 0,813,814
 300 541 300 541 302 545 c 128,-1,815
 304 549 304 549 308 548 c 0,816,817
 312 546 312 546 314 550 c 0,806,807
414 550 m 0,818,819
 417 556 417 556 418 551 c 0,820,821
 418 547 418 547 416 541 c 0,822,823
 413 534 413 534 408.5 532.5 c 128,-1,824
 404 531 404 531 402 537 c 0,825,826
 400 541 400 541 402 545 c 128,-1,827
 404 549 404 549 408 548 c 0,828,829
 412 546 412 546 414 550 c 0,818,819
514 550 m 0,830,831
 517 556 517 556 518 551 c 0,832,833
 518 547 518 547 516 541 c 0,834,835
 513 534 513 534 508.5 532.5 c 128,-1,836
 504 531 504 531 502 537 c 0,837,838
 500 541 500 541 502 545 c 128,-1,839
 504 549 504 549 508 548 c 0,840,841
 512 546 512 546 514 550 c 0,830,831
614 550 m 0,842,843
 617 556 617 556 618 551 c 0,844,845
 618 547 618 547 616 541 c 0,846,847
 613 534 613 534 608.5 532.5 c 128,-1,848
 604 531 604 531 602 537 c 0,849,850
 600 541 600 541 602 545 c 128,-1,851
 604 549 604 549 608 548 c 0,852,853
 612 546 612 546 614 550 c 0,842,843
714 550 m 0,854,855
 717 556 717 556 718 551 c 0,856,857
 718 547 718 547 716 541 c 0,858,859
 713 534 713 534 708.5 532.5 c 128,-1,860
 704 531 704 531 702 537 c 0,861,862
 700 541 700 541 702 545 c 128,-1,863
 704 549 704 549 708 548 c 0,864,865
 712 546 712 546 714 550 c 0,854,855
814 550 m 0,866,867
 817 556 817 556 818 551 c 0,868,869
 818 547 818 547 816 541 c 0,870,871
 813 534 813 534 808.5 532.5 c 128,-1,872
 804 531 804 531 802 537 c 0,873,874
 800 541 800 541 802 545 c 128,-1,875
 804 549 804 549 808 548 c 0,876,877
 812 546 812 546 814 550 c 0,866,867
914 550 m 0,878,879
 917 556 917 556 918 551 c 0,880,881
 918 547 918 547 916 541 c 0,882,883
 913 534 913 534 908.5 532.5 c 128,-1,884
 904 531 904 531 902 537 c 0,885,886
 900 541 900 541 902 545 c 128,-1,887
 904 549 904 549 908 548 c 0,888,889
 912 546 912 546 914 550 c 0,878,879
51 516 m 0,890,891
 54 519 54 519 56 519.5 c 128,-1,892
 58 520 58 520 59 519 c 0,893,894
 60 515 60 515 54.5 507.5 c 128,-1,895
 49 500 49 500 46 501 c 0,896,897
 42 502 42 502 39.5 507.5 c 128,-1,898
 37 513 37 513 39 515 c 0,899,900
 42 517 42 517 43 513 c 0,901,902
 44 510 44 510 51 516 c 0,890,891
151 516 m 0,903,904
 154 519 154 519 156 519.5 c 128,-1,905
 158 520 158 520 159 519 c 0,906,907
 160 515 160 515 154.5 507.5 c 128,-1,908
 149 500 149 500 146 501 c 0,909,910
 142 502 142 502 139.5 507.5 c 128,-1,911
 137 513 137 513 139 515 c 0,912,913
 142 517 142 517 143 513 c 0,914,915
 144 510 144 510 151 516 c 0,903,904
251 516 m 0,916,917
 254 519 254 519 256 519.5 c 128,-1,918
 258 520 258 520 259 519 c 0,919,920
 260 515 260 515 254.5 507.5 c 128,-1,921
 249 500 249 500 246 501 c 0,922,923
 242 502 242 502 239.5 507.5 c 128,-1,924
 237 513 237 513 239 515 c 0,925,926
 242 517 242 517 243 513 c 0,927,928
 244 510 244 510 251 516 c 0,916,917
351 516 m 0,929,930
 354 519 354 519 356 519.5 c 128,-1,931
 358 520 358 520 359 519 c 0,932,933
 360 515 360 515 354.5 507.5 c 128,-1,934
 349 500 349 500 346 501 c 0,935,936
 342 502 342 502 339.5 507.5 c 128,-1,937
 337 513 337 513 339 515 c 0,938,939
 342 517 342 517 343 513 c 0,940,941
 344 510 344 510 351 516 c 0,929,930
451 516 m 0,942,943
 454 519 454 519 456 519.5 c 128,-1,944
 458 520 458 520 459 519 c 0,945,946
 460 515 460 515 454.5 507.5 c 128,-1,947
 449 500 449 500 446 501 c 0,948,949
 442 502 442 502 439.5 507.5 c 128,-1,950
 437 513 437 513 439 515 c 0,951,952
 442 517 442 517 443 513 c 0,953,954
 444 510 444 510 451 516 c 0,942,943
551 516 m 0,955,956
 554 519 554 519 556 519.5 c 128,-1,957
 558 520 558 520 559 519 c 0,958,959
 560 515 560 515 554.5 507.5 c 128,-1,960
 549 500 549 500 546 501 c 0,961,962
 542 502 542 502 539.5 507.5 c 128,-1,963
 537 513 537 513 539 515 c 0,964,965
 542 517 542 517 543 513 c 0,966,967
 544 510 544 510 551 516 c 0,955,956
651 516 m 0,968,969
 654 519 654 519 656 519.5 c 128,-1,970
 658 520 658 520 659 519 c 0,971,972
 660 515 660 515 654.5 507.5 c 128,-1,973
 649 500 649 500 646 501 c 0,974,975
 642 502 642 502 639.5 507.5 c 128,-1,976
 637 513 637 513 639 515 c 0,977,978
 642 517 642 517 643 513 c 0,979,980
 644 510 644 510 651 516 c 0,968,969
751 516 m 0,981,982
 754 519 754 519 756 519.5 c 128,-1,983
 758 520 758 520 759 519 c 0,984,985
 760 515 760 515 754.5 507.5 c 128,-1,986
 749 500 749 500 746 501 c 0,987,988
 742 502 742 502 739.5 507.5 c 128,-1,989
 737 513 737 513 739 515 c 0,990,991
 742 517 742 517 743 513 c 0,992,993
 744 510 744 510 751 516 c 0,981,982
851 516 m 0,994,995
 854 519 854 519 856 519.5 c 128,-1,996
 858 520 858 520 859 519 c 0,997,998
 860 515 860 515 854.5 507.5 c 128,-1,999
 849 500 849 500 846 501 c 0,1000,1001
 842 502 842 502 839.5 507.5 c 128,-1,1002
 837 513 837 513 839 515 c 0,1003,1004
 842 517 842 517 843 513 c 0,1005,1006
 844 510 844 510 851 516 c 0,994,995
951 516 m 0,1007,1008
 954 519 954 519 956 519.5 c 128,-1,1009
 958 520 958 520 959 519 c 0,1010,1011
 960 515 960 515 954.5 507.5 c 128,-1,1012
 949 500 949 500 946 501 c 0,1013,1014
 942 502 942 502 939.5 507.5 c 128,-1,1015
 937 513 937 513 939 515 c 0,1016,1017
 942 517 942 517 943 513 c 0,1018,1019
 944 510 944 510 951 516 c 0,1007,1008
66 475.5 m 128,-1,1021
 66 479 66 479 68 477 c 0,1022,1023
 71 475 71 475 70 468 c 0,1024,1025
 68 461 68 461 63.5 460.5 c 128,-1,1026
 59 460 59 460 56 467 c 0,1027,1028
 53 472 53 472 59.5 472 c 128,-1,1020
 66 472 66 472 66 475.5 c 128,-1,1021
166 475.5 m 128,-1,1030
 166 479 166 479 168 477 c 0,1031,1032
 171 475 171 475 170 468 c 0,1033,1034
 168 461 168 461 163.5 460.5 c 128,-1,1035
 159 460 159 460 156 467 c 0,1036,1037
 153 472 153 472 159.5 472 c 128,-1,1029
 166 472 166 472 166 475.5 c 128,-1,1030
266 475.5 m 128,-1,1039
 266 479 266 479 268 477 c 0,1040,1041
 271 475 271 475 270 468 c 0,1042,1043
 268 461 268 461 263.5 460.5 c 128,-1,1044
 259 460 259 460 256 467 c 0,1045,1046
 253 472 253 472 259.5 472 c 128,-1,1038
 266 472 266 472 266 475.5 c 128,-1,1039
366 475.5 m 128,-1,1048
 366 479 366 479 368 477 c 0,1049,1050
 371 475 371 475 370 468 c 0,1051,1052
 368 461 368 461 363.5 460.5 c 128,-1,1053
 359 460 359 460 356 467 c 0,1054,1055
 353 472 353 472 359.5 472 c 128,-1,1047
 366 472 366 472 366 475.5 c 128,-1,1048
466 475.5 m 128,-1,1057
 466 479 466 479 468 477 c 0,1058,1059
 471 475 471 475 470 468 c 0,1060,1061
 468 461 468 461 463.5 460.5 c 128,-1,1062
 459 460 459 460 456 467 c 0,1063,1064
 453 472 453 472 459.5 472 c 128,-1,1056
 466 472 466 472 466 475.5 c 128,-1,1057
566 475.5 m 128,-1,1066
 566 479 566 479 568 477 c 0,1067,1068
 571 475 571 475 570 468 c 0,1069,1070
 568 461 568 461 563.5 460.5 c 128,-1,1071
 559 460 559 460 556 467 c 0,1072,1073
 553 472 553 472 559.5 472 c 128,-1,1065
 566 472 566 472 566 475.5 c 128,-1,1066
666 475.5 m 128,-1,1075
 666 479 666 479 668 477 c 0,1076,1077
 671 475 671 475 670 468 c 0,1078,1079
 668 461 668 461 663.5 460.5 c 128,-1,1080
 659 460 659 460 656 467 c 0,1081,1082
 653 472 653 472 659.5 472 c 128,-1,1074
 666 472 666 472 666 475.5 c 128,-1,1075
766 475.5 m 128,-1,1084
 766 479 766 479 768 477 c 0,1085,1086
 771 475 771 475 770 468 c 0,1087,1088
 768 461 768 461 763.5 460.5 c 128,-1,1089
 759 460 759 460 756 467 c 0,1090,1091
 753 472 753 472 759.5 472 c 128,-1,1083
 766 472 766 472 766 475.5 c 128,-1,1084
866 475.5 m 128,-1,1093
 866 479 866 479 868 477 c 0,1094,1095
 871 475 871 475 870 468 c 0,1096,1097
 868 461 868 461 863.5 460.5 c 128,-1,1098
 859 460 859 460 856 467 c 0,1099,1100
 853 472 853 472 859.5 472 c 128,-1,1092
 866 472 866 472 866 475.5 c 128,-1,1093
966 475.5 m 128,-1,1102
 966 479 966 479 968 477 c 0,1103,1104
 971 475 971 475 970 468 c 0,1105,1106
 968 461 968 461 963.5 460.5 c 128,-1,1107
 959 460 959 460 956 467 c 0,1108,1109
 953 472 953 472 959.5 472 c 128,-1,1101
 966 472 966 472 966 475.5 c 128,-1,1102
14 450 m 0,1110,1111
 17 456 17 456 18 451 c 0,1112,1113
 18 447 18 447 16 441 c 0,1114,1115
 13 434 13 434 8.5 432.5 c 128,-1,1116
 4 431 4 431 2 437 c 0,1117,1118
 0 441 0 441 2 445 c 128,-1,1119
 4 449 4 449 8 448 c 0,1120,1121
 12 446 12 446 14 450 c 0,1110,1111
114 450 m 0,1122,1123
 117 456 117 456 118 451 c 0,1124,1125
 118 447 118 447 116 441 c 0,1126,1127
 113 434 113 434 108.5 432.5 c 128,-1,1128
 104 431 104 431 102 437 c 0,1129,1130
 100 441 100 441 102 445 c 128,-1,1131
 104 449 104 449 108 448 c 0,1132,1133
 112 446 112 446 114 450 c 0,1122,1123
214 450 m 0,1134,1135
 217 456 217 456 218 451 c 0,1136,1137
 218 447 218 447 216 441 c 0,1138,1139
 213 434 213 434 208.5 432.5 c 128,-1,1140
 204 431 204 431 202 437 c 0,1141,1142
 200 441 200 441 202 445 c 128,-1,1143
 204 449 204 449 208 448 c 0,1144,1145
 212 446 212 446 214 450 c 0,1134,1135
314 450 m 0,1146,1147
 317 456 317 456 318 451 c 0,1148,1149
 318 447 318 447 316 441 c 0,1150,1151
 313 434 313 434 308.5 432.5 c 128,-1,1152
 304 431 304 431 302 437 c 0,1153,1154
 300 441 300 441 302 445 c 128,-1,1155
 304 449 304 449 308 448 c 0,1156,1157
 312 446 312 446 314 450 c 0,1146,1147
414 450 m 0,1158,1159
 417 456 417 456 418 451 c 0,1160,1161
 418 447 418 447 416 441 c 0,1162,1163
 413 434 413 434 408.5 432.5 c 128,-1,1164
 404 431 404 431 402 437 c 0,1165,1166
 400 441 400 441 402 445 c 128,-1,1167
 404 449 404 449 408 448 c 0,1168,1169
 412 446 412 446 414 450 c 0,1158,1159
514 450 m 0,1170,1171
 517 456 517 456 518 451 c 0,1172,1173
 518 447 518 447 516 441 c 0,1174,1175
 513 434 513 434 508.5 432.5 c 128,-1,1176
 504 431 504 431 502 437 c 0,1177,1178
 500 441 500 441 502 445 c 128,-1,1179
 504 449 504 449 508 448 c 0,1180,1181
 512 446 512 446 514 450 c 0,1170,1171
614 450 m 0,1182,1183
 617 456 617 456 618 451 c 0,1184,1185
 618 447 618 447 616 441 c 0,1186,1187
 613 434 613 434 608.5 432.5 c 128,-1,1188
 604 431 604 431 602 437 c 0,1189,1190
 600 441 600 441 602 445 c 128,-1,1191
 604 449 604 449 608 448 c 0,1192,1193
 612 446 612 446 614 450 c 0,1182,1183
714 450 m 0,1194,1195
 717 456 717 456 718 451 c 0,1196,1197
 718 447 718 447 716 441 c 0,1198,1199
 713 434 713 434 708.5 432.5 c 128,-1,1200
 704 431 704 431 702 437 c 0,1201,1202
 700 441 700 441 702 445 c 128,-1,1203
 704 449 704 449 708 448 c 0,1204,1205
 712 446 712 446 714 450 c 0,1194,1195
814 450 m 0,1206,1207
 817 456 817 456 818 451 c 0,1208,1209
 818 447 818 447 816 441 c 0,1210,1211
 813 434 813 434 808.5 432.5 c 128,-1,1212
 804 431 804 431 802 437 c 0,1213,1214
 800 441 800 441 802 445 c 128,-1,1215
 804 449 804 449 808 448 c 0,1216,1217
 812 446 812 446 814 450 c 0,1206,1207
914 450 m 0,1218,1219
 917 456 917 456 918 451 c 0,1220,1221
 918 447 918 447 916 441 c 0,1222,1223
 913 434 913 434 908.5 432.5 c 128,-1,1224
 904 431 904 431 902 437 c 0,1225,1226
 900 441 900 441 902 445 c 128,-1,1227
 904 449 904 449 908 448 c 0,1228,1229
 912 446 912 446 914 450 c 0,1218,1219
51 416 m 0,1230,1231
 54 419 54 419 56 419.5 c 128,-1,1232
 58 420 58 420 59 419 c 0,1233,1234
 60 415 60 415 54.5 407.5 c 128,-1,1235
 49 400 49 400 46 401 c 0,1236,1237
 42 402 42 402 39.5 407.5 c 128,-1,1238
 37 413 37 413 39 415 c 0,1239,1240
 42 417 42 417 43 413 c 0,1241,1242
 44 410 44 410 51 416 c 0,1230,1231
151 416 m 0,1243,1244
 154 419 154 419 156 419.5 c 128,-1,1245
 158 420 158 420 159 419 c 0,1246,1247
 160 415 160 415 154.5 407.5 c 128,-1,1248
 149 400 149 400 146 401 c 0,1249,1250
 142 402 142 402 139.5 407.5 c 128,-1,1251
 137 413 137 413 139 415 c 0,1252,1253
 142 417 142 417 143 413 c 0,1254,1255
 144 410 144 410 151 416 c 0,1243,1244
251 416 m 0,1256,1257
 254 419 254 419 256 419.5 c 128,-1,1258
 258 420 258 420 259 419 c 0,1259,1260
 260 415 260 415 254.5 407.5 c 128,-1,1261
 249 400 249 400 246 401 c 0,1262,1263
 242 402 242 402 239.5 407.5 c 128,-1,1264
 237 413 237 413 239 415 c 0,1265,1266
 242 417 242 417 243 413 c 0,1267,1268
 244 410 244 410 251 416 c 0,1256,1257
351 416 m 0,1269,1270
 354 419 354 419 356 419.5 c 128,-1,1271
 358 420 358 420 359 419 c 0,1272,1273
 360 415 360 415 354.5 407.5 c 128,-1,1274
 349 400 349 400 346 401 c 0,1275,1276
 342 402 342 402 339.5 407.5 c 128,-1,1277
 337 413 337 413 339 415 c 0,1278,1279
 342 417 342 417 343 413 c 0,1280,1281
 344 410 344 410 351 416 c 0,1269,1270
451 416 m 0,1282,1283
 454 419 454 419 456 419.5 c 128,-1,1284
 458 420 458 420 459 419 c 0,1285,1286
 460 415 460 415 454.5 407.5 c 128,-1,1287
 449 400 449 400 446 401 c 0,1288,1289
 442 402 442 402 439.5 407.5 c 128,-1,1290
 437 413 437 413 439 415 c 0,1291,1292
 442 417 442 417 443 413 c 0,1293,1294
 444 410 444 410 451 416 c 0,1282,1283
551 416 m 0,1295,1296
 554 419 554 419 556 419.5 c 128,-1,1297
 558 420 558 420 559 419 c 0,1298,1299
 560 415 560 415 554.5 407.5 c 128,-1,1300
 549 400 549 400 546 401 c 0,1301,1302
 542 402 542 402 539.5 407.5 c 128,-1,1303
 537 413 537 413 539 415 c 0,1304,1305
 542 417 542 417 543 413 c 0,1306,1307
 544 410 544 410 551 416 c 0,1295,1296
651 416 m 0,1308,1309
 654 419 654 419 656 419.5 c 128,-1,1310
 658 420 658 420 659 419 c 0,1311,1312
 660 415 660 415 654.5 407.5 c 128,-1,1313
 649 400 649 400 646 401 c 0,1314,1315
 642 402 642 402 639.5 407.5 c 128,-1,1316
 637 413 637 413 639 415 c 0,1317,1318
 642 417 642 417 643 413 c 0,1319,1320
 644 410 644 410 651 416 c 0,1308,1309
751 416 m 0,1321,1322
 754 419 754 419 756 419.5 c 128,-1,1323
 758 420 758 420 759 419 c 0,1324,1325
 760 415 760 415 754.5 407.5 c 128,-1,1326
 749 400 749 400 746 401 c 0,1327,1328
 742 402 742 402 739.5 407.5 c 128,-1,1329
 737 413 737 413 739 415 c 0,1330,1331
 742 417 742 417 743 413 c 0,1332,1333
 744 410 744 410 751 416 c 0,1321,1322
851 416 m 0,1334,1335
 854 419 854 419 856 419.5 c 128,-1,1336
 858 420 858 420 859 419 c 0,1337,1338
 860 415 860 415 854.5 407.5 c 128,-1,1339
 849 400 849 400 846 401 c 0,1340,1341
 842 402 842 402 839.5 407.5 c 128,-1,1342
 837 413 837 413 839 415 c 0,1343,1344
 842 417 842 417 843 413 c 0,1345,1346
 844 410 844 410 851 416 c 0,1334,1335
951 416 m 0,1347,1348
 954 419 954 419 956 419.5 c 128,-1,1349
 958 420 958 420 959 419 c 0,1350,1351
 960 415 960 415 954.5 407.5 c 128,-1,1352
 949 400 949 400 946 401 c 0,1353,1354
 942 402 942 402 939.5 407.5 c 128,-1,1355
 937 413 937 413 939 415 c 0,1356,1357
 942 417 942 417 943 413 c 0,1358,1359
 944 410 944 410 951 416 c 0,1347,1348
66 375.5 m 128,-1,1361
 66 379 66 379 68 377 c 0,1362,1363
 71 375 71 375 70 368 c 0,1364,1365
 68 361 68 361 63.5 360.5 c 128,-1,1366
 59 360 59 360 56 367 c 0,1367,1368
 53 372 53 372 59.5 372 c 128,-1,1360
 66 372 66 372 66 375.5 c 128,-1,1361
166 375.5 m 128,-1,1370
 166 379 166 379 168 377 c 0,1371,1372
 171 375 171 375 170 368 c 0,1373,1374
 168 361 168 361 163.5 360.5 c 128,-1,1375
 159 360 159 360 156 367 c 0,1376,1377
 153 372 153 372 159.5 372 c 128,-1,1369
 166 372 166 372 166 375.5 c 128,-1,1370
266 375.5 m 128,-1,1379
 266 379 266 379 268 377 c 0,1380,1381
 271 375 271 375 270 368 c 0,1382,1383
 268 361 268 361 263.5 360.5 c 128,-1,1384
 259 360 259 360 256 367 c 0,1385,1386
 253 372 253 372 259.5 372 c 128,-1,1378
 266 372 266 372 266 375.5 c 128,-1,1379
366 375.5 m 128,-1,1388
 366 379 366 379 368 377 c 0,1389,1390
 371 375 371 375 370 368 c 0,1391,1392
 368 361 368 361 363.5 360.5 c 128,-1,1393
 359 360 359 360 356 367 c 0,1394,1395
 353 372 353 372 359.5 372 c 128,-1,1387
 366 372 366 372 366 375.5 c 128,-1,1388
466 375.5 m 128,-1,1397
 466 379 466 379 468 377 c 0,1398,1399
 471 375 471 375 470 368 c 0,1400,1401
 468 361 468 361 463.5 360.5 c 128,-1,1402
 459 360 459 360 456 367 c 0,1403,1404
 453 372 453 372 459.5 372 c 128,-1,1396
 466 372 466 372 466 375.5 c 128,-1,1397
566 375.5 m 128,-1,1406
 566 379 566 379 568 377 c 0,1407,1408
 571 375 571 375 570 368 c 0,1409,1410
 568 361 568 361 563.5 360.5 c 128,-1,1411
 559 360 559 360 556 367 c 0,1412,1413
 553 372 553 372 559.5 372 c 128,-1,1405
 566 372 566 372 566 375.5 c 128,-1,1406
666 375.5 m 128,-1,1415
 666 379 666 379 668 377 c 0,1416,1417
 671 375 671 375 670 368 c 0,1418,1419
 668 361 668 361 663.5 360.5 c 128,-1,1420
 659 360 659 360 656 367 c 0,1421,1422
 653 372 653 372 659.5 372 c 128,-1,1414
 666 372 666 372 666 375.5 c 128,-1,1415
766 375.5 m 128,-1,1424
 766 379 766 379 768 377 c 0,1425,1426
 771 375 771 375 770 368 c 0,1427,1428
 768 361 768 361 763.5 360.5 c 128,-1,1429
 759 360 759 360 756 367 c 0,1430,1431
 753 372 753 372 759.5 372 c 128,-1,1423
 766 372 766 372 766 375.5 c 128,-1,1424
866 375.5 m 128,-1,1433
 866 379 866 379 868 377 c 0,1434,1435
 871 375 871 375 870 368 c 0,1436,1437
 868 361 868 361 863.5 360.5 c 128,-1,1438
 859 360 859 360 856 367 c 0,1439,1440
 853 372 853 372 859.5 372 c 128,-1,1432
 866 372 866 372 866 375.5 c 128,-1,1433
966 375.5 m 128,-1,1442
 966 379 966 379 968 377 c 0,1443,1444
 971 375 971 375 970 368 c 0,1445,1446
 968 361 968 361 963.5 360.5 c 128,-1,1447
 959 360 959 360 956 367 c 0,1448,1449
 953 372 953 372 959.5 372 c 128,-1,1441
 966 372 966 372 966 375.5 c 128,-1,1442
14 350 m 0,1450,1451
 17 356 17 356 18 351 c 0,1452,1453
 18 347 18 347 16 341 c 0,1454,1455
 13 334 13 334 8.5 332.5 c 128,-1,1456
 4 331 4 331 2 337 c 0,1457,1458
 0 341 0 341 2 345 c 128,-1,1459
 4 349 4 349 8 348 c 0,1460,1461
 12 346 12 346 14 350 c 0,1450,1451
114 350 m 0,1462,1463
 117 356 117 356 118 351 c 0,1464,1465
 118 347 118 347 116 341 c 0,1466,1467
 113 334 113 334 108.5 332.5 c 128,-1,1468
 104 331 104 331 102 337 c 0,1469,1470
 100 341 100 341 102 345 c 128,-1,1471
 104 349 104 349 108 348 c 0,1472,1473
 112 346 112 346 114 350 c 0,1462,1463
214 350 m 0,1474,1475
 217 356 217 356 218 351 c 0,1476,1477
 218 347 218 347 216 341 c 0,1478,1479
 213 334 213 334 208.5 332.5 c 128,-1,1480
 204 331 204 331 202 337 c 0,1481,1482
 200 341 200 341 202 345 c 128,-1,1483
 204 349 204 349 208 348 c 0,1484,1485
 212 346 212 346 214 350 c 0,1474,1475
314 350 m 0,1486,1487
 317 356 317 356 318 351 c 0,1488,1489
 318 347 318 347 316 341 c 0,1490,1491
 313 334 313 334 308.5 332.5 c 128,-1,1492
 304 331 304 331 302 337 c 0,1493,1494
 300 341 300 341 302 345 c 128,-1,1495
 304 349 304 349 308 348 c 0,1496,1497
 312 346 312 346 314 350 c 0,1486,1487
414 350 m 0,1498,1499
 417 356 417 356 418 351 c 0,1500,1501
 418 347 418 347 416 341 c 0,1502,1503
 413 334 413 334 408.5 332.5 c 128,-1,1504
 404 331 404 331 402 337 c 0,1505,1506
 400 341 400 341 402 345 c 128,-1,1507
 404 349 404 349 408 348 c 0,1508,1509
 412 346 412 346 414 350 c 0,1498,1499
514 350 m 0,1510,1511
 517 356 517 356 518 351 c 0,1512,1513
 518 347 518 347 516 341 c 0,1514,1515
 513 334 513 334 508.5 332.5 c 128,-1,1516
 504 331 504 331 502 337 c 0,1517,1518
 500 341 500 341 502 345 c 128,-1,1519
 504 349 504 349 508 348 c 0,1520,1521
 512 346 512 346 514 350 c 0,1510,1511
614 350 m 0,1522,1523
 617 356 617 356 618 351 c 0,1524,1525
 618 347 618 347 616 341 c 0,1526,1527
 613 334 613 334 608.5 332.5 c 128,-1,1528
 604 331 604 331 602 337 c 0,1529,1530
 600 341 600 341 602 345 c 128,-1,1531
 604 349 604 349 608 348 c 0,1532,1533
 612 346 612 346 614 350 c 0,1522,1523
714 350 m 0,1534,1535
 717 356 717 356 718 351 c 0,1536,1537
 718 347 718 347 716 341 c 0,1538,1539
 713 334 713 334 708.5 332.5 c 128,-1,1540
 704 331 704 331 702 337 c 0,1541,1542
 700 341 700 341 702 345 c 128,-1,1543
 704 349 704 349 708 348 c 0,1544,1545
 712 346 712 346 714 350 c 0,1534,1535
814 350 m 0,1546,1547
 817 356 817 356 818 351 c 0,1548,1549
 818 347 818 347 816 341 c 0,1550,1551
 813 334 813 334 808.5 332.5 c 128,-1,1552
 804 331 804 331 802 337 c 0,1553,1554
 800 341 800 341 802 345 c 128,-1,1555
 804 349 804 349 808 348 c 0,1556,1557
 812 346 812 346 814 350 c 0,1546,1547
914 350 m 0,1558,1559
 917 356 917 356 918 351 c 0,1560,1561
 918 347 918 347 916 341 c 0,1562,1563
 913 334 913 334 908.5 332.5 c 128,-1,1564
 904 331 904 331 902 337 c 0,1565,1566
 900 341 900 341 902 345 c 128,-1,1567
 904 349 904 349 908 348 c 0,1568,1569
 912 346 912 346 914 350 c 0,1558,1559
51 316 m 0,1570,1571
 54 319 54 319 56 319.5 c 128,-1,1572
 58 320 58 320 59 319 c 0,1573,1574
 60 315 60 315 54.5 307.5 c 128,-1,1575
 49 300 49 300 46 301 c 0,1576,1577
 42 302 42 302 39.5 307.5 c 128,-1,1578
 37 313 37 313 39 315 c 0,1579,1580
 42 317 42 317 43 313 c 0,1581,1582
 44 310 44 310 51 316 c 0,1570,1571
151 316 m 0,1583,1584
 154 319 154 319 156 319.5 c 128,-1,1585
 158 320 158 320 159 319 c 0,1586,1587
 160 315 160 315 154.5 307.5 c 128,-1,1588
 149 300 149 300 146 301 c 0,1589,1590
 142 302 142 302 139.5 307.5 c 128,-1,1591
 137 313 137 313 139 315 c 0,1592,1593
 142 317 142 317 143 313 c 0,1594,1595
 144 310 144 310 151 316 c 0,1583,1584
251 316 m 0,1596,1597
 254 319 254 319 256 319.5 c 128,-1,1598
 258 320 258 320 259 319 c 0,1599,1600
 260 315 260 315 254.5 307.5 c 128,-1,1601
 249 300 249 300 246 301 c 0,1602,1603
 242 302 242 302 239.5 307.5 c 128,-1,1604
 237 313 237 313 239 315 c 0,1605,1606
 242 317 242 317 243 313 c 0,1607,1608
 244 310 244 310 251 316 c 0,1596,1597
351 316 m 0,1609,1610
 354 319 354 319 356 319.5 c 128,-1,1611
 358 320 358 320 359 319 c 0,1612,1613
 360 315 360 315 354.5 307.5 c 128,-1,1614
 349 300 349 300 346 301 c 0,1615,1616
 342 302 342 302 339.5 307.5 c 128,-1,1617
 337 313 337 313 339 315 c 0,1618,1619
 342 317 342 317 343 313 c 0,1620,1621
 344 310 344 310 351 316 c 0,1609,1610
451 316 m 0,1622,1623
 454 319 454 319 456 319.5 c 128,-1,1624
 458 320 458 320 459 319 c 0,1625,1626
 460 315 460 315 454.5 307.5 c 128,-1,1627
 449 300 449 300 446 301 c 0,1628,1629
 442 302 442 302 439.5 307.5 c 128,-1,1630
 437 313 437 313 439 315 c 0,1631,1632
 442 317 442 317 443 313 c 0,1633,1634
 444 310 444 310 451 316 c 0,1622,1623
551 316 m 0,1635,1636
 554 319 554 319 556 319.5 c 128,-1,1637
 558 320 558 320 559 319 c 0,1638,1639
 560 315 560 315 554.5 307.5 c 128,-1,1640
 549 300 549 300 546 301 c 0,1641,1642
 542 302 542 302 539.5 307.5 c 128,-1,1643
 537 313 537 313 539 315 c 0,1644,1645
 542 317 542 317 543 313 c 0,1646,1647
 544 310 544 310 551 316 c 0,1635,1636
651 316 m 0,1648,1649
 654 319 654 319 656 319.5 c 128,-1,1650
 658 320 658 320 659 319 c 0,1651,1652
 660 315 660 315 654.5 307.5 c 128,-1,1653
 649 300 649 300 646 301 c 0,1654,1655
 642 302 642 302 639.5 307.5 c 128,-1,1656
 637 313 637 313 639 315 c 0,1657,1658
 642 317 642 317 643 313 c 0,1659,1660
 644 310 644 310 651 316 c 0,1648,1649
751 316 m 0,1661,1662
 754 319 754 319 756 319.5 c 128,-1,1663
 758 320 758 320 759 319 c 0,1664,1665
 760 315 760 315 754.5 307.5 c 128,-1,1666
 749 300 749 300 746 301 c 0,1667,1668
 742 302 742 302 739.5 307.5 c 128,-1,1669
 737 313 737 313 739 315 c 0,1670,1671
 742 317 742 317 743 313 c 0,1672,1673
 744 310 744 310 751 316 c 0,1661,1662
851 316 m 0,1674,1675
 854 319 854 319 856 319.5 c 128,-1,1676
 858 320 858 320 859 319 c 0,1677,1678
 860 315 860 315 854.5 307.5 c 128,-1,1679
 849 300 849 300 846 301 c 0,1680,1681
 842 302 842 302 839.5 307.5 c 128,-1,1682
 837 313 837 313 839 315 c 0,1683,1684
 842 317 842 317 843 313 c 0,1685,1686
 844 310 844 310 851 316 c 0,1674,1675
951 316 m 0,1687,1688
 954 319 954 319 956 319.5 c 128,-1,1689
 958 320 958 320 959 319 c 0,1690,1691
 960 315 960 315 954.5 307.5 c 128,-1,1692
 949 300 949 300 946 301 c 0,1693,1694
 942 302 942 302 939.5 307.5 c 128,-1,1695
 937 313 937 313 939 315 c 0,1696,1697
 942 317 942 317 943 313 c 0,1698,1699
 944 310 944 310 951 316 c 0,1687,1688
66 275.5 m 128,-1,1701
 66 279 66 279 68 277 c 0,1702,1703
 71 275 71 275 70 268 c 0,1704,1705
 68 261 68 261 63.5 260.5 c 128,-1,1706
 59 260 59 260 56 267 c 0,1707,1708
 53 272 53 272 59.5 272 c 128,-1,1700
 66 272 66 272 66 275.5 c 128,-1,1701
166 275.5 m 128,-1,1710
 166 279 166 279 168 277 c 0,1711,1712
 171 275 171 275 170 268 c 0,1713,1714
 168 261 168 261 163.5 260.5 c 128,-1,1715
 159 260 159 260 156 267 c 0,1716,1717
 153 272 153 272 159.5 272 c 128,-1,1709
 166 272 166 272 166 275.5 c 128,-1,1710
266 275.5 m 128,-1,1719
 266 279 266 279 268 277 c 0,1720,1721
 271 275 271 275 270 268 c 0,1722,1723
 268 261 268 261 263.5 260.5 c 128,-1,1724
 259 260 259 260 256 267 c 0,1725,1726
 253 272 253 272 259.5 272 c 128,-1,1718
 266 272 266 272 266 275.5 c 128,-1,1719
366 275.5 m 128,-1,1728
 366 279 366 279 368 277 c 0,1729,1730
 371 275 371 275 370 268 c 0,1731,1732
 368 261 368 261 363.5 260.5 c 128,-1,1733
 359 260 359 260 356 267 c 0,1734,1735
 353 272 353 272 359.5 272 c 128,-1,1727
 366 272 366 272 366 275.5 c 128,-1,1728
466 275.5 m 128,-1,1737
 466 279 466 279 468 277 c 0,1738,1739
 471 275 471 275 470 268 c 0,1740,1741
 468 261 468 261 463.5 260.5 c 128,-1,1742
 459 260 459 260 456 267 c 0,1743,1744
 453 272 453 272 459.5 272 c 128,-1,1736
 466 272 466 272 466 275.5 c 128,-1,1737
566 275.5 m 128,-1,1746
 566 279 566 279 568 277 c 0,1747,1748
 571 275 571 275 570 268 c 0,1749,1750
 568 261 568 261 563.5 260.5 c 128,-1,1751
 559 260 559 260 556 267 c 0,1752,1753
 553 272 553 272 559.5 272 c 128,-1,1745
 566 272 566 272 566 275.5 c 128,-1,1746
666 275.5 m 128,-1,1755
 666 279 666 279 668 277 c 0,1756,1757
 671 275 671 275 670 268 c 0,1758,1759
 668 261 668 261 663.5 260.5 c 128,-1,1760
 659 260 659 260 656 267 c 0,1761,1762
 653 272 653 272 659.5 272 c 128,-1,1754
 666 272 666 272 666 275.5 c 128,-1,1755
766 275.5 m 128,-1,1764
 766 279 766 279 768 277 c 0,1765,1766
 771 275 771 275 770 268 c 0,1767,1768
 768 261 768 261 763.5 260.5 c 128,-1,1769
 759 260 759 260 756 267 c 0,1770,1771
 753 272 753 272 759.5 272 c 128,-1,1763
 766 272 766 272 766 275.5 c 128,-1,1764
866 275.5 m 128,-1,1773
 866 279 866 279 868 277 c 0,1774,1775
 871 275 871 275 870 268 c 0,1776,1777
 868 261 868 261 863.5 260.5 c 128,-1,1778
 859 260 859 260 856 267 c 0,1779,1780
 853 272 853 272 859.5 272 c 128,-1,1772
 866 272 866 272 866 275.5 c 128,-1,1773
966 275.5 m 128,-1,1782
 966 279 966 279 968 277 c 0,1783,1784
 971 275 971 275 970 268 c 0,1785,1786
 968 261 968 261 963.5 260.5 c 128,-1,1787
 959 260 959 260 956 267 c 0,1788,1789
 953 272 953 272 959.5 272 c 128,-1,1781
 966 272 966 272 966 275.5 c 128,-1,1782
14 250 m 0,1790,1791
 17 256 17 256 18 251 c 0,1792,1793
 18 247 18 247 16 241 c 0,1794,1795
 13 234 13 234 8.5 232.5 c 128,-1,1796
 4 231 4 231 2 237 c 0,1797,1798
 0 241 0 241 2 245 c 128,-1,1799
 4 249 4 249 8 248 c 0,1800,1801
 12 246 12 246 14 250 c 0,1790,1791
114 250 m 0,1802,1803
 117 256 117 256 118 251 c 0,1804,1805
 118 247 118 247 116 241 c 0,1806,1807
 113 234 113 234 108.5 232.5 c 128,-1,1808
 104 231 104 231 102 237 c 0,1809,1810
 100 241 100 241 102 245 c 128,-1,1811
 104 249 104 249 108 248 c 0,1812,1813
 112 246 112 246 114 250 c 0,1802,1803
214 250 m 0,1814,1815
 217 256 217 256 218 251 c 0,1816,1817
 218 247 218 247 216 241 c 0,1818,1819
 213 234 213 234 208.5 232.5 c 128,-1,1820
 204 231 204 231 202 237 c 0,1821,1822
 200 241 200 241 202 245 c 128,-1,1823
 204 249 204 249 208 248 c 0,1824,1825
 212 246 212 246 214 250 c 0,1814,1815
314 250 m 0,1826,1827
 317 256 317 256 318 251 c 0,1828,1829
 318 247 318 247 316 241 c 0,1830,1831
 313 234 313 234 308.5 232.5 c 128,-1,1832
 304 231 304 231 302 237 c 0,1833,1834
 300 241 300 241 302 245 c 128,-1,1835
 304 249 304 249 308 248 c 0,1836,1837
 312 246 312 246 314 250 c 0,1826,1827
414 250 m 0,1838,1839
 417 256 417 256 418 251 c 0,1840,1841
 418 247 418 247 416 241 c 0,1842,1843
 413 234 413 234 408.5 232.5 c 128,-1,1844
 404 231 404 231 402 237 c 0,1845,1846
 400 241 400 241 402 245 c 128,-1,1847
 404 249 404 249 408 248 c 0,1848,1849
 412 246 412 246 414 250 c 0,1838,1839
514 250 m 0,1850,1851
 517 256 517 256 518 251 c 0,1852,1853
 518 247 518 247 516 241 c 0,1854,1855
 513 234 513 234 508.5 232.5 c 128,-1,1856
 504 231 504 231 502 237 c 0,1857,1858
 500 241 500 241 502 245 c 128,-1,1859
 504 249 504 249 508 248 c 0,1860,1861
 512 246 512 246 514 250 c 0,1850,1851
614 250 m 0,1862,1863
 617 256 617 256 618 251 c 0,1864,1865
 618 247 618 247 616 241 c 0,1866,1867
 613 234 613 234 608.5 232.5 c 128,-1,1868
 604 231 604 231 602 237 c 0,1869,1870
 600 241 600 241 602 245 c 128,-1,1871
 604 249 604 249 608 248 c 0,1872,1873
 612 246 612 246 614 250 c 0,1862,1863
714 250 m 0,1874,1875
 717 256 717 256 718 251 c 0,1876,1877
 718 247 718 247 716 241 c 0,1878,1879
 713 234 713 234 708.5 232.5 c 128,-1,1880
 704 231 704 231 702 237 c 0,1881,1882
 700 241 700 241 702 245 c 128,-1,1883
 704 249 704 249 708 248 c 0,1884,1885
 712 246 712 246 714 250 c 0,1874,1875
814 250 m 0,1886,1887
 817 256 817 256 818 251 c 0,1888,1889
 818 247 818 247 816 241 c 0,1890,1891
 813 234 813 234 808.5 232.5 c 128,-1,1892
 804 231 804 231 802 237 c 0,1893,1894
 800 241 800 241 802 245 c 128,-1,1895
 804 249 804 249 808 248 c 0,1896,1897
 812 246 812 246 814 250 c 0,1886,1887
914 250 m 0,1898,1899
 917 256 917 256 918 251 c 0,1900,1901
 918 247 918 247 916 241 c 0,1902,1903
 913 234 913 234 908.5 232.5 c 128,-1,1904
 904 231 904 231 902 237 c 0,1905,1906
 900 241 900 241 902 245 c 128,-1,1907
 904 249 904 249 908 248 c 0,1908,1909
 912 246 912 246 914 250 c 0,1898,1899
51 216 m 0,1910,1911
 54 219 54 219 56 219.5 c 128,-1,1912
 58 220 58 220 59 219 c 0,1913,1914
 60 215 60 215 54.5 207.5 c 128,-1,1915
 49 200 49 200 46 201 c 0,1916,1917
 42 202 42 202 39.5 207.5 c 128,-1,1918
 37 213 37 213 39 215 c 0,1919,1920
 42 217 42 217 43 213 c 0,1921,1922
 44 210 44 210 51 216 c 0,1910,1911
151 216 m 0,1923,1924
 154 219 154 219 156 219.5 c 128,-1,1925
 158 220 158 220 159 219 c 0,1926,1927
 160 215 160 215 154.5 207.5 c 128,-1,1928
 149 200 149 200 146 201 c 0,1929,1930
 142 202 142 202 139.5 207.5 c 128,-1,1931
 137 213 137 213 139 215 c 0,1932,1933
 142 217 142 217 143 213 c 0,1934,1935
 144 210 144 210 151 216 c 0,1923,1924
251 216 m 0,1936,1937
 254 219 254 219 256 219.5 c 128,-1,1938
 258 220 258 220 259 219 c 0,1939,1940
 260 215 260 215 254.5 207.5 c 128,-1,1941
 249 200 249 200 246 201 c 0,1942,1943
 242 202 242 202 239.5 207.5 c 128,-1,1944
 237 213 237 213 239 215 c 0,1945,1946
 242 217 242 217 243 213 c 0,1947,1948
 244 210 244 210 251 216 c 0,1936,1937
351 216 m 0,1949,1950
 354 219 354 219 356 219.5 c 128,-1,1951
 358 220 358 220 359 219 c 0,1952,1953
 360 215 360 215 354.5 207.5 c 128,-1,1954
 349 200 349 200 346 201 c 0,1955,1956
 342 202 342 202 339.5 207.5 c 128,-1,1957
 337 213 337 213 339 215 c 0,1958,1959
 342 217 342 217 343 213 c 0,1960,1961
 344 210 344 210 351 216 c 0,1949,1950
451 216 m 0,1962,1963
 454 219 454 219 456 219.5 c 128,-1,1964
 458 220 458 220 459 219 c 0,1965,1966
 460 215 460 215 454.5 207.5 c 128,-1,1967
 449 200 449 200 446 201 c 0,1968,1969
 442 202 442 202 439.5 207.5 c 128,-1,1970
 437 213 437 213 439 215 c 0,1971,1972
 442 217 442 217 443 213 c 0,1973,1974
 444 210 444 210 451 216 c 0,1962,1963
551 216 m 0,1975,1976
 554 219 554 219 556 219.5 c 128,-1,1977
 558 220 558 220 559 219 c 0,1978,1979
 560 215 560 215 554.5 207.5 c 128,-1,1980
 549 200 549 200 546 201 c 0,1981,1982
 542 202 542 202 539.5 207.5 c 128,-1,1983
 537 213 537 213 539 215 c 0,1984,1985
 542 217 542 217 543 213 c 0,1986,1987
 544 210 544 210 551 216 c 0,1975,1976
651 216 m 0,1988,1989
 654 219 654 219 656 219.5 c 128,-1,1990
 658 220 658 220 659 219 c 0,1991,1992
 660 215 660 215 654.5 207.5 c 128,-1,1993
 649 200 649 200 646 201 c 0,1994,1995
 642 202 642 202 639.5 207.5 c 128,-1,1996
 637 213 637 213 639 215 c 0,1997,1998
 642 217 642 217 643 213 c 0,1999,2000
 644 210 644 210 651 216 c 0,1988,1989
751 216 m 0,2001,2002
 754 219 754 219 756 219.5 c 128,-1,2003
 758 220 758 220 759 219 c 0,2004,2005
 760 215 760 215 754.5 207.5 c 128,-1,2006
 749 200 749 200 746 201 c 0,2007,2008
 742 202 742 202 739.5 207.5 c 128,-1,2009
 737 213 737 213 739 215 c 0,2010,2011
 742 217 742 217 743 213 c 0,2012,2013
 744 210 744 210 751 216 c 0,2001,2002
851 216 m 0,2014,2015
 854 219 854 219 856 219.5 c 128,-1,2016
 858 220 858 220 859 219 c 0,2017,2018
 860 215 860 215 854.5 207.5 c 128,-1,2019
 849 200 849 200 846 201 c 0,2020,2021
 842 202 842 202 839.5 207.5 c 128,-1,2022
 837 213 837 213 839 215 c 0,2023,2024
 842 217 842 217 843 213 c 0,2025,2026
 844 210 844 210 851 216 c 0,2014,2015
951 216 m 0,2027,2028
 954 219 954 219 956 219.5 c 128,-1,2029
 958 220 958 220 959 219 c 0,2030,2031
 960 215 960 215 954.5 207.5 c 128,-1,2032
 949 200 949 200 946 201 c 0,2033,2034
 942 202 942 202 939.5 207.5 c 128,-1,2035
 937 213 937 213 939 215 c 0,2036,2037
 942 217 942 217 943 213 c 0,2038,2039
 944 210 944 210 951 216 c 0,2027,2028
66 175.5 m 128,-1,2041
 66 179 66 179 68 177 c 0,2042,2043
 71 175 71 175 70 168 c 0,2044,2045
 68 161 68 161 63.5 160.5 c 128,-1,2046
 59 160 59 160 56 167 c 0,2047,2048
 53 172 53 172 59.5 172 c 128,-1,2040
 66 172 66 172 66 175.5 c 128,-1,2041
166 175.5 m 128,-1,2050
 166 179 166 179 168 177 c 0,2051,2052
 171 175 171 175 170 168 c 0,2053,2054
 168 161 168 161 163.5 160.5 c 128,-1,2055
 159 160 159 160 156 167 c 0,2056,2057
 153 172 153 172 159.5 172 c 128,-1,2049
 166 172 166 172 166 175.5 c 128,-1,2050
266 175.5 m 128,-1,2059
 266 179 266 179 268 177 c 0,2060,2061
 271 175 271 175 270 168 c 0,2062,2063
 268 161 268 161 263.5 160.5 c 128,-1,2064
 259 160 259 160 256 167 c 0,2065,2066
 253 172 253 172 259.5 172 c 128,-1,2058
 266 172 266 172 266 175.5 c 128,-1,2059
366 175.5 m 128,-1,2068
 366 179 366 179 368 177 c 0,2069,2070
 371 175 371 175 370 168 c 0,2071,2072
 368 161 368 161 363.5 160.5 c 128,-1,2073
 359 160 359 160 356 167 c 0,2074,2075
 353 172 353 172 359.5 172 c 128,-1,2067
 366 172 366 172 366 175.5 c 128,-1,2068
466 175.5 m 128,-1,2077
 466 179 466 179 468 177 c 0,2078,2079
 471 175 471 175 470 168 c 0,2080,2081
 468 161 468 161 463.5 160.5 c 128,-1,2082
 459 160 459 160 456 167 c 0,2083,2084
 453 172 453 172 459.5 172 c 128,-1,2076
 466 172 466 172 466 175.5 c 128,-1,2077
566 175.5 m 128,-1,2086
 566 179 566 179 568 177 c 0,2087,2088
 571 175 571 175 570 168 c 0,2089,2090
 568 161 568 161 563.5 160.5 c 128,-1,2091
 559 160 559 160 556 167 c 0,2092,2093
 553 172 553 172 559.5 172 c 128,-1,2085
 566 172 566 172 566 175.5 c 128,-1,2086
666 175.5 m 128,-1,2095
 666 179 666 179 668 177 c 0,2096,2097
 671 175 671 175 670 168 c 0,2098,2099
 668 161 668 161 663.5 160.5 c 128,-1,2100
 659 160 659 160 656 167 c 0,2101,2102
 653 172 653 172 659.5 172 c 128,-1,2094
 666 172 666 172 666 175.5 c 128,-1,2095
766 175.5 m 128,-1,2104
 766 179 766 179 768 177 c 0,2105,2106
 771 175 771 175 770 168 c 0,2107,2108
 768 161 768 161 763.5 160.5 c 128,-1,2109
 759 160 759 160 756 167 c 0,2110,2111
 753 172 753 172 759.5 172 c 128,-1,2103
 766 172 766 172 766 175.5 c 128,-1,2104
866 175.5 m 128,-1,2113
 866 179 866 179 868 177 c 0,2114,2115
 871 175 871 175 870 168 c 0,2116,2117
 868 161 868 161 863.5 160.5 c 128,-1,2118
 859 160 859 160 856 167 c 0,2119,2120
 853 172 853 172 859.5 172 c 128,-1,2112
 866 172 866 172 866 175.5 c 128,-1,2113
966 175.5 m 128,-1,2122
 966 179 966 179 968 177 c 0,2123,2124
 971 175 971 175 970 168 c 0,2125,2126
 968 161 968 161 963.5 160.5 c 128,-1,2127
 959 160 959 160 956 167 c 0,2128,2129
 953 172 953 172 959.5 172 c 128,-1,2121
 966 172 966 172 966 175.5 c 128,-1,2122
14 150 m 0,2130,2131
 17 156 17 156 18 151 c 0,2132,2133
 18 147 18 147 16 141 c 0,2134,2135
 13 134 13 134 8.5 132.5 c 128,-1,2136
 4 131 4 131 2 137 c 0,2137,2138
 0 141 0 141 2 145 c 128,-1,2139
 4 149 4 149 8 148 c 0,2140,2141
 12 146 12 146 14 150 c 0,2130,2131
114 150 m 0,2142,2143
 117 156 117 156 118 151 c 0,2144,2145
 118 147 118 147 116 141 c 0,2146,2147
 113 134 113 134 108.5 132.5 c 128,-1,2148
 104 131 104 131 102 137 c 0,2149,2150
 100 141 100 141 102 145 c 128,-1,2151
 104 149 104 149 108 148 c 0,2152,2153
 112 146 112 146 114 150 c 0,2142,2143
214 150 m 0,2154,2155
 217 156 217 156 218 151 c 0,2156,2157
 218 147 218 147 216 141 c 0,2158,2159
 213 134 213 134 208.5 132.5 c 128,-1,2160
 204 131 204 131 202 137 c 0,2161,2162
 200 141 200 141 202 145 c 128,-1,2163
 204 149 204 149 208 148 c 0,2164,2165
 212 146 212 146 214 150 c 0,2154,2155
314 150 m 0,2166,2167
 317 156 317 156 318 151 c 0,2168,2169
 318 147 318 147 316 141 c 0,2170,2171
 313 134 313 134 308.5 132.5 c 128,-1,2172
 304 131 304 131 302 137 c 0,2173,2174
 300 141 300 141 302 145 c 128,-1,2175
 304 149 304 149 308 148 c 0,2176,2177
 312 146 312 146 314 150 c 0,2166,2167
414 150 m 0,2178,2179
 417 156 417 156 418 151 c 0,2180,2181
 418 147 418 147 416 141 c 0,2182,2183
 413 134 413 134 408.5 132.5 c 128,-1,2184
 404 131 404 131 402 137 c 0,2185,2186
 400 141 400 141 402 145 c 128,-1,2187
 404 149 404 149 408 148 c 0,2188,2189
 412 146 412 146 414 150 c 0,2178,2179
514 150 m 0,2190,2191
 517 156 517 156 518 151 c 0,2192,2193
 518 147 518 147 516 141 c 0,2194,2195
 513 134 513 134 508.5 132.5 c 128,-1,2196
 504 131 504 131 502 137 c 0,2197,2198
 500 141 500 141 502 145 c 128,-1,2199
 504 149 504 149 508 148 c 0,2200,2201
 512 146 512 146 514 150 c 0,2190,2191
614 150 m 0,2202,2203
 617 156 617 156 618 151 c 0,2204,2205
 618 147 618 147 616 141 c 0,2206,2207
 613 134 613 134 608.5 132.5 c 128,-1,2208
 604 131 604 131 602 137 c 0,2209,2210
 600 141 600 141 602 145 c 128,-1,2211
 604 149 604 149 608 148 c 0,2212,2213
 612 146 612 146 614 150 c 0,2202,2203
714 150 m 0,2214,2215
 717 156 717 156 718 151 c 0,2216,2217
 718 147 718 147 716 141 c 0,2218,2219
 713 134 713 134 708.5 132.5 c 128,-1,2220
 704 131 704 131 702 137 c 0,2221,2222
 700 141 700 141 702 145 c 128,-1,2223
 704 149 704 149 708 148 c 0,2224,2225
 712 146 712 146 714 150 c 0,2214,2215
814 150 m 0,2226,2227
 817 156 817 156 818 151 c 0,2228,2229
 818 147 818 147 816 141 c 0,2230,2231
 813 134 813 134 808.5 132.5 c 128,-1,2232
 804 131 804 131 802 137 c 0,2233,2234
 800 141 800 141 802 145 c 128,-1,2235
 804 149 804 149 808 148 c 0,2236,2237
 812 146 812 146 814 150 c 0,2226,2227
914 150 m 0,2238,2239
 917 156 917 156 918 151 c 0,2240,2241
 918 147 918 147 916 141 c 0,2242,2243
 913 134 913 134 908.5 132.5 c 128,-1,2244
 904 131 904 131 902 137 c 0,2245,2246
 900 141 900 141 902 145 c 128,-1,2247
 904 149 904 149 908 148 c 0,2248,2249
 912 146 912 146 914 150 c 0,2238,2239
51 116 m 0,2250,2251
 54 119 54 119 56 119.5 c 128,-1,2252
 58 120 58 120 59 119 c 0,2253,2254
 60 115 60 115 54.5 107.5 c 128,-1,2255
 49 100 49 100 46 101 c 0,2256,2257
 42 102 42 102 39.5 107.5 c 128,-1,2258
 37 113 37 113 39 115 c 0,2259,2260
 42 117 42 117 43 113 c 0,2261,2262
 44 110 44 110 51 116 c 0,2250,2251
151 116 m 0,2263,2264
 154 119 154 119 156 119.5 c 128,-1,2265
 158 120 158 120 159 119 c 0,2266,2267
 160 115 160 115 154.5 107.5 c 128,-1,2268
 149 100 149 100 146 101 c 0,2269,2270
 142 102 142 102 139.5 107.5 c 128,-1,2271
 137 113 137 113 139 115 c 0,2272,2273
 142 117 142 117 143 113 c 0,2274,2275
 144 110 144 110 151 116 c 0,2263,2264
251 116 m 0,2276,2277
 254 119 254 119 256 119.5 c 128,-1,2278
 258 120 258 120 259 119 c 0,2279,2280
 260 115 260 115 254.5 107.5 c 128,-1,2281
 249 100 249 100 246 101 c 0,2282,2283
 242 102 242 102 239.5 107.5 c 128,-1,2284
 237 113 237 113 239 115 c 0,2285,2286
 242 117 242 117 243 113 c 0,2287,2288
 244 110 244 110 251 116 c 0,2276,2277
351 116 m 0,2289,2290
 354 119 354 119 356 119.5 c 128,-1,2291
 358 120 358 120 359 119 c 0,2292,2293
 360 115 360 115 354.5 107.5 c 128,-1,2294
 349 100 349 100 346 101 c 0,2295,2296
 342 102 342 102 339.5 107.5 c 128,-1,2297
 337 113 337 113 339 115 c 0,2298,2299
 342 117 342 117 343 113 c 0,2300,2301
 344 110 344 110 351 116 c 0,2289,2290
451 116 m 0,2302,2303
 454 119 454 119 456 119.5 c 128,-1,2304
 458 120 458 120 459 119 c 0,2305,2306
 460 115 460 115 454.5 107.5 c 128,-1,2307
 449 100 449 100 446 101 c 0,2308,2309
 442 102 442 102 439.5 107.5 c 128,-1,2310
 437 113 437 113 439 115 c 0,2311,2312
 442 117 442 117 443 113 c 0,2313,2314
 444 110 444 110 451 116 c 0,2302,2303
551 116 m 0,2315,2316
 554 119 554 119 556 119.5 c 128,-1,2317
 558 120 558 120 559 119 c 0,2318,2319
 560 115 560 115 554.5 107.5 c 128,-1,2320
 549 100 549 100 546 101 c 0,2321,2322
 542 102 542 102 539.5 107.5 c 128,-1,2323
 537 113 537 113 539 115 c 0,2324,2325
 542 117 542 117 543 113 c 0,2326,2327
 544 110 544 110 551 116 c 0,2315,2316
651 116 m 0,2328,2329
 654 119 654 119 656 119.5 c 128,-1,2330
 658 120 658 120 659 119 c 0,2331,2332
 660 115 660 115 654.5 107.5 c 128,-1,2333
 649 100 649 100 646 101 c 0,2334,2335
 642 102 642 102 639.5 107.5 c 128,-1,2336
 637 113 637 113 639 115 c 0,2337,2338
 642 117 642 117 643 113 c 0,2339,2340
 644 110 644 110 651 116 c 0,2328,2329
751 116 m 0,2341,2342
 754 119 754 119 756 119.5 c 128,-1,2343
 758 120 758 120 759 119 c 0,2344,2345
 760 115 760 115 754.5 107.5 c 128,-1,2346
 749 100 749 100 746 101 c 0,2347,2348
 742 102 742 102 739.5 107.5 c 128,-1,2349
 737 113 737 113 739 115 c 0,2350,2351
 742 117 742 117 743 113 c 0,2352,2353
 744 110 744 110 751 116 c 0,2341,2342
851 116 m 0,2354,2355
 854 119 854 119 856 119.5 c 128,-1,2356
 858 120 858 120 859 119 c 0,2357,2358
 860 115 860 115 854.5 107.5 c 128,-1,2359
 849 100 849 100 846 101 c 0,2360,2361
 842 102 842 102 839.5 107.5 c 128,-1,2362
 837 113 837 113 839 115 c 0,2363,2364
 842 117 842 117 843 113 c 0,2365,2366
 844 110 844 110 851 116 c 0,2354,2355
951 116 m 0,2367,2368
 954 119 954 119 956 119.5 c 128,-1,2369
 958 120 958 120 959 119 c 0,2370,2371
 960 115 960 115 954.5 107.5 c 128,-1,2372
 949 100 949 100 946 101 c 0,2373,2374
 942 102 942 102 939.5 107.5 c 128,-1,2375
 937 113 937 113 939 115 c 0,2376,2377
 942 117 942 117 943 113 c 0,2378,2379
 944 110 944 110 951 116 c 0,2367,2368
66 75.5 m 128,-1,2381
 66 79 66 79 68 77 c 0,2382,2383
 71 75 71 75 70 68 c 0,2384,2385
 68 61 68 61 63.5 60.5 c 128,-1,2386
 59 60 59 60 56 67 c 0,2387,2388
 53 72 53 72 59.5 72 c 128,-1,2380
 66 72 66 72 66 75.5 c 128,-1,2381
166 75.5 m 128,-1,2390
 166 79 166 79 168 77 c 0,2391,2392
 171 75 171 75 170 68 c 0,2393,2394
 168 61 168 61 163.5 60.5 c 128,-1,2395
 159 60 159 60 156 67 c 0,2396,2397
 153 72 153 72 159.5 72 c 128,-1,2389
 166 72 166 72 166 75.5 c 128,-1,2390
266 75.5 m 128,-1,2399
 266 79 266 79 268 77 c 0,2400,2401
 271 75 271 75 270 68 c 0,2402,2403
 268 61 268 61 263.5 60.5 c 128,-1,2404
 259 60 259 60 256 67 c 0,2405,2406
 253 72 253 72 259.5 72 c 128,-1,2398
 266 72 266 72 266 75.5 c 128,-1,2399
366 75.5 m 128,-1,2408
 366 79 366 79 368 77 c 0,2409,2410
 371 75 371 75 370 68 c 0,2411,2412
 368 61 368 61 363.5 60.5 c 128,-1,2413
 359 60 359 60 356 67 c 0,2414,2415
 353 72 353 72 359.5 72 c 128,-1,2407
 366 72 366 72 366 75.5 c 128,-1,2408
466 75.5 m 128,-1,2417
 466 79 466 79 468 77 c 0,2418,2419
 471 75 471 75 470 68 c 0,2420,2421
 468 61 468 61 463.5 60.5 c 128,-1,2422
 459 60 459 60 456 67 c 0,2423,2424
 453 72 453 72 459.5 72 c 128,-1,2416
 466 72 466 72 466 75.5 c 128,-1,2417
566 75.5 m 128,-1,2426
 566 79 566 79 568 77 c 0,2427,2428
 571 75 571 75 570 68 c 0,2429,2430
 568 61 568 61 563.5 60.5 c 128,-1,2431
 559 60 559 60 556 67 c 0,2432,2433
 553 72 553 72 559.5 72 c 128,-1,2425
 566 72 566 72 566 75.5 c 128,-1,2426
666 75.5 m 128,-1,2435
 666 79 666 79 668 77 c 0,2436,2437
 671 75 671 75 670 68 c 0,2438,2439
 668 61 668 61 663.5 60.5 c 128,-1,2440
 659 60 659 60 656 67 c 0,2441,2442
 653 72 653 72 659.5 72 c 128,-1,2434
 666 72 666 72 666 75.5 c 128,-1,2435
766 75.5 m 128,-1,2444
 766 79 766 79 768 77 c 0,2445,2446
 771 75 771 75 770 68 c 0,2447,2448
 768 61 768 61 763.5 60.5 c 128,-1,2449
 759 60 759 60 756 67 c 0,2450,2451
 753 72 753 72 759.5 72 c 128,-1,2443
 766 72 766 72 766 75.5 c 128,-1,2444
866 75.5 m 128,-1,2453
 866 79 866 79 868 77 c 0,2454,2455
 871 75 871 75 870 68 c 0,2456,2457
 868 61 868 61 863.5 60.5 c 128,-1,2458
 859 60 859 60 856 67 c 0,2459,2460
 853 72 853 72 859.5 72 c 128,-1,2452
 866 72 866 72 866 75.5 c 128,-1,2453
966 75.5 m 128,-1,2462
 966 79 966 79 968 77 c 0,2463,2464
 971 75 971 75 970 68 c 0,2465,2466
 968 61 968 61 963.5 60.5 c 128,-1,2467
 959 60 959 60 956 67 c 0,2468,2469
 953 72 953 72 959.5 72 c 128,-1,2461
 966 72 966 72 966 75.5 c 128,-1,2462
14 50 m 0,2470,2471
 17 56 17 56 18 51 c 0,2472,2473
 18 47 18 47 16 41 c 0,2474,2475
 13 34 13 34 8.5 32.5 c 128,-1,2476
 4 31 4 31 2 37 c 0,2477,2478
 0 41 0 41 2 45 c 128,-1,2479
 4 49 4 49 8 48 c 0,2480,2481
 12 46 12 46 14 50 c 0,2470,2471
114 50 m 0,2482,2483
 117 56 117 56 118 51 c 0,2484,2485
 118 47 118 47 116 41 c 0,2486,2487
 113 34 113 34 108.5 32.5 c 128,-1,2488
 104 31 104 31 102 37 c 0,2489,2490
 100 41 100 41 102 45 c 128,-1,2491
 104 49 104 49 108 48 c 0,2492,2493
 112 46 112 46 114 50 c 0,2482,2483
214 50 m 0,2494,2495
 217 56 217 56 218 51 c 0,2496,2497
 218 47 218 47 216 41 c 0,2498,2499
 213 34 213 34 208.5 32.5 c 128,-1,2500
 204 31 204 31 202 37 c 0,2501,2502
 200 41 200 41 202 45 c 128,-1,2503
 204 49 204 49 208 48 c 0,2504,2505
 212 46 212 46 214 50 c 0,2494,2495
314 50 m 0,2506,2507
 317 56 317 56 318 51 c 0,2508,2509
 318 47 318 47 316 41 c 0,2510,2511
 313 34 313 34 308.5 32.5 c 128,-1,2512
 304 31 304 31 302 37 c 0,2513,2514
 300 41 300 41 302 45 c 128,-1,2515
 304 49 304 49 308 48 c 0,2516,2517
 312 46 312 46 314 50 c 0,2506,2507
414 50 m 0,2518,2519
 417 56 417 56 418 51 c 0,2520,2521
 418 47 418 47 416 41 c 0,2522,2523
 413 34 413 34 408.5 32.5 c 128,-1,2524
 404 31 404 31 402 37 c 0,2525,2526
 400 41 400 41 402 45 c 128,-1,2527
 404 49 404 49 408 48 c 0,2528,2529
 412 46 412 46 414 50 c 0,2518,2519
514 50 m 0,2530,2531
 517 56 517 56 518 51 c 0,2532,2533
 518 47 518 47 516 41 c 0,2534,2535
 513 34 513 34 508.5 32.5 c 128,-1,2536
 504 31 504 31 502 37 c 0,2537,2538
 500 41 500 41 502 45 c 128,-1,2539
 504 49 504 49 508 48 c 0,2540,2541
 512 46 512 46 514 50 c 0,2530,2531
614 50 m 0,2542,2543
 617 56 617 56 618 51 c 0,2544,2545
 618 47 618 47 616 41 c 0,2546,2547
 613 34 613 34 608.5 32.5 c 128,-1,2548
 604 31 604 31 602 37 c 0,2549,2550
 600 41 600 41 602 45 c 128,-1,2551
 604 49 604 49 608 48 c 0,2552,2553
 612 46 612 46 614 50 c 0,2542,2543
714 50 m 0,2554,2555
 717 56 717 56 718 51 c 0,2556,2557
 718 47 718 47 716 41 c 0,2558,2559
 713 34 713 34 708.5 32.5 c 128,-1,2560
 704 31 704 31 702 37 c 0,2561,2562
 700 41 700 41 702 45 c 128,-1,2563
 704 49 704 49 708 48 c 0,2564,2565
 712 46 712 46 714 50 c 0,2554,2555
814 50 m 0,2566,2567
 817 56 817 56 818 51 c 0,2568,2569
 818 47 818 47 816 41 c 0,2570,2571
 813 34 813 34 808.5 32.5 c 128,-1,2572
 804 31 804 31 802 37 c 0,2573,2574
 800 41 800 41 802 45 c 128,-1,2575
 804 49 804 49 808 48 c 0,2576,2577
 812 46 812 46 814 50 c 0,2566,2567
914 50 m 0,2578,2579
 917 56 917 56 918 51 c 0,2580,2581
 918 47 918 47 916 41 c 0,2582,2583
 913 34 913 34 908.5 32.5 c 128,-1,2584
 904 31 904 31 902 37 c 0,2585,2586
 900 41 900 41 902 45 c 128,-1,2587
 904 49 904 49 908 48 c 0,2588,2589
 912 46 912 46 914 50 c 0,2578,2579
51 16 m 0,2590,2591
 54 19 54 19 56 19.5 c 128,-1,2592
 58 20 58 20 59 19 c 0,2593,2594
 60 15 60 15 54.5 7.5 c 128,-1,2595
 49 0 49 0 46 1 c 0,2596,2597
 42 2 42 2 39.5 7.5 c 128,-1,2598
 37 13 37 13 39 15 c 0,2599,2600
 42 17 42 17 43 13 c 0,2601,2602
 44 10 44 10 51 16 c 0,2590,2591
151 16 m 0,2603,2604
 154 19 154 19 156 19.5 c 128,-1,2605
 158 20 158 20 159 19 c 0,2606,2607
 160 15 160 15 154.5 7.5 c 128,-1,2608
 149 0 149 0 146 1 c 0,2609,2610
 142 2 142 2 139.5 7.5 c 128,-1,2611
 137 13 137 13 139 15 c 0,2612,2613
 142 17 142 17 143 13 c 0,2614,2615
 144 10 144 10 151 16 c 0,2603,2604
251 16 m 0,2616,2617
 254 19 254 19 256 19.5 c 128,-1,2618
 258 20 258 20 259 19 c 0,2619,2620
 260 15 260 15 254.5 7.5 c 128,-1,2621
 249 0 249 0 246 1 c 0,2622,2623
 242 2 242 2 239.5 7.5 c 128,-1,2624
 237 13 237 13 239 15 c 0,2625,2626
 242 17 242 17 243 13 c 0,2627,2628
 244 10 244 10 251 16 c 0,2616,2617
351 16 m 0,2629,2630
 354 19 354 19 356 19.5 c 128,-1,2631
 358 20 358 20 359 19 c 0,2632,2633
 360 15 360 15 354.5 7.5 c 128,-1,2634
 349 0 349 0 346 1 c 0,2635,2636
 342 2 342 2 339.5 7.5 c 128,-1,2637
 337 13 337 13 339 15 c 0,2638,2639
 342 17 342 17 343 13 c 0,2640,2641
 344 10 344 10 351 16 c 0,2629,2630
451 16 m 0,2642,2643
 454 19 454 19 456 19.5 c 128,-1,2644
 458 20 458 20 459 19 c 0,2645,2646
 460 15 460 15 454.5 7.5 c 128,-1,2647
 449 0 449 0 446 1 c 0,2648,2649
 442 2 442 2 439.5 7.5 c 128,-1,2650
 437 13 437 13 439 15 c 0,2651,2652
 442 17 442 17 443 13 c 0,2653,2654
 444 10 444 10 451 16 c 0,2642,2643
551 16 m 0,2655,2656
 554 19 554 19 556 19.5 c 128,-1,2657
 558 20 558 20 559 19 c 0,2658,2659
 560 15 560 15 554.5 7.5 c 128,-1,2660
 549 0 549 0 546 1 c 0,2661,2662
 542 2 542 2 539.5 7.5 c 128,-1,2663
 537 13 537 13 539 15 c 0,2664,2665
 542 17 542 17 543 13 c 0,2666,2667
 544 10 544 10 551 16 c 0,2655,2656
651 16 m 0,2668,2669
 654 19 654 19 656 19.5 c 128,-1,2670
 658 20 658 20 659 19 c 0,2671,2672
 660 15 660 15 654.5 7.5 c 128,-1,2673
 649 0 649 0 646 1 c 0,2674,2675
 642 2 642 2 639.5 7.5 c 128,-1,2676
 637 13 637 13 639 15 c 0,2677,2678
 642 17 642 17 643 13 c 0,2679,2680
 644 10 644 10 651 16 c 0,2668,2669
751 16 m 0,2681,2682
 754 19 754 19 756 19.5 c 128,-1,2683
 758 20 758 20 759 19 c 0,2684,2685
 760 15 760 15 754.5 7.5 c 128,-1,2686
 749 0 749 0 746 1 c 0,2687,2688
 742 2 742 2 739.5 7.5 c 128,-1,2689
 737 13 737 13 739 15 c 0,2690,2691
 742 17 742 17 743 13 c 0,2692,2693
 744 10 744 10 751 16 c 0,2681,2682
851 16 m 0,2694,2695
 854 19 854 19 856 19.5 c 128,-1,2696
 858 20 858 20 859 19 c 0,2697,2698
 860 15 860 15 854.5 7.5 c 128,-1,2699
 849 0 849 0 846 1 c 0,2700,2701
 842 2 842 2 839.5 7.5 c 128,-1,2702
 837 13 837 13 839 15 c 0,2703,2704
 842 17 842 17 843 13 c 0,2705,2706
 844 10 844 10 851 16 c 0,2694,2695
951 16 m 0,2707,2708
 954 19 954 19 956 19.5 c 128,-1,2709
 958 20 958 20 959 19 c 0,2710,2711
 960 15 960 15 954.5 7.5 c 128,-1,2712
 949 0 949 0 946 1 c 0,2713,2714
 942 2 942 2 939.5 7.5 c 128,-1,2715
 937 13 937 13 939 15 c 0,2716,2717
 942 17 942 17 943 13 c 0,2718,2719
 944 10 944 10 951 16 c 0,2707,2708
66 -24.5 m 128,-1,2721
 66 -21 66 -21 68 -23 c 0,2722,2723
 71 -25 71 -25 70 -32 c 0,2724,2725
 68 -39 68 -39 63.5 -39.5 c 128,-1,2726
 59 -40 59 -40 56 -33 c 0,2727,2728
 53 -28 53 -28 59.5 -28 c 128,-1,2720
 66 -28 66 -28 66 -24.5 c 128,-1,2721
166 -24.5 m 128,-1,2730
 166 -21 166 -21 168 -23 c 0,2731,2732
 171 -25 171 -25 170 -32 c 0,2733,2734
 168 -39 168 -39 163.5 -39.5 c 128,-1,2735
 159 -40 159 -40 156 -33 c 0,2736,2737
 153 -28 153 -28 159.5 -28 c 128,-1,2729
 166 -28 166 -28 166 -24.5 c 128,-1,2730
266 -24.5 m 128,-1,2739
 266 -21 266 -21 268 -23 c 0,2740,2741
 271 -25 271 -25 270 -32 c 0,2742,2743
 268 -39 268 -39 263.5 -39.5 c 128,-1,2744
 259 -40 259 -40 256 -33 c 0,2745,2746
 253 -28 253 -28 259.5 -28 c 128,-1,2738
 266 -28 266 -28 266 -24.5 c 128,-1,2739
366 -24.5 m 128,-1,2748
 366 -21 366 -21 368 -23 c 0,2749,2750
 371 -25 371 -25 370 -32 c 0,2751,2752
 368 -39 368 -39 363.5 -39.5 c 128,-1,2753
 359 -40 359 -40 356 -33 c 0,2754,2755
 353 -28 353 -28 359.5 -28 c 128,-1,2747
 366 -28 366 -28 366 -24.5 c 128,-1,2748
466 -24.5 m 128,-1,2757
 466 -21 466 -21 468 -23 c 0,2758,2759
 471 -25 471 -25 470 -32 c 0,2760,2761
 468 -39 468 -39 463.5 -39.5 c 128,-1,2762
 459 -40 459 -40 456 -33 c 0,2763,2764
 453 -28 453 -28 459.5 -28 c 128,-1,2756
 466 -28 466 -28 466 -24.5 c 128,-1,2757
566 -24.5 m 128,-1,2766
 566 -21 566 -21 568 -23 c 0,2767,2768
 571 -25 571 -25 570 -32 c 0,2769,2770
 568 -39 568 -39 563.5 -39.5 c 128,-1,2771
 559 -40 559 -40 556 -33 c 0,2772,2773
 553 -28 553 -28 559.5 -28 c 128,-1,2765
 566 -28 566 -28 566 -24.5 c 128,-1,2766
666 -24.5 m 128,-1,2775
 666 -21 666 -21 668 -23 c 0,2776,2777
 671 -25 671 -25 670 -32 c 0,2778,2779
 668 -39 668 -39 663.5 -39.5 c 128,-1,2780
 659 -40 659 -40 656 -33 c 0,2781,2782
 653 -28 653 -28 659.5 -28 c 128,-1,2774
 666 -28 666 -28 666 -24.5 c 128,-1,2775
766 -24.5 m 128,-1,2784
 766 -21 766 -21 768 -23 c 0,2785,2786
 771 -25 771 -25 770 -32 c 0,2787,2788
 768 -39 768 -39 763.5 -39.5 c 128,-1,2789
 759 -40 759 -40 756 -33 c 0,2790,2791
 753 -28 753 -28 759.5 -28 c 128,-1,2783
 766 -28 766 -28 766 -24.5 c 128,-1,2784
866 -24.5 m 128,-1,2793
 866 -21 866 -21 868 -23 c 0,2794,2795
 871 -25 871 -25 870 -32 c 0,2796,2797
 868 -39 868 -39 863.5 -39.5 c 128,-1,2798
 859 -40 859 -40 856 -33 c 0,2799,2800
 853 -28 853 -28 859.5 -28 c 128,-1,2792
 866 -28 866 -28 866 -24.5 c 128,-1,2793
966 -24.5 m 128,-1,2802
 966 -21 966 -21 968 -23 c 0,2803,2804
 971 -25 971 -25 970 -32 c 0,2805,2806
 968 -39 968 -39 963.5 -39.5 c 128,-1,2807
 959 -40 959 -40 956 -33 c 0,2808,2809
 953 -28 953 -28 959.5 -28 c 128,-1,2801
 966 -28 966 -28 966 -24.5 c 128,-1,2802
14 -50 m 0,2810,2811
 17 -44 17 -44 18 -49 c 0,2812,2813
 18 -53 18 -53 16 -59 c 0,2814,2815
 13 -66 13 -66 8.5 -67.5 c 128,-1,2816
 4 -69 4 -69 2 -63 c 0,2817,2818
 0 -59 0 -59 2 -55 c 128,-1,2819
 4 -51 4 -51 8 -52 c 0,2820,2821
 12 -54 12 -54 14 -50 c 0,2810,2811
114 -50 m 0,2822,2823
 117 -44 117 -44 118 -49 c 0,2824,2825
 118 -53 118 -53 116 -59 c 0,2826,2827
 113 -66 113 -66 108.5 -67.5 c 128,-1,2828
 104 -69 104 -69 102 -63 c 0,2829,2830
 100 -59 100 -59 102 -55 c 128,-1,2831
 104 -51 104 -51 108 -52 c 0,2832,2833
 112 -54 112 -54 114 -50 c 0,2822,2823
214 -50 m 0,2834,2835
 217 -44 217 -44 218 -49 c 0,2836,2837
 218 -53 218 -53 216 -59 c 0,2838,2839
 213 -66 213 -66 208.5 -67.5 c 128,-1,2840
 204 -69 204 -69 202 -63 c 0,2841,2842
 200 -59 200 -59 202 -55 c 128,-1,2843
 204 -51 204 -51 208 -52 c 0,2844,2845
 212 -54 212 -54 214 -50 c 0,2834,2835
314 -50 m 0,2846,2847
 317 -44 317 -44 318 -49 c 0,2848,2849
 318 -53 318 -53 316 -59 c 0,2850,2851
 313 -66 313 -66 308.5 -67.5 c 128,-1,2852
 304 -69 304 -69 302 -63 c 0,2853,2854
 300 -59 300 -59 302 -55 c 128,-1,2855
 304 -51 304 -51 308 -52 c 0,2856,2857
 312 -54 312 -54 314 -50 c 0,2846,2847
414 -50 m 0,2858,2859
 417 -44 417 -44 418 -49 c 0,2860,2861
 418 -53 418 -53 416 -59 c 0,2862,2863
 413 -66 413 -66 408.5 -67.5 c 128,-1,2864
 404 -69 404 -69 402 -63 c 0,2865,2866
 400 -59 400 -59 402 -55 c 128,-1,2867
 404 -51 404 -51 408 -52 c 0,2868,2869
 412 -54 412 -54 414 -50 c 0,2858,2859
514 -50 m 0,2870,2871
 517 -44 517 -44 518 -49 c 0,2872,2873
 518 -53 518 -53 516 -59 c 0,2874,2875
 513 -66 513 -66 508.5 -67.5 c 128,-1,2876
 504 -69 504 -69 502 -63 c 0,2877,2878
 500 -59 500 -59 502 -55 c 128,-1,2879
 504 -51 504 -51 508 -52 c 0,2880,2881
 512 -54 512 -54 514 -50 c 0,2870,2871
614 -50 m 0,2882,2883
 617 -44 617 -44 618 -49 c 0,2884,2885
 618 -53 618 -53 616 -59 c 0,2886,2887
 613 -66 613 -66 608.5 -67.5 c 128,-1,2888
 604 -69 604 -69 602 -63 c 0,2889,2890
 600 -59 600 -59 602 -55 c 128,-1,2891
 604 -51 604 -51 608 -52 c 0,2892,2893
 612 -54 612 -54 614 -50 c 0,2882,2883
714 -50 m 0,2894,2895
 717 -44 717 -44 718 -49 c 0,2896,2897
 718 -53 718 -53 716 -59 c 0,2898,2899
 713 -66 713 -66 708.5 -67.5 c 128,-1,2900
 704 -69 704 -69 702 -63 c 0,2901,2902
 700 -59 700 -59 702 -55 c 128,-1,2903
 704 -51 704 -51 708 -52 c 0,2904,2905
 712 -54 712 -54 714 -50 c 0,2894,2895
814 -50 m 0,2906,2907
 817 -44 817 -44 818 -49 c 0,2908,2909
 818 -53 818 -53 816 -59 c 0,2910,2911
 813 -66 813 -66 808.5 -67.5 c 128,-1,2912
 804 -69 804 -69 802 -63 c 0,2913,2914
 800 -59 800 -59 802 -55 c 128,-1,2915
 804 -51 804 -51 808 -52 c 0,2916,2917
 812 -54 812 -54 814 -50 c 0,2906,2907
914 -50 m 0,2918,2919
 917 -44 917 -44 918 -49 c 0,2920,2921
 918 -53 918 -53 916 -59 c 0,2922,2923
 913 -66 913 -66 908.5 -67.5 c 128,-1,2924
 904 -69 904 -69 902 -63 c 0,2925,2926
 900 -59 900 -59 902 -55 c 128,-1,2927
 904 -51 904 -51 908 -52 c 0,2928,2929
 912 -54 912 -54 914 -50 c 0,2918,2919
51 -84 m 0,2930,2931
 54 -81 54 -81 56 -80.5 c 128,-1,2932
 58 -80 58 -80 59 -81 c 0,2933,2934
 60 -85 60 -85 54.5 -92.5 c 128,-1,2935
 49 -100 49 -100 46 -99 c 0,2936,2937
 42 -98 42 -98 39.5 -92.5 c 128,-1,2938
 37 -87 37 -87 39 -85 c 0,2939,2940
 42 -83 42 -83 43 -87 c 0,2941,2942
 44 -90 44 -90 51 -84 c 0,2930,2931
151 -84 m 0,2943,2944
 154 -81 154 -81 156 -80.5 c 128,-1,2945
 158 -80 158 -80 159 -81 c 0,2946,2947
 160 -85 160 -85 154.5 -92.5 c 128,-1,2948
 149 -100 149 -100 146 -99 c 0,2949,2950
 142 -98 142 -98 139.5 -92.5 c 128,-1,2951
 137 -87 137 -87 139 -85 c 0,2952,2953
 142 -83 142 -83 143 -87 c 0,2954,2955
 144 -90 144 -90 151 -84 c 0,2943,2944
251 -84 m 0,2956,2957
 254 -81 254 -81 256 -80.5 c 128,-1,2958
 258 -80 258 -80 259 -81 c 0,2959,2960
 260 -85 260 -85 254.5 -92.5 c 128,-1,2961
 249 -100 249 -100 246 -99 c 0,2962,2963
 242 -98 242 -98 239.5 -92.5 c 128,-1,2964
 237 -87 237 -87 239 -85 c 0,2965,2966
 242 -83 242 -83 243 -87 c 0,2967,2968
 244 -90 244 -90 251 -84 c 0,2956,2957
351 -84 m 0,2969,2970
 354 -81 354 -81 356 -80.5 c 128,-1,2971
 358 -80 358 -80 359 -81 c 0,2972,2973
 360 -85 360 -85 354.5 -92.5 c 128,-1,2974
 349 -100 349 -100 346 -99 c 0,2975,2976
 342 -98 342 -98 339.5 -92.5 c 128,-1,2977
 337 -87 337 -87 339 -85 c 0,2978,2979
 342 -83 342 -83 343 -87 c 0,2980,2981
 344 -90 344 -90 351 -84 c 0,2969,2970
451 -84 m 0,2982,2983
 454 -81 454 -81 456 -80.5 c 128,-1,2984
 458 -80 458 -80 459 -81 c 0,2985,2986
 460 -85 460 -85 454.5 -92.5 c 128,-1,2987
 449 -100 449 -100 446 -99 c 0,2988,2989
 442 -98 442 -98 439.5 -92.5 c 128,-1,2990
 437 -87 437 -87 439 -85 c 0,2991,2992
 442 -83 442 -83 443 -87 c 0,2993,2994
 444 -90 444 -90 451 -84 c 0,2982,2983
551 -84 m 0,2995,2996
 554 -81 554 -81 556 -80.5 c 128,-1,2997
 558 -80 558 -80 559 -81 c 0,2998,2999
 560 -85 560 -85 554.5 -92.5 c 128,-1,3000
 549 -100 549 -100 546 -99 c 0,3001,3002
 542 -98 542 -98 539.5 -92.5 c 128,-1,3003
 537 -87 537 -87 539 -85 c 0,3004,3005
 542 -83 542 -83 543 -87 c 0,3006,3007
 544 -90 544 -90 551 -84 c 0,2995,2996
651 -84 m 0,3008,3009
 654 -81 654 -81 656 -80.5 c 128,-1,3010
 658 -80 658 -80 659 -81 c 0,3011,3012
 660 -85 660 -85 654.5 -92.5 c 128,-1,3013
 649 -100 649 -100 646 -99 c 0,3014,3015
 642 -98 642 -98 639.5 -92.5 c 128,-1,3016
 637 -87 637 -87 639 -85 c 0,3017,3018
 642 -83 642 -83 643 -87 c 0,3019,3020
 644 -90 644 -90 651 -84 c 0,3008,3009
751 -84 m 0,3021,3022
 754 -81 754 -81 756 -80.5 c 128,-1,3023
 758 -80 758 -80 759 -81 c 0,3024,3025
 760 -85 760 -85 754.5 -92.5 c 128,-1,3026
 749 -100 749 -100 746 -99 c 0,3027,3028
 742 -98 742 -98 739.5 -92.5 c 128,-1,3029
 737 -87 737 -87 739 -85 c 0,3030,3031
 742 -83 742 -83 743 -87 c 0,3032,3033
 744 -90 744 -90 751 -84 c 0,3021,3022
851 -84 m 0,3034,3035
 854 -81 854 -81 856 -80.5 c 128,-1,3036
 858 -80 858 -80 859 -81 c 0,3037,3038
 860 -85 860 -85 854.5 -92.5 c 128,-1,3039
 849 -100 849 -100 846 -99 c 0,3040,3041
 842 -98 842 -98 839.5 -92.5 c 128,-1,3042
 837 -87 837 -87 839 -85 c 0,3043,3044
 842 -83 842 -83 843 -87 c 0,3045,3046
 844 -90 844 -90 851 -84 c 0,3034,3035
951 -84 m 0,3047,3048
 954 -81 954 -81 956 -80.5 c 128,-1,3049
 958 -80 958 -80 959 -81 c 0,3050,3051
 960 -85 960 -85 954.5 -92.5 c 128,-1,3052
 949 -100 949 -100 946 -99 c 0,3053,3054
 942 -98 942 -98 939.5 -92.5 c 128,-1,3055
 937 -87 937 -87 939 -85 c 0,3056,3057
 942 -83 942 -83 943 -87 c 0,3058,3059
 944 -90 944 -90 951 -84 c 0,3047,3048
66 -124.5 m 128,-1,3061
 66 -121 66 -121 68 -123 c 0,3062,3063
 71 -125 71 -125 70 -132 c 0,3064,3065
 68 -139 68 -139 63.5 -139.5 c 128,-1,3066
 59 -140 59 -140 56 -133 c 0,3067,3068
 53 -128 53 -128 59.5 -128 c 128,-1,3060
 66 -128 66 -128 66 -124.5 c 128,-1,3061
166 -124.5 m 128,-1,3070
 166 -121 166 -121 168 -123 c 0,3071,3072
 171 -125 171 -125 170 -132 c 0,3073,3074
 168 -139 168 -139 163.5 -139.5 c 128,-1,3075
 159 -140 159 -140 156 -133 c 0,3076,3077
 153 -128 153 -128 159.5 -128 c 128,-1,3069
 166 -128 166 -128 166 -124.5 c 128,-1,3070
266 -124.5 m 128,-1,3079
 266 -121 266 -121 268 -123 c 0,3080,3081
 271 -125 271 -125 270 -132 c 0,3082,3083
 268 -139 268 -139 263.5 -139.5 c 128,-1,3084
 259 -140 259 -140 256 -133 c 0,3085,3086
 253 -128 253 -128 259.5 -128 c 128,-1,3078
 266 -128 266 -128 266 -124.5 c 128,-1,3079
366 -124.5 m 128,-1,3088
 366 -121 366 -121 368 -123 c 0,3089,3090
 371 -125 371 -125 370 -132 c 0,3091,3092
 368 -139 368 -139 363.5 -139.5 c 128,-1,3093
 359 -140 359 -140 356 -133 c 0,3094,3095
 353 -128 353 -128 359.5 -128 c 128,-1,3087
 366 -128 366 -128 366 -124.5 c 128,-1,3088
466 -124.5 m 128,-1,3097
 466 -121 466 -121 468 -123 c 0,3098,3099
 471 -125 471 -125 470 -132 c 0,3100,3101
 468 -139 468 -139 463.5 -139.5 c 128,-1,3102
 459 -140 459 -140 456 -133 c 0,3103,3104
 453 -128 453 -128 459.5 -128 c 128,-1,3096
 466 -128 466 -128 466 -124.5 c 128,-1,3097
566 -124.5 m 128,-1,3106
 566 -121 566 -121 568 -123 c 0,3107,3108
 571 -125 571 -125 570 -132 c 0,3109,3110
 568 -139 568 -139 563.5 -139.5 c 128,-1,3111
 559 -140 559 -140 556 -133 c 0,3112,3113
 553 -128 553 -128 559.5 -128 c 128,-1,3105
 566 -128 566 -128 566 -124.5 c 128,-1,3106
666 -124.5 m 128,-1,3115
 666 -121 666 -121 668 -123 c 0,3116,3117
 671 -125 671 -125 670 -132 c 0,3118,3119
 668 -139 668 -139 663.5 -139.5 c 128,-1,3120
 659 -140 659 -140 656 -133 c 0,3121,3122
 653 -128 653 -128 659.5 -128 c 128,-1,3114
 666 -128 666 -128 666 -124.5 c 128,-1,3115
766 -124.5 m 128,-1,3124
 766 -121 766 -121 768 -123 c 0,3125,3126
 771 -125 771 -125 770 -132 c 0,3127,3128
 768 -139 768 -139 763.5 -139.5 c 128,-1,3129
 759 -140 759 -140 756 -133 c 0,3130,3131
 753 -128 753 -128 759.5 -128 c 128,-1,3123
 766 -128 766 -128 766 -124.5 c 128,-1,3124
866 -124.5 m 128,-1,3133
 866 -121 866 -121 868 -123 c 0,3134,3135
 871 -125 871 -125 870 -132 c 0,3136,3137
 868 -139 868 -139 863.5 -139.5 c 128,-1,3138
 859 -140 859 -140 856 -133 c 0,3139,3140
 853 -128 853 -128 859.5 -128 c 128,-1,3132
 866 -128 866 -128 866 -124.5 c 128,-1,3133
966 -124.5 m 128,-1,3142
 966 -121 966 -121 968 -123 c 0,3143,3144
 971 -125 971 -125 970 -132 c 0,3145,3146
 968 -139 968 -139 963.5 -139.5 c 128,-1,3147
 959 -140 959 -140 956 -133 c 0,3148,3149
 953 -128 953 -128 959.5 -128 c 128,-1,3141
 966 -128 966 -128 966 -124.5 c 128,-1,3142
14 -150 m 0,3150,3151
 17 -144 17 -144 18 -149 c 0,3152,3153
 18 -153 18 -153 16 -159 c 0,3154,3155
 13 -166 13 -166 8.5 -167.5 c 128,-1,3156
 4 -169 4 -169 2 -163 c 0,3157,3158
 0 -159 0 -159 2 -155 c 128,-1,3159
 4 -151 4 -151 8 -152 c 0,3160,3161
 12 -154 12 -154 14 -150 c 0,3150,3151
114 -150 m 0,3162,3163
 117 -144 117 -144 118 -149 c 0,3164,3165
 118 -153 118 -153 116 -159 c 0,3166,3167
 113 -166 113 -166 108.5 -167.5 c 128,-1,3168
 104 -169 104 -169 102 -163 c 0,3169,3170
 100 -159 100 -159 102 -155 c 128,-1,3171
 104 -151 104 -151 108 -152 c 0,3172,3173
 112 -154 112 -154 114 -150 c 0,3162,3163
214 -150 m 0,3174,3175
 217 -144 217 -144 218 -149 c 0,3176,3177
 218 -153 218 -153 216 -159 c 0,3178,3179
 213 -166 213 -166 208.5 -167.5 c 128,-1,3180
 204 -169 204 -169 202 -163 c 0,3181,3182
 200 -159 200 -159 202 -155 c 128,-1,3183
 204 -151 204 -151 208 -152 c 0,3184,3185
 212 -154 212 -154 214 -150 c 0,3174,3175
314 -150 m 0,3186,3187
 317 -144 317 -144 318 -149 c 0,3188,3189
 318 -153 318 -153 316 -159 c 0,3190,3191
 313 -166 313 -166 308.5 -167.5 c 128,-1,3192
 304 -169 304 -169 302 -163 c 0,3193,3194
 300 -159 300 -159 302 -155 c 128,-1,3195
 304 -151 304 -151 308 -152 c 0,3196,3197
 312 -154 312 -154 314 -150 c 0,3186,3187
414 -150 m 0,3198,3199
 417 -144 417 -144 418 -149 c 0,3200,3201
 418 -153 418 -153 416 -159 c 0,3202,3203
 413 -166 413 -166 408.5 -167.5 c 128,-1,3204
 404 -169 404 -169 402 -163 c 0,3205,3206
 400 -159 400 -159 402 -155 c 128,-1,3207
 404 -151 404 -151 408 -152 c 0,3208,3209
 412 -154 412 -154 414 -150 c 0,3198,3199
514 -150 m 0,3210,3211
 517 -144 517 -144 518 -149 c 0,3212,3213
 518 -153 518 -153 516 -159 c 0,3214,3215
 513 -166 513 -166 508.5 -167.5 c 128,-1,3216
 504 -169 504 -169 502 -163 c 0,3217,3218
 500 -159 500 -159 502 -155 c 128,-1,3219
 504 -151 504 -151 508 -152 c 0,3220,3221
 512 -154 512 -154 514 -150 c 0,3210,3211
614 -150 m 0,3222,3223
 617 -144 617 -144 618 -149 c 0,3224,3225
 618 -153 618 -153 616 -159 c 0,3226,3227
 613 -166 613 -166 608.5 -167.5 c 128,-1,3228
 604 -169 604 -169 602 -163 c 0,3229,3230
 600 -159 600 -159 602 -155 c 128,-1,3231
 604 -151 604 -151 608 -152 c 0,3232,3233
 612 -154 612 -154 614 -150 c 0,3222,3223
714 -150 m 0,3234,3235
 717 -144 717 -144 718 -149 c 0,3236,3237
 718 -153 718 -153 716 -159 c 0,3238,3239
 713 -166 713 -166 708.5 -167.5 c 128,-1,3240
 704 -169 704 -169 702 -163 c 0,3241,3242
 700 -159 700 -159 702 -155 c 128,-1,3243
 704 -151 704 -151 708 -152 c 0,3244,3245
 712 -154 712 -154 714 -150 c 0,3234,3235
814 -150 m 0,3246,3247
 817 -144 817 -144 818 -149 c 0,3248,3249
 818 -153 818 -153 816 -159 c 0,3250,3251
 813 -166 813 -166 808.5 -167.5 c 128,-1,3252
 804 -169 804 -169 802 -163 c 0,3253,3254
 800 -159 800 -159 802 -155 c 128,-1,3255
 804 -151 804 -151 808 -152 c 0,3256,3257
 812 -154 812 -154 814 -150 c 0,3246,3247
914 -150 m 0,3258,3259
 917 -144 917 -144 918 -149 c 0,3260,3261
 918 -153 918 -153 916 -159 c 0,3262,3263
 913 -166 913 -166 908.5 -167.5 c 128,-1,3264
 904 -169 904 -169 902 -163 c 0,3265,3266
 900 -159 900 -159 902 -155 c 128,-1,3267
 904 -151 904 -151 908 -152 c 0,3268,3269
 912 -154 912 -154 914 -150 c 0,3258,3259
51 -184 m 0,3270,3271
 54 -181 54 -181 56 -180.5 c 128,-1,3272
 58 -180 58 -180 59 -181 c 0,3273,3274
 60 -185 60 -185 54.5 -192.5 c 128,-1,3275
 49 -200 49 -200 46 -199 c 0,3276,3277
 42 -198 42 -198 39.5 -192.5 c 128,-1,3278
 37 -187 37 -187 39 -185 c 0,3279,3280
 42 -183 42 -183 43 -187 c 0,3281,3282
 44 -190 44 -190 51 -184 c 0,3270,3271
151 -184 m 0,3283,3284
 154 -181 154 -181 156 -180.5 c 128,-1,3285
 158 -180 158 -180 159 -181 c 0,3286,3287
 160 -185 160 -185 154.5 -192.5 c 128,-1,3288
 149 -200 149 -200 146 -199 c 0,3289,3290
 142 -198 142 -198 139.5 -192.5 c 128,-1,3291
 137 -187 137 -187 139 -185 c 0,3292,3293
 142 -183 142 -183 143 -187 c 0,3294,3295
 144 -190 144 -190 151 -184 c 0,3283,3284
251 -184 m 0,3296,3297
 254 -181 254 -181 256 -180.5 c 128,-1,3298
 258 -180 258 -180 259 -181 c 0,3299,3300
 260 -185 260 -185 254.5 -192.5 c 128,-1,3301
 249 -200 249 -200 246 -199 c 0,3302,3303
 242 -198 242 -198 239.5 -192.5 c 128,-1,3304
 237 -187 237 -187 239 -185 c 0,3305,3306
 242 -183 242 -183 243 -187 c 0,3307,3308
 244 -190 244 -190 251 -184 c 0,3296,3297
351 -184 m 0,3309,3310
 354 -181 354 -181 356 -180.5 c 128,-1,3311
 358 -180 358 -180 359 -181 c 0,3312,3313
 360 -185 360 -185 354.5 -192.5 c 128,-1,3314
 349 -200 349 -200 346 -199 c 0,3315,3316
 342 -198 342 -198 339.5 -192.5 c 128,-1,3317
 337 -187 337 -187 339 -185 c 0,3318,3319
 342 -183 342 -183 343 -187 c 0,3320,3321
 344 -190 344 -190 351 -184 c 0,3309,3310
451 -184 m 0,3322,3323
 454 -181 454 -181 456 -180.5 c 128,-1,3324
 458 -180 458 -180 459 -181 c 0,3325,3326
 460 -185 460 -185 454.5 -192.5 c 128,-1,3327
 449 -200 449 -200 446 -199 c 0,3328,3329
 442 -198 442 -198 439.5 -192.5 c 128,-1,3330
 437 -187 437 -187 439 -185 c 0,3331,3332
 442 -183 442 -183 443 -187 c 0,3333,3334
 444 -190 444 -190 451 -184 c 0,3322,3323
551 -184 m 0,3335,3336
 554 -181 554 -181 556 -180.5 c 128,-1,3337
 558 -180 558 -180 559 -181 c 0,3338,3339
 560 -185 560 -185 554.5 -192.5 c 128,-1,3340
 549 -200 549 -200 546 -199 c 0,3341,3342
 542 -198 542 -198 539.5 -192.5 c 128,-1,3343
 537 -187 537 -187 539 -185 c 0,3344,3345
 542 -183 542 -183 543 -187 c 0,3346,3347
 544 -190 544 -190 551 -184 c 0,3335,3336
651 -184 m 0,3348,3349
 654 -181 654 -181 656 -180.5 c 128,-1,3350
 658 -180 658 -180 659 -181 c 0,3351,3352
 660 -185 660 -185 654.5 -192.5 c 128,-1,3353
 649 -200 649 -200 646 -199 c 0,3354,3355
 642 -198 642 -198 639.5 -192.5 c 128,-1,3356
 637 -187 637 -187 639 -185 c 0,3357,3358
 642 -183 642 -183 643 -187 c 0,3359,3360
 644 -190 644 -190 651 -184 c 0,3348,3349
751 -184 m 0,3361,3362
 754 -181 754 -181 756 -180.5 c 128,-1,3363
 758 -180 758 -180 759 -181 c 0,3364,3365
 760 -185 760 -185 754.5 -192.5 c 128,-1,3366
 749 -200 749 -200 746 -199 c 0,3367,3368
 742 -198 742 -198 739.5 -192.5 c 128,-1,3369
 737 -187 737 -187 739 -185 c 0,3370,3371
 742 -183 742 -183 743 -187 c 0,3372,3373
 744 -190 744 -190 751 -184 c 0,3361,3362
851 -184 m 0,3374,3375
 854 -181 854 -181 856 -180.5 c 128,-1,3376
 858 -180 858 -180 859 -181 c 0,3377,3378
 860 -185 860 -185 854.5 -192.5 c 128,-1,3379
 849 -200 849 -200 846 -199 c 0,3380,3381
 842 -198 842 -198 839.5 -192.5 c 128,-1,3382
 837 -187 837 -187 839 -185 c 0,3383,3384
 842 -183 842 -183 843 -187 c 0,3385,3386
 844 -190 844 -190 851 -184 c 0,3374,3375
951 -184 m 0,3387,3388
 954 -181 954 -181 956 -180.5 c 128,-1,3389
 958 -180 958 -180 959 -181 c 0,3390,3391
 960 -185 960 -185 954.5 -192.5 c 128,-1,3392
 949 -200 949 -200 946 -199 c 0,3393,3394
 942 -198 942 -198 939.5 -192.5 c 128,-1,3395
 937 -187 937 -187 939 -185 c 0,3396,3397
 942 -183 942 -183 943 -187 c 0,3398,3399
 944 -190 944 -190 951 -184 c 0,3387,3388
EndSplineSet
Validated: 129
EndChar

StartChar: ampersand
Encoding: 38 38 9
Width: 1000
GlyphClass: 2
Flags: W
LayerCount: 2
Fore
SplineSet
-1188 1812 m 1,0,-1
 -1188 1988 l 1,1,-1
 500 1988 l 1,2,-1
 2188 1988 l 1,3,-1
 2188 1812 l 1,4,-1
 2188 1636 l 1,5,-1
 2117 1636 l 1,6,-1
 2046 1636 l 1,7,-1
 2046 1549 l 1,8,-1
 2046 1461 l 1,9,-1
 2117 1461 l 1,10,-1
 2188 1461 l 1,11,-1
 2188 1267 l 1,12,-1
 2188 1073 l 1,13,-1
 2118 1074 l 2,14,15
 2047 1075 2047 1075 2046 1082 c 128,-1,16
 2045 1089 2045 1089 2038 1090 c 128,-1,17
 2031 1091 2031 1091 2031 1098 c 128,-1,18
 2031 1105 2031 1105 2021 1106 c 0,19,20
 2012 1107 2012 1107 2012 1098.5 c 128,-1,21
 2012 1090 2012 1090 2020.5 1090 c 128,-1,22
 2029 1090 2029 1090 2029 1081.5 c 128,-1,23
 2029 1073 2029 1073 2037 1073 c 2,24,-1
 2046 1073 l 1,25,-1
 2046 985 l 1,26,-1
 2046 897 l 1,27,-1
 2117 897 l 1,28,-1
 2188 897 l 1,29,-1
 2188 703 l 1,30,-1
 2188 509 l 1,31,-1
 2118 510 l 1,32,-1
 2047 511 l 1,33,-1
 2046 522 l 2,34,35
 2045 534 2045 534 2042 530 c 0,36,37
 2035 526 2035 526 2029 536 c 0,38,39
 2029 543 2029 543 2020.5 543 c 128,-1,40
 2012 543 2012 543 2012 534.5 c 128,-1,41
 2012 526 2012 526 2020.5 526 c 128,-1,42
 2029 526 2029 526 2029 517.5 c 128,-1,43
 2029 509 2029 509 2037 509 c 2,44,-1
 2046 509 l 1,45,-1
 2046 422 l 1,46,-1
 2046 334 l 1,47,-1
 2117 334 l 1,48,-1
 2188 334 l 1,49,-1
 2188 140 l 1,50,-1
 2188 -54 l 1,51,-1
 2118 -54 l 2,52,53
 2047 -53 2047 -53 2046 -45 c 0,54,55
 2045 -36 2045 -36 2037 -36.5 c 128,-1,56
 2029 -37 2029 -37 2029 -45.5 c 128,-1,57
 2029 -54 2029 -54 2037 -54 c 2,58,-1
 2046 -54 l 1,59,-1
 2046 -142 l 1,60,-1
 2046 -230 l 1,61,-1
 2117 -230 l 1,62,-1
 2188 -230 l 1,63,-1
 2188 -421 l 1,64,-1
 2188 -612 l 1,65,-1
 2133 -611 l 1,66,-1
 2062 -611 l 1,67,-1
 2046 -611 l 1,68,-1
 2046 -699 l 1,69,-1
 2046 -787 l 1,70,-1
 2117 -787 l 1,71,-1
 2188 -787 l 1,72,-1
 2188 -981 l 1,73,-1
 2188 -1175 l 1,74,-1
 2118 -1174 l 2,75,76
 2047 -1173 2047 -1173 2046 -1165.5 c 128,-1,77
 2045 -1158 2045 -1158 2037 -1156 c 0,78,79
 2028 -1154 2028 -1154 2030 -1148 c 0,80,81
 2031 -1141 2031 -1141 2021.5 -1141 c 128,-1,82
 2012 -1141 2012 -1141 2012 -1149.5 c 128,-1,83
 2012 -1158 2012 -1158 2020.5 -1158 c 128,-1,84
 2029 -1158 2029 -1158 2029 -1167.5 c 128,-1,85
 2029 -1177 2029 -1177 2037 -1176 c 2,86,-1
 2046 -1174 l 1,87,-1
 2046 -1262 l 1,88,-1
 2046 -1350 l 1,89,-1
 2117 -1350 l 1,90,-1
 2188 -1350 l 1,91,-1
 2188 -1369 l 1,92,-1
 2188 -1388 l 1,93,-1
 500 -1388 l 1,94,-1
 -1188 -1388 l 1,95,-1
 -1188 -1369 l 1,96,-1
 -1188 -1350 l 1,97,-1
 -1047 -1350 l 1,98,-1
 -907 -1350 l 1,99,-1
 -907 -1262 l 1,100,-1
 -907 -1173 l 1,101,-1
 -1047 -1174 l 1,102,-1
 -1188 -1175 l 1,103,-1
 -1188 -981 l 1,104,-1
 -1188 -787 l 1,105,-1
 -1047 -787 l 1,106,-1
 -908 -787 l 1,107,-1
 -907 -696 l 1,108,-1
 -909 -608 l 1,109,110
 -912 -611 -912 -611 -1050 -611 c 2,111,-1
 -1188 -611 l 1,112,-1
 -1188 -421 l 1,113,-1
 -1188 -230 l 1,114,-1
 -1047 -230 l 1,115,-1
 -907 -230 l 1,116,-1
 -907 -141 l 2,117,118
 -907 -51 -907 -51 -903 -50 c 0,119,120
 -898 -48 -898 -48 -903 -48 c 0,121,122
 -907 -47 -907 -47 -909 -51 c 0,123,124
 -911 -54 -911 -54 -1049 -54 c 2,125,-1
 -1188 -54 l 1,126,-1
 -1188 140 l 1,127,-1
 -1188 334 l 1,128,-1
 -1047 334 l 1,129,-1
 -908 334 l 1,130,-1
 -907 425 l 2,131,132
 -906 516 -906 516 -909 513 c 0,133,134
 -912 509 -912 509 -1050 509 c 2,135,-1
 -1188 509 l 1,136,-1
 -1188 703 l 1,137,-1
 -1188 897 l 1,138,-1
 -1047 897 l 1,139,-1
 -907 897 l 1,140,-1
 -907 986 l 1,141,-1
 -907 1075 l 1,142,-1
 -1047 1074 l 1,143,-1
 -1188 1073 l 1,144,-1
 -1188 1267 l 1,145,-1
 -1188 1461 l 1,146,-1
 -1047 1461 l 1,147,-1
 -907 1461 l 1,148,-1
 -907 1549 l 1,149,-1
 -907 1636 l 1,150,-1
 -1047 1636 l 1,151,-1
 -1188 1636 l 1,152,-1
 -1188 1812 l 1,0,-1
-1134 1944 m 128,-1,154
 -1134 1954 -1134 1954 -1144 1954 c 128,-1,155
 -1154 1954 -1154 1954 -1154 1944 c 128,-1,156
 -1154 1934 -1154 1934 -1144 1934 c 128,-1,157
 -1134 1934 -1134 1934 -1134 1925.5 c 128,-1,158
 -1134 1917 -1134 1917 -1126 1916 c 2,159,-1
 -1118 1915 l 1,160,-1
 -1117 1828 l 1,161,-1
 -1117 1741 l 1,162,-1
 -870 1741 l 1,163,-1
 -624 1741 l 1,164,-1
 -623 1832 l 1,165,-1
 -626 1920 l 1,166,167
 -630 1917 -630 1917 -873 1917 c 2,168,-1
 -1117 1917 l 1,169,-1
 -1117 1925 l 2,170,171
 -1117 1934 -1117 1934 -1125.5 1934 c 128,-1,153
 -1134 1934 -1134 1934 -1134 1944 c 128,-1,154
-535 1945 m 0,172,173
 -537 1954 -537 1954 -545 1954 c 128,-1,174
 -553 1954 -553 1954 -553 1944 c 128,-1,175
 -553 1934 -553 1934 -544.5 1934 c 128,-1,176
 -536 1934 -536 1934 -536 1925.5 c 128,-1,177
 -536 1917 -536 1917 -528 1917 c 2,178,-1
 -519 1917 l 1,179,-1
 -519 1829 l 1,180,-1
 -519 1741 l 1,181,-1
 -308 1741 l 1,182,-1
 -97 1741 l 1,183,-1
 -97 1831 l 2,184,185
 -97 1920 -97 1920 -93 1920 c 0,186,187
 -90 1920 -90 1920 -92 1922 c 0,188,189
 -94 1925 -94 1925 -98 1920 c 0,190,191
 -103 1917 -103 1917 -310 1917 c 2,192,-1
 -518 1918 l 1,193,-1
 -519 1926 l 2,194,195
 -520 1933 -520 1933 -527 1934 c 128,-1,196
 -534 1935 -534 1935 -535 1945 c 0,172,173
-4 1945 m 0,197,198
 -4 1954 -4 1954 -15 1954 c 128,-1,199
 -26 1954 -26 1954 -26 1944 c 128,-1,200
 -26 1934 -26 1934 -16.5 1934 c 128,-1,201
 -7 1934 -7 1934 -6 1924 c 0,202,203
 -5 1915 -5 1915 2 1915 c 128,-1,204
 9 1915 9 1915 10 1828 c 2,205,-1
 11 1741 l 1,206,-1
 257 1741 l 1,207,-1
 503 1741 l 1,208,-1
 503 1830 l 1,209,-1
 503 1918 l 1,210,-1
 265 1917 l 2,211,212
 25 1917 25 1917 18 1918 c 0,213,214
 11 1920 11 1920 11 1926 c 0,215,216
 11 1933 11 1933 3 1934 c 256,217,218
 -5 1935 -5 1935 -4 1945 c 0,197,198
532 1949 m 1,219,220
 531 1944 531 1944 534 1944 c 2,221,-1
 536 1942 l 2,222,223
 535 1940 535 1940 529 1942 c 0,224,225
 524 1944 524 1944 528 1949 c 1,226,-1
 532 1949 l 1,219,220
592 1948 m 0,227,228
 590 1954 590 1954 582 1954 c 256,229,230
 574 1954 574 1954 574 1944 c 128,-1,231
 574 1934 574 1934 582 1934 c 0,232,233
 596 1934 596 1934 592 1948 c 0,227,228
1116 1945 m 0,234,235
 1117 1951 1117 1951 1115.5 1952.5 c 128,-1,236
 1114 1954 1114 1954 1105 1954 c 0,237,238
 1094 1954 1094 1954 1094 1943 c 0,239,240
 1094 1933 1094 1933 1104 1934 c 0,241,242
 1115 1935 1115 1935 1116 1945 c 0,234,235
1656 1950 m 0,243,244
 1654 1954 1654 1954 1652 1954 c 0,245,246
 1651 1954 1651 1954 1651 1950.5 c 128,-1,247
 1651 1947 1651 1947 1655 1947 c 0,248,249
 1658 1947 1658 1947 1656 1950 c 0,243,244
1712 1944 m 128,-1,251
 1712 1954 1712 1954 1703.5 1954 c 128,-1,252
 1695 1954 1695 1954 1695 1944 c 128,-1,253
 1695 1934 1695 1934 1703.5 1934 c 128,-1,250
 1712 1934 1712 1934 1712 1944 c 128,-1,251
-70 1947 m 128,-1,255
 -70 1944 -70 1944 -72 1944 c 0,256,257
 -73 1944 -73 1944 -75 1947 c 256,258,259
 -77 1950 -77 1950 -74 1950 c 0,260,254
 -70 1950 -70 1950 -70 1947 c 128,-1,255
609 1926 m 2,261,262
 607 1935 607 1935 599 1934.5 c 128,-1,263
 591 1934 591 1934 591 1925.5 c 128,-1,264
 591 1917 591 1917 600 1917 c 2,265,-1
 608 1917 l 1,266,-1
 608 1829 l 1,267,-1
 608 1741 l 1,268,-1
 819 1741 l 1,269,-1
 1030 1741 l 1,270,-1
 1030 1829 l 1,271,-1
 1030 1917 l 1,272,-1
 820 1917 l 1,273,-1
 610 1918 l 1,274,-1
 609 1926 l 2,261,262
1132 1926 m 2,275,276
 1131 1934 1131 1934 1122.5 1934 c 128,-1,277
 1114 1934 1114 1934 1114 1925 c 0,278,279
 1114 1917 1114 1917 1122 1916 c 2,280,-1
 1129 1915 l 1,281,-1
 1130 1828 l 1,282,-1
 1131 1741 l 1,283,-1
 1378 1741 l 1,284,-1
 1624 1741 l 1,285,-1
 1624 1829 l 1,286,-1
 1624 1917 l 1,287,-1
 1379 1917 l 1,288,-1
 1133 1918 l 1,289,-1
 1132 1926 l 2,275,276
1728 1925 m 2,290,291
 1728 1934 1728 1934 1720 1934 c 128,-1,292
 1712 1934 1712 1934 1712 1925.5 c 128,-1,293
 1712 1917 1712 1917 1720 1917 c 2,294,-1
 1728 1917 l 1,295,-1
 1728 1829 l 1,296,-1
 1728 1741 l 1,297,-1
 1939 1741 l 1,298,-1
 2150 1741 l 1,299,-1
 2150 1830 l 1,300,-1
 2150 1918 l 1,301,-1
 1939 1917 l 1,302,-1
 1728 1917 l 1,303,-1
 1728 1925 l 2,290,291
-98 1928 m 1,304,305
 -101 1926 -101 1926 -105 1928 c 1,306,-1
 -103 1930 l 1,307,-1
 -98 1928 l 1,304,305
1046 1927 m 0,308,309
 1050 1924 1050 1924 1040 1924 c 128,-1,310
 1030 1924 1030 1924 1034 1927 c 0,311,312
 1039 1930 1039 1930 1040 1930 c 128,-1,313
 1041 1930 1041 1930 1046 1927 c 0,308,309
-818 1662 m 256,314,315
 -818 1669 -818 1669 -827 1670 c 256,316,317
 -836 1671 -836 1671 -836 1662 c 128,-1,318
 -836 1653 -836 1653 -828 1653 c 128,-1,319
 -820 1653 -820 1653 -820 1644.5 c 128,-1,320
 -820 1636 -820 1636 -810 1636 c 2,321,-1
 -799 1636 l 1,322,-1
 -799 1549 l 1,323,-1
 -799 1461 l 1,324,-1
 -553 1461 l 1,325,-1
 -307 1461 l 1,326,-1
 -307 1549 l 1,327,-1
 -307 1636 l 1,328,-1
 -553 1636 l 1,329,-1
 -799 1636 l 1,330,-1
 -799 1647 l 2,331,332
 -799 1654 -799 1654 -800.5 1655.5 c 128,-1,333
 -802 1657 -802 1657 -808 1656 c 0,334,335
 -818 1655 -818 1655 -818 1662 c 256,314,315
-274 1664 m 1,336,-1
 -275 1664 l 2,337,338
 -277 1667 -277 1667 -280 1667 c 0,339,340
 -284 1667 -284 1667 -281 1663 c 1,341,-1
 -284 1663 l 1,342,343
 -290 1668 -290 1668 -293 1663 c 2,344,-1
 -296 1662 l 1,345,346
 -296 1670 -296 1670 -284 1669 c 0,347,348
 -275 1669 -275 1669 -274 1664 c 1,336,-1
-217 1663 m 0,349,350
 -217 1670 -217 1670 -226.5 1670 c 128,-1,351
 -236 1670 -236 1670 -236 1661.5 c 128,-1,352
 -236 1653 -236 1653 -227.5 1653 c 128,-1,353
 -219 1653 -219 1653 -219 1644.5 c 128,-1,354
 -219 1636 -219 1636 -210 1636 c 2,355,-1
 -202 1636 l 1,356,-1
 -202 1549 l 1,357,-1
 -202 1461 l 1,358,-1
 9 1461 l 1,359,-1
 220 1461 l 1,360,-1
 220 1549 l 1,361,-1
 220 1636 l 1,362,-1
 9 1636 l 1,363,-1
 -203 1636 l 1,364,-1
 -201 1645 l 2,365,366
 -199 1653 -199 1653 -204 1654 c 0,367,368
 -205 1654 -205 1654 -208.5 1654.5 c 128,-1,369
 -212 1655 -212 1655 -213 1655 c 0,370,371
 -217 1655 -217 1655 -217 1663 c 0,349,350
255 1667 m 1,372,373
 253 1670 253 1670 250 1670 c 1,374,-1
 251 1666 l 1,375,-1
 255 1667 l 1,372,373
309 1664 m 0,376,377
 310 1670 310 1670 300.5 1670 c 128,-1,378
 291 1670 291 1670 291 1661.5 c 128,-1,379
 291 1653 291 1653 299.5 1653 c 128,-1,380
 308 1653 308 1653 308 1644.5 c 128,-1,381
 308 1636 308 1636 318 1636 c 2,382,-1
 328 1636 l 1,383,-1
 328 1549 l 1,384,-1
 328 1461 l 1,385,-1
 574 1461 l 1,386,-1
 821 1461 l 1,387,-1
 821 1549 l 1,388,-1
 821 1636 l 1,389,-1
 574 1636 l 1,390,-1
 328 1636 l 1,391,-1
 328 1647 l 1,392,-1
 324 1655 l 1,393,394
 319 1652 319 1652 313 1655.5 c 128,-1,395
 307 1659 307 1659 309 1664 c 0,376,377
853 1666 m 0,396,397
 855 1663 855 1663 852 1665 c 0,398,399
 848 1667 848 1667 848 1664 c 0,400,401
 848 1660 848 1660 844 1660 c 1,402,-1
 844 1665 l 1,403,404
 850 1672 850 1672 853 1666 c 0,396,397
910 1662 m 128,-1,406
 910 1669 910 1669 901 1670 c 256,407,408
 892 1671 892 1671 892 1662 c 128,-1,409
 892 1653 892 1653 900 1653 c 128,-1,410
 908 1653 908 1653 908 1644.5 c 128,-1,411
 908 1636 908 1636 917 1636 c 2,412,-1
 925 1636 l 1,413,-1
 925 1549 l 1,414,-1
 925 1461 l 1,415,-1
 1133 1461 l 1,416,-1
 1340 1461 l 1,417,-1
 1340 1549 l 1,418,-1
 1340 1636 l 1,419,-1
 1134 1637 l 1,420,-1
 927 1638 l 1,421,-1
 925 1647 l 2,422,423
 924 1655 924 1655 917 1655 c 128,-1,405
 910 1655 910 1655 910 1662 c 128,-1,406
1430 1663 m 0,424,425
 1430 1670 1430 1670 1420.5 1670 c 128,-1,426
 1411 1670 1411 1670 1411 1661.5 c 128,-1,427
 1411 1653 1411 1653 1419.5 1653 c 128,-1,428
 1428 1653 1428 1653 1428 1644.5 c 128,-1,429
 1428 1636 1428 1636 1438 1636 c 2,430,-1
 1448 1636 l 1,431,-1
 1448 1549 l 1,432,-1
 1448 1461 l 1,433,-1
 1695 1461 l 1,434,-1
 1941 1461 l 1,435,-1
 1941 1549 l 1,436,-1
 1941 1636 l 1,437,-1
 1695 1636 l 2,438,439
 1448 1636 1448 1636 1448 1643 c 256,440,441
 1448 1650 1448 1650 1453 1650 c 1,442,-1
 1443 1653 l 2,443,444
 1430 1655 1430 1655 1430 1663 c 0,424,425
2031 1663 m 0,445,446
 2032 1670 2032 1670 2022 1670 c 128,-1,447
 2012 1670 2012 1670 2012 1661.5 c 128,-1,448
 2012 1653 2012 1653 2020.5 1653 c 128,-1,449
 2029 1653 2029 1653 2029 1644.5 c 128,-1,450
 2029 1636 2029 1636 2037.5 1636 c 128,-1,451
 2046 1636 2046 1636 2046 1645.5 c 128,-1,452
 2046 1655 2046 1655 2038 1655 c 0,453,454
 2031 1655 2031 1655 2031 1663 c 0,445,446
-879 1664 m 256,455,456
 -877 1661 -877 1661 -882 1661 c 256,457,458
 -887 1661 -887 1661 -887 1664 c 256,459,460
 -887 1667 -887 1667 -884 1667 c 128,-1,461
 -881 1667 -881 1667 -879 1664 c 256,455,456
1958 1656 m 1,462,-1
 1961 1662 l 1,463,464
 1963 1660 1963 1660 1958 1656 c 1,462,-1
-1133 1384 m 0,465,466
 -1134 1390 -1134 1390 -1144 1390 c 256,467,468
 -1154 1390 -1154 1390 -1154 1380 c 128,-1,469
 -1154 1370 -1154 1370 -1144 1370 c 0,470,471
 -1129 1370 -1129 1370 -1133 1384 c 0,465,466
-535 1381 m 0,472,473
 -537 1390 -537 1390 -545 1390 c 128,-1,474
 -553 1390 -553 1390 -553 1380 c 128,-1,475
 -553 1370 -553 1370 -544.5 1370 c 128,-1,476
 -536 1370 -536 1370 -536 1361.5 c 128,-1,477
 -536 1353 -536 1353 -528 1353 c 2,478,-1
 -519 1353 l 1,479,-1
 -519 1265 l 1,480,-1
 -519 1178 l 1,481,-1
 -308 1178 l 1,482,-1
 -98 1178 l 1,483,-1
 -97 1269 l 2,484,485
 -96 1359 -96 1359 -99 1356 c 256,486,487
 -102 1353 -102 1353 -309 1353 c 128,-1,488
 -516 1353 -516 1353 -518 1358 c 256,489,490
 -520 1363 -520 1363 -517 1368 c 0,491,492
 -513 1372 -513 1372 -523.5 1372 c 128,-1,493
 -534 1372 -534 1372 -535 1381 c 0,472,473
-5 1381 m 0,494,495
 -4 1390 -4 1390 -15 1390 c 128,-1,496
 -26 1390 -26 1390 -26 1380 c 128,-1,497
 -26 1370 -26 1370 -16 1370 c 128,-1,498
 -6 1370 -6 1370 -6 1361.5 c 128,-1,499
 -6 1353 -6 1353 2 1353 c 2,500,-1
 11 1353 l 1,501,-1
 11 1265 l 1,502,-1
 11 1178 l 1,503,-1
 257 1178 l 1,504,-1
 503 1178 l 1,505,-1
 503 1266 l 1,506,-1
 503 1355 l 1,507,-1
 258 1355 l 2,508,509
 12 1355 12 1355 12 1361.5 c 128,-1,510
 12 1368 12 1368 4 1370 c 0,511,512
 -5 1372 -5 1372 -5 1381 c 0,494,495
594 1383 m 2,513,514
 590 1390 590 1390 582 1390 c 128,-1,515
 574 1390 574 1390 574 1380 c 128,-1,516
 574 1370 574 1370 582.5 1370 c 128,-1,517
 591 1370 591 1370 591 1375 c 256,518,519
 591 1380 591 1380 595 1378 c 1,520,-1
 594 1383 l 2,513,514
1116 1387 m 1,521,-1
 1106 1390 l 2,522,523
 1094 1390 1094 1390 1094 1380 c 128,-1,524
 1094 1370 1094 1370 1104 1370 c 128,-1,525
 1114 1370 1114 1370 1114 1361.5 c 128,-1,526
 1114 1353 1114 1353 1123 1353 c 2,527,-1
 1131 1353 l 1,528,-1
 1131 1265 l 1,529,-1
 1131 1178 l 1,530,-1
 1378 1178 l 1,531,-1
 1624 1178 l 1,532,-1
 1624 1265 l 1,533,-1
 1624 1353 l 1,534,-1
 1378 1353 l 1,535,-1
 1131 1353 l 1,536,-1
 1131 1362 l 2,537,538
 1131 1372 1131 1372 1127 1377 c 1,539,-1
 1126 1376 l 1,540,541
 1127 1370 1127 1370 1123 1370 c 256,542,543
 1119 1370 1119 1370 1116 1376.5 c 128,-1,544
 1113 1383 1113 1383 1116 1387 c 1,521,-1
1712 1380 m 128,-1,546
 1712 1390 1712 1390 1703.5 1390 c 128,-1,547
 1695 1390 1695 1390 1695 1380 c 128,-1,548
 1695 1370 1695 1370 1703.5 1370 c 128,-1,545
 1712 1370 1712 1370 1712 1380 c 128,-1,546
2167 1383.5 m 128,-1,550
 2167 1390 2167 1390 2166 1390 c 128,-1,551
 2165 1390 2165 1390 2163 1383.5 c 128,-1,552
 2161 1377 2161 1377 2164 1377 c 128,-1,549
 2167 1377 2167 1377 2167 1383.5 c 128,-1,550
517 1379 m 1,553,-1
 520 1385 l 1,554,555
 521 1383 521 1383 517 1379 c 1,553,-1
2184 1382 m 0,556,557
 2184 1380 2184 1380 2181 1378 c 0,558,559
 2177 1376 2177 1376 2177 1380 c 0,560,561
 2177 1383 2177 1383 2180.5 1383 c 128,-1,562
 2184 1383 2184 1383 2184 1382 c 0,556,557
-72 1375 m 1,563,564
 -84 1380 -84 1380 -77 1380 c 0,565,566
 -74 1380 -74 1380 -72 1375 c 1,563,564
1060 1373 m 0,567,568
 1060 1371 1060 1371 1059 1370.5 c 128,-1,569
 1058 1370 1058 1370 1056 1371 c 0,570,571
 1051 1373 1051 1373 1047 1369 c 1,572,573
 1047 1374 1047 1374 1043 1377 c 1,574,-1
 1048 1379 l 1,575,576
 1058 1377 1058 1377 1060 1373 c 0,567,568
1657 1373 m 1,577,-1
 1655 1373 l 1,578,579
 1651 1378 1651 1378 1648 1373 c 1,580,-1
 1644 1372 l 1,581,582
 1644 1379 1644 1379 1649.5 1379.5 c 128,-1,583
 1655 1380 1655 1380 1657 1373 c 1,577,-1
-1114 1362 m 2,584,585
 -1114 1368 -1114 1368 -1117 1370 c 128,-1,586
 -1120 1372 -1120 1372 -1127 1371 c 0,587,588
 -1134 1369 -1134 1369 -1134 1361 c 256,589,590
 -1134 1353 -1134 1353 -1125 1353 c 2,591,-1
 -1117 1353 l 1,592,-1
 -1117 1265 l 1,593,-1
 -1117 1178 l 1,594,-1
 -870 1178 l 1,595,-1
 -624 1178 l 1,596,-1
 -624 1267 l 1,597,-1
 -618 1359 l 1,598,-1
 -616 1356 l 1,599,-1
 -614 1357 l 1,600,601
 -613 1370 -613 1370 -624 1358 c 0,602,603
 -628 1353 -628 1353 -872 1354 c 2,604,-1
 -1115 1355 l 1,605,-1
 -1114 1362 l 2,584,585
1632 1366 m 1,606,-1
 1630 1362 l 1,607,608
 1627 1364 1627 1364 1627 1369 c 1,609,-1
 1632 1366 l 1,606,-1
1641 1372 m 0,610,611
 1641 1370 1641 1370 1637 1368 c 0,612,613
 1634 1366 1634 1366 1634 1370 c 0,614,615
 1634 1373 1634 1373 1637.5 1373 c 128,-1,616
 1641 1373 1641 1373 1641 1372 c 0,610,611
610 1362 m 2,617,618
 610 1370 610 1370 600.5 1370 c 128,-1,619
 591 1370 591 1370 591 1361.5 c 128,-1,620
 591 1353 591 1353 600 1353 c 2,621,-1
 608 1353 l 1,622,-1
 608 1265 l 1,623,-1
 608 1178 l 1,624,-1
 819 1178 l 1,625,-1
 1030 1178 l 1,626,-1
 1030 1265 l 1,627,-1
 1030 1353 l 1,628,-1
 820 1354 l 1,629,-1
 610 1355 l 1,630,-1
 610 1362 l 2,617,618
1728 1361 m 2,631,632
 1728 1370 1728 1370 1720 1370 c 128,-1,633
 1712 1370 1712 1370 1712 1361.5 c 128,-1,634
 1712 1353 1712 1353 1720 1353 c 2,635,-1
 1728 1353 l 1,636,-1
 1728 1265 l 1,637,-1
 1728 1178 l 1,638,-1
 1939 1178 l 1,639,-1
 2150 1178 l 1,640,-1
 2150 1266 l 1,641,-1
 2150 1355 l 1,642,-1
 1939 1354 l 1,643,-1
 1728 1353 l 1,644,-1
 1728 1361 l 2,631,632
-814 1104 m 1,645,646
 -820 1103 -820 1103 -820 1096 c 0,647,648
 -820 1090 -820 1090 -828 1090 c 128,-1,649
 -836 1090 -836 1090 -836 1098.5 c 128,-1,650
 -836 1107 -836 1107 -822 1106 c 0,651,652
 -815 1105 -815 1105 -814 1104 c 1,645,646
-275 1095 m 0,653,654
 -277 1090 -277 1090 -280 1090 c 1,655,-1
 -280 1095 l 1,656,657
 -276 1100 -276 1100 -278 1104 c 1,658,-1
 -277 1105 l 1,659,660
 -273 1101 -273 1101 -275 1095 c 0,653,654
-218 1099 m 0,661,662
 -219 1108 -219 1108 -227.5 1107.5 c 128,-1,663
 -236 1107 -236 1107 -236 1098.5 c 128,-1,664
 -236 1090 -236 1090 -227.5 1090 c 128,-1,665
 -219 1090 -219 1090 -219 1081.5 c 128,-1,666
 -219 1073 -219 1073 -210.5 1073 c 128,-1,667
 -202 1073 -202 1073 -201.5 1081 c 128,-1,668
 -201 1089 -201 1089 -209 1090 c 256,669,670
 -217 1091 -217 1091 -218 1099 c 0,661,662
255 1103 m 0,671,672
 257 1100 257 1100 254 1100 c 0,673,674
 250 1100 250 1100 250 1103.5 c 128,-1,675
 250 1107 250 1107 252 1107 c 256,676,677
 254 1107 254 1107 255 1103 c 0,671,672
308 1099 m 0,678,679
 307 1108 307 1108 299 1107.5 c 128,-1,680
 291 1107 291 1107 291 1098.5 c 128,-1,681
 291 1090 291 1090 299.5 1090 c 128,-1,682
 308 1090 308 1090 308 1081.5 c 128,-1,683
 308 1073 308 1073 318 1073 c 2,684,-1
 328 1073 l 1,685,-1
 328 985 l 1,686,-1
 328 897 l 1,687,-1
 574 897 l 1,688,-1
 821 897 l 1,689,-1
 821 986 l 1,690,-1
 821 1075 l 1,691,-1
 575 1075 l 1,692,-1
 330 1075 l 1,693,-1
 329 1082 l 2,694,695
 328 1089 328 1089 318.5 1090 c 128,-1,696
 309 1091 309 1091 308 1099 c 0,678,679
320 1099 m 1,697,-1
 318 1101 l 1,698,-1
 320 1106 l 1,699,700
 322 1103 322 1103 320 1099 c 1,697,-1
851 1105 m 256,701,702
 851 1103 851 1103 848 1102 c 0,703,704
 844 1100 844 1100 844 1103 c 0,705,706
 844 1107 844 1107 847.5 1107 c 128,-1,707
 851 1107 851 1107 851 1105 c 256,701,702
914 1104 m 1,708,709
 908 1103 908 1103 908 1096 c 0,710,711
 908 1090 908 1090 900 1090 c 128,-1,712
 892 1090 892 1090 892 1098.5 c 128,-1,713
 892 1107 892 1107 906 1106 c 0,714,715
 913 1105 913 1105 914 1104 c 1,708,709
1429 1099 m 0,716,717
 1428 1108 1428 1108 1419.5 1107.5 c 128,-1,718
 1411 1107 1411 1107 1411 1098.5 c 128,-1,719
 1411 1090 1411 1090 1419.5 1090 c 128,-1,720
 1428 1090 1428 1090 1428 1081.5 c 128,-1,721
 1428 1073 1428 1073 1438 1073 c 2,722,-1
 1448 1073 l 1,723,-1
 1448 985 l 1,724,-1
 1448 897 l 1,725,-1
 1695 897 l 1,726,-1
 1941 897 l 1,727,-1
 1941 986 l 2,728,729
 1941 1075 1941 1075 1946 1080 c 1,730,731
 1936 1073 1936 1073 1697 1073 c 0,732,733
 1460 1073 1460 1073 1454 1075 c 256,734,735
 1448 1077 1448 1077 1448 1083 c 128,-1,736
 1448 1089 1448 1089 1439 1090 c 256,737,738
 1430 1091 1430 1091 1429 1099 c 0,716,717
-286 1101 m 2,739,740
 -290 1099 -290 1099 -288 1096 c 0,741,742
 -286 1092 -286 1092 -289 1094 c 0,743,744
 -293 1097 -293 1097 -291.5 1100 c 128,-1,745
 -290 1103 -290 1103 -285 1103 c 1,746,-1
 -286 1101 l 2,739,740
-799 1082 m 2,747,748
 -800 1090 -800 1090 -810 1090 c 128,-1,749
 -820 1090 -820 1090 -820 1081.5 c 128,-1,750
 -820 1073 -820 1073 -810 1073 c 2,751,-1
 -799 1073 l 1,752,-1
 -799 985 l 1,753,-1
 -799 897 l 1,754,-1
 -553 897 l 1,755,-1
 -307 897 l 1,756,-1
 -307 986 l 1,757,-1
 -307 1075 l 1,758,-1
 -552 1075 l 1,759,-1
 -798 1075 l 1,760,-1
 -799 1082 l 2,747,748
-294 1088 m 1,761,762
 -296 1086 -296 1086 -301 1087 c 1,763,-1
 -299 1089 l 1,764,-1
 -294 1088 l 1,761,762
926 1082 m 2,765,766
 925 1091 925 1091 916.5 1090.5 c 128,-1,767
 908 1090 908 1090 908 1081.5 c 128,-1,768
 908 1073 908 1073 917 1073 c 2,769,-1
 925 1073 l 1,770,-1
 925 985 l 1,771,-1
 925 897 l 1,772,-1
 1133 897 l 1,773,-1
 1340 897 l 1,774,-1
 1340 986 l 1,775,-1
 1340 1075 l 1,776,-1
 1134 1075 l 1,777,-1
 927 1075 l 1,778,-1
 926 1082 l 2,765,766
220 985 m 1,779,-1
 220 1073 l 1,780,-1
 9 1073 l 1,781,-1
 -202 1073 l 1,782,-1
 -202 985 l 1,783,-1
 -202 897 l 1,784,-1
 9 897 l 1,785,-1
 220 897 l 1,786,-1
 220 985 l 1,779,-1
-1134 816 m 128,-1,788
 -1134 826 -1134 826 -1144 826 c 128,-1,789
 -1154 826 -1154 826 -1154 816 c 128,-1,790
 -1154 806 -1154 806 -1144 806 c 128,-1,787
 -1134 806 -1134 806 -1134 816 c 128,-1,788
-607 823 m 2,791,792
 -607 819 -607 819 -614 820 c 0,793,794
 -623 820 -623 820 -615 823 c 0,795,796
 -609 826 -609 826 -608 826 c 2,797,-1
 -607 823 l 2,791,792
-535 817 m 0,798,799
 -537 826 -537 826 -545 826 c 128,-1,800
 -553 826 -553 826 -553 816 c 128,-1,801
 -553 806 -553 806 -544.5 806 c 128,-1,802
 -536 806 -536 806 -536 797.5 c 128,-1,803
 -536 789 -536 789 -528 789 c 2,804,-1
 -519 789 l 1,805,-1
 -519 702 l 1,806,-1
 -519 614 l 1,807,-1
 -308 614 l 1,808,-1
 -97 614 l 1,809,-1
 -97 703 l 2,810,811
 -97 793 -97 793 -94 793 c 0,812,813
 -90 793 -90 793 -92 796 c 0,814,815
 -95 800 -95 800 -98 794 c 0,816,817
 -102 789 -102 789 -310 790 c 2,818,-1
 -518 791 l 1,819,-1
 -519 798 l 2,820,821
 -520 806 -520 806 -527 807 c 128,-1,822
 -534 808 -534 808 -535 817 c 0,798,799
-6 817 m 256,823,824
 -7 826 -7 826 -16.5 826 c 128,-1,825
 -26 826 -26 826 -26 816 c 128,-1,826
 -26 806 -26 806 -16 806 c 128,-1,827
 -6 806 -6 806 -6 796 c 128,-1,828
 -6 786 -6 786 2 788 c 0,829,830
 11 790 11 790 10 787 c 0,831,832
 10 784 10 784 10 699 c 2,833,-1
 11 614 l 1,834,-1
 257 614 l 1,835,-1
 503 614 l 1,836,-1
 503 703 l 1,837,-1
 503 791 l 1,838,-1
 258 791 l 2,839,840
 12 791 12 791 12 798 c 128,-1,841
 12 805 12 805 4 806 c 0,842,843
 -5 808 -5 808 -6 817 c 256,823,824
591 816 m 128,-1,845
 591 826 591 826 582.5 826 c 128,-1,846
 574 826 574 826 574 816 c 128,-1,847
 574 806 574 806 582.5 806 c 128,-1,848
 591 806 591 806 591 797.5 c 128,-1,849
 591 789 591 789 600 789 c 2,850,-1
 608 789 l 1,851,-1
 608 702 l 1,852,-1
 608 614 l 1,853,-1
 819 614 l 1,854,-1
 1030 614 l 1,855,-1
 1030 702 l 1,856,-1
 1030 789 l 1,857,-1
 820 790 l 1,858,-1
 610 791 l 1,859,-1
 610 799 l 2,860,861
 611 806 611 806 601 806 c 128,-1,844
 591 806 591 806 591 816 c 128,-1,845
1115 817 m 256,862,863
 1114 826 1114 826 1104 826 c 128,-1,864
 1094 826 1094 826 1094 816 c 128,-1,865
 1094 806 1094 806 1104 806 c 128,-1,866
 1114 806 1114 806 1114 797.5 c 128,-1,867
 1114 789 1114 789 1121 789 c 0,868,869
 1127 789 1127 789 1129 784 c 0,870,871
 1131 778 1131 778 1131 696 c 2,872,-1
 1131 614 l 1,873,-1
 1378 614 l 1,874,-1
 1624 614 l 1,875,-1
 1624 703 l 1,876,-1
 1624 791 l 1,877,-1
 1379 791 l 1,878,-1
 1133 791 l 1,879,-1
 1132 798 l 2,880,881
 1131 806 1131 806 1123.5 807 c 128,-1,882
 1116 808 1116 808 1115 817 c 256,862,863
1712 817 m 256,883,884
 1711 826 1711 826 1703 826 c 128,-1,885
 1695 826 1695 826 1695 816 c 128,-1,886
 1695 806 1695 806 1703.5 806 c 128,-1,887
 1712 806 1712 806 1712 797.5 c 128,-1,888
 1712 789 1712 789 1720 789 c 2,889,-1
 1728 789 l 1,890,-1
 1728 702 l 1,891,-1
 1728 614 l 1,892,-1
 1939 614 l 1,893,-1
 2150 614 l 1,894,-1
 2150 703 l 1,895,-1
 2150 791 l 1,896,-1
 1939 790 l 1,897,-1
 1728 789 l 1,898,-1
 1728 797 l 2,899,900
 1728 806 1728 806 1721 807 c 0,901,902
 1713 808 1713 808 1712 817 c 256,883,884
-70 809.5 m 128,-1,904
 -70 813 -70 813 -74 813 c 0,905,906
 -77 813 -77 813 -75 810 c 0,907,908
 -73 806 -73 806 -72 806 c 0,909,903
 -70 806 -70 806 -70 809.5 c 128,-1,904
-1117 797 m 2,910,911
 -1117 811 -1117 811 -1129 807 c 0,912,913
 -1134 805 -1134 805 -1134 798 c 0,914,915
 -1134 790 -1134 790 -1126 789 c 2,916,-1
 -1118 788 l 1,917,-1
 -1117 701 l 1,918,-1
 -1117 614 l 1,919,-1
 -870 614 l 1,920,-1
 -624 614 l 1,921,-1
 -624 703 l 1,922,-1
 -624 791 l 1,923,-1
 -870 790 l 1,924,-1
 -1117 789 l 1,925,-1
 -1117 797 l 2,910,911
-820 537 m 0,926,927
 -820 543 -820 543 -828 543 c 128,-1,928
 -836 543 -836 543 -836 534.5 c 128,-1,929
 -836 526 -836 526 -828 526 c 128,-1,930
 -820 526 -820 526 -820 517.5 c 128,-1,931
 -820 509 -820 509 -810 509 c 2,932,-1
 -799 509 l 1,933,-1
 -799 422 l 1,934,-1
 -799 334 l 1,935,-1
 -553 334 l 1,936,-1
 -307 334 l 1,937,-1
 -307 423 l 1,938,-1
 -307 511 l 1,939,-1
 -552 511 l 1,940,-1
 -798 511 l 1,941,-1
 -797 519 l 2,942,943
 -797 526 -797 526 -803 526 c 0,944,945
 -820 526 -820 526 -820 537 c 0,926,927
-287 538 m 0,946,947
 -286 543 -286 543 -287 543 c 0,948,949
 -292 539 -292 539 -287 529 c 1,950,951
 -289 534 -289 534 -287 538 c 0,946,947
-274 535 m 2,952,-1
 -278 539 l 1,953,954
 -272 536 -272 536 -274 535 c 2,952,-1
-218 536 m 256,955,956
 -219 544 -219 544 -227.5 543.5 c 128,-1,957
 -236 543 -236 543 -236 534.5 c 128,-1,958
 -236 526 -236 526 -227.5 526 c 128,-1,959
 -219 526 -219 526 -219 517.5 c 128,-1,960
 -219 509 -219 509 -210 509 c 2,961,-1
 -202 509 l 1,962,-1
 -202 422 l 1,963,-1
 -202 334 l 1,964,-1
 9 334 l 1,965,-1
 220 334 l 1,966,-1
 220 422 l 1,967,-1
 220 509 l 1,968,-1
 10 510 l 1,969,-1
 -200 511 l 1,970,-1
 -201 518 l 2,971,972
 -202 526 -202 526 -209.5 527 c 128,-1,973
 -217 528 -217 528 -218 536 c 256,955,956
308 536 m 256,974,975
 307 544 307 544 299 543.5 c 128,-1,976
 291 543 291 543 291 534.5 c 128,-1,977
 291 526 291 526 299.5 526 c 128,-1,978
 308 526 308 526 308 517.5 c 128,-1,979
 308 509 308 509 318 509 c 128,-1,980
 328 509 328 509 328 517.5 c 128,-1,981
 328 526 328 526 319 527 c 0,982,983
 309 528 309 528 308 536 c 256,974,975
854 542 m 1,984,985
 854 540 854 540 849 538 c 1,986,-1
 846 540 l 1,987,-1
 854 542 l 1,984,985
908 536.5 m 128,-1,989
 908 543 908 543 900 543 c 128,-1,990
 892 543 892 543 892 534.5 c 128,-1,991
 892 526 892 526 900 526 c 128,-1,992
 908 526 908 526 908 517.5 c 128,-1,993
 908 509 908 509 917 509 c 2,994,-1
 925 509 l 1,995,-1
 925 422 l 1,996,-1
 925 334 l 1,997,-1
 1133 334 l 1,998,-1
 1340 334 l 1,999,-1
 1340 423 l 1,1000,-1
 1340 511 l 1,1001,-1
 1134 511 l 1,1002,-1
 927 511 l 1,1003,-1
 926 518 l 2,1004,1005
 925 526 925 526 916 527 c 0,1006,988
 908 530 908 530 908 536.5 c 128,-1,989
1429 536 m 0,1007,1008
 1428 544 1428 544 1419.5 543.5 c 128,-1,1009
 1411 543 1411 543 1411 534.5 c 128,-1,1010
 1411 526 1411 526 1419.5 526 c 128,-1,1011
 1428 526 1428 526 1428 517.5 c 128,-1,1012
 1428 509 1428 509 1438 509 c 2,1013,-1
 1448 509 l 1,1014,-1
 1448 422 l 1,1015,-1
 1448 334 l 1,1016,-1
 1695 334 l 1,1017,-1
 1941 334 l 1,1018,-1
 1942 425 l 1,1019,-1
 1939 512 l 1,1020,1021
 1935 509 1935 509 1693 510 c 2,1022,-1
 1450 511 l 1,1023,-1
 1449 519 l 2,1024,1025
 1448 526 1448 526 1444 526 c 0,1026,1027
 1443 527 1443 527 1439.5 527 c 128,-1,1028
 1436 527 1436 527 1435 527 c 0,1029,1030
 1430 527 1430 527 1429 536 c 0,1007,1008
235 526 m 0,1031,1032
 239 529 239 529 239 522 c 2,1033,-1
 237 518 l 1,1034,1035
 235 521 235 521 226 521 c 0,1036,1037
 218 520 218 520 218 525 c 0,1038,1039
 218 529 218 529 224 526 c 0,1040,1041
 230 522 230 522 235 526 c 0,1031,1032
347 522 m 1,1042,-1
 345 524 l 1,1043,-1
 347 528 l 1,1044,1045
 349 526 349 526 347 522 c 1,1042,-1
-291 515 m 0,1046,1047
 -295 514 -295 514 -299 515 c 0,1048,1049
 -299 518 -299 518 -297.5 519.5 c 128,-1,1050
 -296 521 -296 521 -294 520 c 0,1051,1052
 -290 519 -290 519 -291 515 c 0,1046,1047
235 513 m 0,1053,1054
 237 509 237 509 234 509 c 0,1055,1056
 230 509 230 509 230 512.5 c 128,-1,1057
 230 516 230 516 231 516 c 0,1058,1059
 233 516 233 516 235 513 c 0,1053,1054
821 425 m 2,1060,1061
 822 449 822 449 822 470.5 c 128,-1,1062
 822 492 822 492 822 504 c 128,-1,1063
 822 516 822 516 822 516 c 1,1064,1065
 821 516 821 516 819 513 c 0,1066,1067
 817 509 817 509 572 509 c 2,1068,-1
 328 509 l 1,1069,-1
 328 422 l 1,1070,-1
 328 334 l 1,1071,-1
 574 334 l 1,1072,-1
 820 334 l 1,1073,-1
 821 425 l 2,1060,1061
-1134 252 m 0,1074,1075
 -1134 263 -1134 263 -1144 263 c 128,-1,1076
 -1154 263 -1154 263 -1154 253 c 128,-1,1077
 -1154 243 -1154 243 -1144 243 c 128,-1,1078
 -1134 243 -1134 243 -1134 234.5 c 128,-1,1079
 -1134 226 -1134 226 -1125 226 c 2,1080,-1
 -1116 226 l 1,1081,-1
 -1117 138 l 1,1082,-1
 -1118 50 l 1,1083,-1
 -871 50 l 1,1084,-1
 -624 50 l 1,1085,-1
 -624 140 l 1,1086,-1
 -620 227 l 1,1087,1088
 -617 225 -617 225 -618 229 c 0,1089,1090
 -621 233 -621 233 -626 229 c 0,1091,1092
 -629 226 -629 226 -866.5 225.5 c 128,-1,1093
 -1104 225 -1104 225 -1112 228 c 0,1094,1095
 -1117 230 -1117 230 -1117 237.5 c 128,-1,1096
 -1117 245 -1117 245 -1125 243 c 0,1097,1098
 -1131 242 -1131 242 -1132.5 243.5 c 128,-1,1099
 -1134 245 -1134 245 -1134 252 c 0,1074,1075
-535 254 m 0,1100,1101
 -534 263 -534 263 -543.5 263 c 128,-1,1102
 -553 263 -553 263 -553 253 c 128,-1,1103
 -553 243 -553 243 -545 242 c 0,1104,1105
 -538 241 -538 241 -537 234 c 0,1106,1107
 -535 226 -535 226 -527 226 c 2,1108,-1
 -519 226 l 1,1109,-1
 -519 138 l 1,1110,-1
 -519 50 l 1,1111,-1
 -308 50 l 1,1112,-1
 -98 50 l 1,1113,-1
 -97 141 l 1,1114,-1
 -99 229 l 1,1115,1116
 -103 226 -103 226 -311 226 c 2,1117,-1
 -519 226 l 1,1118,-1
 -519 236 l 2,1119,1120
 -519 246 -519 246 -522 246 c 0,1121,1122
 -537 243 -537 243 -535 254 c 0,1100,1101
-5 260 m 1,1123,-1
 -14 263 l 2,1124,1125
 -26 263 -26 263 -26 253 c 128,-1,1126
 -26 243 -26 243 -16 243 c 128,-1,1127
 -6 243 -6 243 -6 234.5 c 128,-1,1128
 -6 226 -6 226 2 226 c 2,1129,-1
 11 226 l 1,1130,-1
 11 138 l 1,1131,-1
 11 50 l 1,1132,-1
 257 50 l 1,1133,-1
 503 50 l 1,1134,-1
 504 141 l 1,1135,-1
 501 229 l 1,1136,1137
 497 226 497 226 255 226 c 2,1138,-1
 12 227 l 1,1139,-1
 11 237 l 2,1140,1141
 11 243 11 243 9.5 244.5 c 128,-1,1142
 8 246 8 246 4 244 c 0,1143,1144
 -1 243 -1 243 -4.5 248.5 c 128,-1,1145
 -8 254 -8 254 -5 260 c 1,1123,-1
591 254 m 256,1146,1147
 591 263 591 263 582.5 263 c 128,-1,1148
 574 263 574 263 574 253 c 128,-1,1149
 574 243 574 243 582.5 243 c 128,-1,1150
 591 243 591 243 591 234.5 c 128,-1,1151
 591 226 591 226 600 226 c 2,1152,-1
 608 226 l 1,1153,-1
 608 138 l 1,1154,-1
 608 50 l 1,1155,-1
 819 50 l 1,1156,-1
 1030 50 l 1,1157,-1
 1030 139 l 1,1158,-1
 1030 227 l 1,1159,-1
 820 227 l 1,1160,-1
 610 227 l 1,1161,-1
 608 236 l 2,1162,1163
 606 244 606 244 602 245 c 0,1164,1165
 591 245 591 245 591 254 c 256,1146,1147
1116 254 m 0,1166,1167
 1116 263 1116 263 1105 263 c 128,-1,1168
 1094 263 1094 263 1094 253 c 128,-1,1169
 1094 243 1094 243 1104 243 c 128,-1,1170
 1114 243 1114 243 1114 234.5 c 128,-1,1171
 1114 226 1114 226 1123 226 c 2,1172,-1
 1131 226 l 1,1173,-1
 1130 138 l 1,1174,-1
 1129 50 l 1,1175,-1
 1377 50 l 1,1176,-1
 1624 50 l 1,1177,-1
 1624 139 l 2,1178,1179
 1624 228 1624 228 1628 232 c 1,1180,1181
 1619 226 1619 226 1376 227 c 2,1182,-1
 1133 227 l 1,1183,-1
 1131 236 l 2,1184,1185
 1130 244 1130 244 1123 244 c 128,-1,1186
 1116 244 1116 244 1116 254 c 0,1166,1167
1713 254 m 0,1187,1188
 1714 263 1714 263 1704.5 263 c 128,-1,1189
 1695 263 1695 263 1695 253 c 128,-1,1190
 1695 243 1695 243 1703.5 243 c 128,-1,1191
 1712 243 1712 243 1712 234.5 c 128,-1,1192
 1712 226 1712 226 1720 226 c 2,1193,-1
 1728 226 l 1,1194,-1
 1728 138 l 1,1195,-1
 1728 50 l 1,1196,-1
 1939 50 l 1,1197,-1
 2150 50 l 1,1198,-1
 2151 141 l 2,1199,1200
 2152 232 2152 232 2149 229 c 256,1201,1202
 2146 226 2146 226 1937 226 c 2,1203,-1
 1728 226 l 1,1204,-1
 1728 234 l 2,1205,1206
 1728 242 1728 242 1720 244 c 0,1207,1208
 1711 246 1711 246 1713 254 c 0,1187,1188
-64 255 m 0,1209,1210
 -64 253 -64 253 -67 251 c 256,1211,1212
 -70 249 -70 249 -70 252 c 0,1213,1214
 -70 256 -70 256 -67 256 c 128,-1,1215
 -64 256 -64 256 -64 255 c 0,1209,1210
1058 250 m 1,1216,-1
 1059 252 l 1,1217,1218
 1055 252 1055 252 1051 250 c 0,1219,1220
 1047 247 1047 247 1052 245 c 1,1221,1222
 1053 249 1053 249 1058 250 c 1,1216,-1
-605 246 m 1,1223,1224
 -607 243 -607 243 -611 243 c 1,1225,-1
 -610 246 l 1,1226,-1
 -605 246 l 1,1223,1224
518 241 m 1,1227,-1
 515 237 l 1,1228,1229
 513 239 513 239 515 242 c 2,1230,-1
 518 241 l 1,1227,-1
23 232 m 1,1231,-1
 21 236 l 1,1232,-1
 23 240 l 1,1233,1234
 24 236 24 236 23 232 c 1,1231,-1
1038 236 m 0,1235,1236
 1040 232 1040 232 1037 232 c 0,1237,1238
 1033 232 1033 232 1033 235.5 c 128,-1,1239
 1033 239 1033 239 1035 239 c 256,1240,1241
 1037 239 1037 239 1038 236 c 0,1235,1236
1047 228 m 1,1242,-1
 1049 234 l 1,1243,1244
 1051 232 1051 232 1047 228 c 1,1242,-1
1123 54 m 1,1245,1246
 1121 57 1121 57 1117 57 c 1,1247,-1
 1123 54 l 1,1245,1246
-815 -23 m 1,1248,-1
 -824 -21 l 2,1249,1250
 -836 -21 -836 -21 -836 -29.5 c 128,-1,1251
 -836 -38 -836 -38 -828 -38 c 128,-1,1252
 -820 -38 -820 -38 -820 -46 c 128,-1,1253
 -820 -54 -820 -54 -810 -54 c 2,1254,-1
 -799 -54 l 1,1255,-1
 -799 -142 l 1,1256,-1
 -799 -230 l 1,1257,-1
 -553 -230 l 1,1258,-1
 -307 -230 l 1,1259,-1
 -307 -141 l 1,1260,-1
 -307 -53 l 1,1261,-1
 -545 -54 l 2,1262,1263
 -785 -54 -785 -54 -792 -53 c 0,1264,1265
 -799 -51 -799 -51 -799 -44.5 c 128,-1,1266
 -799 -38 -799 -38 -809.5 -38 c 128,-1,1267
 -820 -38 -820 -38 -820 -31 c 256,1268,1269
 -820 -24 -820 -24 -815 -23 c 1,1248,-1
-218 -29 m 0,1270,1271
 -216 -21 -216 -21 -226 -21 c 128,-1,1272
 -236 -21 -236 -21 -236 -29.5 c 128,-1,1273
 -236 -38 -236 -38 -227.5 -38 c 128,-1,1274
 -219 -38 -219 -38 -219 -46 c 128,-1,1275
 -219 -54 -219 -54 -210 -54 c 2,1276,-1
 -202 -54 l 1,1277,-1
 -202 -142 l 1,1278,-1
 -202 -230 l 1,1279,-1
 9 -230 l 1,1280,-1
 220 -230 l 1,1281,-1
 220 -142 l 1,1282,-1
 220 -54 l 1,1283,-1
 10 -54 l 1,1284,-1
 -200 -53 l 1,1285,-1
 -201 -45 l 2,1286,1287
 -203 -38 -203 -38 -211 -38 c 0,1288,1289
 -220 -38 -220 -38 -218 -29 c 0,1270,1271
314 -23 m 1,1290,-1
 305 -21 l 2,1291,1292
 291 -21 291 -21 291 -29.5 c 128,-1,1293
 291 -38 291 -38 299.5 -38 c 128,-1,1294
 308 -38 308 -38 308 -31 c 256,1295,1296
 308 -24 308 -24 314 -23 c 1,1290,-1
913 -23 m 1,1297,-1
 904 -21 l 2,1298,1299
 892 -21 892 -21 892 -29.5 c 128,-1,1300
 892 -38 892 -38 900 -38 c 128,-1,1301
 908 -38 908 -38 908 -46 c 128,-1,1302
 908 -54 908 -54 917 -54 c 2,1303,-1
 926 -54 l 1,1304,-1
 925 -142 l 1,1305,-1
 924 -230 l 1,1306,-1
 1132 -230 l 1,1307,-1
 1340 -230 l 1,1308,-1
 1340 -141 l 1,1309,-1
 1340 -53 l 1,1310,-1
 1141 -54 l 2,1311,1312
 940 -54 940 -54 933 -53 c 0,1313,1314
 925 -51 925 -51 925 -44.5 c 128,-1,1315
 925 -38 925 -38 916.5 -38 c 128,-1,1316
 908 -38 908 -38 908 -31 c 256,1317,1318
 908 -24 908 -24 913 -23 c 1,1297,-1
1429 -29 m 0,1319,1320
 1431 -21 1431 -21 1421 -21 c 128,-1,1321
 1411 -21 1411 -21 1411 -29.5 c 128,-1,1322
 1411 -38 1411 -38 1419.5 -38 c 128,-1,1323
 1428 -38 1428 -38 1428 -46 c 128,-1,1324
 1428 -54 1428 -54 1438 -54 c 2,1325,-1
 1448 -54 l 1,1326,-1
 1448 -142 l 1,1327,-1
 1448 -230 l 1,1328,-1
 1695 -230 l 1,1329,-1
 1941 -230 l 1,1330,-1
 1942 -139 l 1,1331,-1
 1939 -51 l 1,1332,1333
 1935 -54 1935 -54 1692 -54 c 2,1334,-1
 1448 -54 l 1,1335,-1
 1449 -46 l 2,1336,1337
 1450 -40 1450 -40 1448.5 -39 c 128,-1,1338
 1447 -38 1447 -38 1439 -38 c 256,1339,1340
 1431 -38 1431 -38 1429.5 -36.5 c 128,-1,1341
 1428 -35 1428 -35 1429 -29 c 0,1319,1320
2029 -29.5 m 128,-1,1343
 2029 -21 2029 -21 2020.5 -21 c 128,-1,1344
 2012 -21 2012 -21 2012 -29.5 c 128,-1,1345
 2012 -38 2012 -38 2020.5 -38 c 128,-1,1342
 2029 -38 2029 -38 2029 -29.5 c 128,-1,1343
-882 -31 m 1,1346,-1
 -886 -32 l 1,1347,-1
 -887 -27 l 1,1348,1349
 -884 -27 -884 -27 -882 -31 c 1,1346,-1
-872 -33 m 1,1350,-1
 -874 -36 l 1,1351,1352
 -877 -34 -877 -34 -877 -30 c 1,1353,-1
 -872 -33 l 1,1350,-1
328 -46 m 2,1354,1355
 328 -33 328 -33 314 -37 c 0,1356,1357
 308 -38 308 -38 308 -46 c 128,-1,1358
 308 -54 308 -54 317 -55 c 2,1359,-1
 326 -56 l 1,1360,-1
 327 -143 l 1,1361,-1
 328 -230 l 1,1362,-1
 574 -230 l 1,1363,-1
 821 -230 l 1,1364,-1
 821 -141 l 2,1365,1366
 821 -51 821 -51 825 -50 c 0,1367,1368
 830 -48 830 -48 825 -48 c 0,1369,1370
 821 -47 821 -47 819 -51 c 0,1371,1372
 817 -54 817 -54 572 -54 c 2,1373,-1
 328 -54 l 1,1374,-1
 328 -46 l 2,1354,1355
-908 -43 m 1,1375,1376
 -911 -45 -911 -45 -915 -43 c 1,1377,-1
 -913 -41 l 1,1378,-1
 -908 -43 l 1,1375,1376
236 -44 m 0,1379,1380
 240 -47 240 -47 230 -47 c 128,-1,1381
 220 -47 220 -47 224 -44 c 0,1382,1383
 229 -41 229 -41 230 -41 c 128,-1,1384
 231 -41 231 -41 236 -44 c 0,1379,1380
820 -43 m 1,1385,1386
 817 -45 817 -45 813 -43 c 1,1387,-1
 815 -41 l 1,1388,-1
 820 -43 l 1,1385,1386
-1134 -304 m 128,-1,1390
 -1134 -294 -1134 -294 -1144 -294 c 128,-1,1391
 -1154 -294 -1154 -294 -1154 -304 c 128,-1,1392
 -1154 -314 -1154 -314 -1144 -314 c 128,-1,1389
 -1134 -314 -1134 -314 -1134 -304 c 128,-1,1390
-535 -303 m 0,1393,1394
 -537 -294 -537 -294 -545 -294 c 128,-1,1395
 -553 -294 -553 -294 -553 -304 c 128,-1,1396
 -553 -314 -553 -314 -544.5 -314 c 128,-1,1397
 -536 -314 -536 -314 -536 -322.5 c 128,-1,1398
 -536 -331 -536 -331 -528 -331 c 2,1399,-1
 -519 -331 l 1,1400,-1
 -519 -419 l 1,1401,-1
 -519 -507 l 1,1402,-1
 -308 -507 l 1,1403,-1
 -97 -507 l 1,1404,-1
 -97 -418 l 1,1405,-1
 -97 -329 l 1,1406,-1
 -307 -329 l 1,1407,-1
 -518 -329 l 1,1408,-1
 -519 -322 l 2,1409,1410
 -520 -315 -520 -315 -527 -314 c 128,-1,1411
 -534 -313 -534 -313 -535 -303 c 0,1393,1394
-5.5 -304 m 128,-1,1413
 -4 -294 -4 -294 -15 -294 c 128,-1,1414
 -26 -294 -26 -294 -26 -304 c 128,-1,1415
 -26 -314 -26 -314 -17 -315 c 256,1416,1417
 -8 -316 -8 -316 -7 -323 c 0,1418,1419
 -6 -331 -6 -331 3 -332 c 2,1420,-1
 11 -334 l 1,1421,-1
 11 -421 l 1,1422,-1
 11 -507 l 1,1423,-1
 257 -507 l 1,1424,-1
 503 -507 l 1,1425,-1
 503 -418 l 1,1426,-1
 503 -329 l 1,1427,-1
 257 -330 l 1,1428,-1
 11 -331 l 1,1429,-1
 11 -323 l 2,1430,1431
 11 -314 11 -314 2 -314 c 128,-1,1412
 -7 -314 -7 -314 -5.5 -304 c 128,-1,1413
523 -303 m 1,1432,-1
 520 -307 l 1,1433,1434
 517 -304 517 -304 519 -298 c 1,1435,-1
 523 -303 l 1,1432,-1
536 -302 m 2,1436,-1
 532 -298 l 1,1437,1438
 538 -301 538 -301 536 -302 c 2,1436,-1
592 -303 m 0,1439,1440
 591 -294 591 -294 582.5 -294 c 128,-1,1441
 574 -294 574 -294 574 -304 c 128,-1,1442
 574 -314 574 -314 582.5 -314 c 128,-1,1443
 591 -314 591 -314 591 -322.5 c 128,-1,1444
 591 -331 591 -331 599.5 -331 c 128,-1,1445
 608 -331 608 -331 608.5 -323 c 128,-1,1446
 609 -315 609 -315 601 -314 c 256,1447,1448
 593 -313 593 -313 592 -303 c 0,1439,1440
1060 -302 m 1,1449,-1
 1056 -298 l 1,1450,1451
 1061 -301 1061 -301 1060 -302 c 1,1449,-1
1116 -303 m 0,1452,1453
 1116 -294 1116 -294 1105 -294 c 128,-1,1454
 1094 -294 1094 -294 1094 -304 c 128,-1,1455
 1094 -314 1094 -314 1104 -314 c 128,-1,1456
 1114 -314 1114 -314 1114 -325 c 2,1457,-1
 1117 -333 l 1,1458,1459
 1120 -331 1120 -331 1126 -333 c 0,1460,1461
 1131 -335 1131 -335 1131 -421 c 2,1462,-1
 1131 -507 l 1,1463,-1
 1378 -507 l 1,1464,-1
 1624 -507 l 1,1465,-1
 1625 -416 l 2,1466,1467
 1626 -325 1626 -325 1622 -328 c 0,1468,1469
 1620 -330 1620 -330 1497.5 -331 c 128,-1,1470
 1375 -332 1375 -332 1253 -331 c 128,-1,1471
 1131 -330 1131 -330 1131 -328 c 0,1472,1473
 1134 -315 1134 -315 1124 -314 c 0,1474,1475
 1116 -313 1116 -313 1116 -303 c 0,1452,1453
1712 -303 m 0,1476,1477
 1711 -294 1711 -294 1703 -294 c 128,-1,1478
 1695 -294 1695 -294 1695 -304 c 128,-1,1479
 1695 -314 1695 -314 1703.5 -314 c 128,-1,1480
 1712 -314 1712 -314 1712 -322.5 c 128,-1,1481
 1712 -331 1712 -331 1720 -331 c 2,1482,-1
 1728 -331 l 1,1483,-1
 1728 -419 l 1,1484,-1
 1728 -507 l 1,1485,-1
 1939 -507 l 1,1486,-1
 2150 -507 l 1,1487,-1
 2150 -418 l 1,1488,-1
 2150 -329 l 1,1489,-1
 1939 -330 l 1,1490,-1
 1728 -331 l 1,1491,-1
 1728 -323 l 2,1492,1493
 1728 -315 1728 -315 1721 -314 c 0,1494,1495
 1713 -313 1713 -313 1712 -303 c 0,1476,1477
534 -311 m 128,-1,1497
 534 -314 534 -314 530 -314 c 0,1498,1499
 527 -314 527 -314 529 -311 c 0,1500,1501
 530 -308 530 -308 532 -308 c 256,1502,1496
 534 -308 534 -308 534 -311 c 128,-1,1497
1639 -311 m 1,1503,-1
 1636 -312 l 1,1504,-1
 1634 -308 l 1,1505,1506
 1637 -308 1637 -308 1639 -311 c 1,1503,-1
-1116 -322 m 2,1507,1508
 -1117 -314 -1117 -314 -1125 -314 c 0,1509,1510
 -1134 -314 -1134 -314 -1134 -322.5 c 128,-1,1511
 -1134 -331 -1134 -331 -1126 -332 c 2,1512,-1
 -1118 -333 l 1,1513,-1
 -1117 -420 l 1,1514,-1
 -1117 -507 l 1,1515,-1
 -870 -507 l 1,1516,-1
 -624 -507 l 1,1517,-1
 -624 -418 l 2,1518,1519
 -624 -329 -624 -329 -619 -324 c 1,1520,-1
 -623 -325 l 1,1521,1522
 -629 -331 -629 -331 -872 -330 c 2,1523,-1
 -1115 -329 l 1,1524,-1
 -1116 -322 l 2,1507,1508
516 -316 m 1,1525,1526
 514 -318 514 -318 509 -317 c 1,1527,-1
 511 -315 l 1,1528,-1
 516 -316 l 1,1525,1526
1030 -419 m 1,1529,-1
 1030 -331 l 1,1530,-1
 819 -331 l 1,1531,-1
 608 -331 l 1,1532,-1
 608 -419 l 1,1533,-1
 608 -507 l 1,1534,-1
 819 -507 l 1,1535,-1
 1030 -507 l 1,1536,-1
 1030 -419 l 1,1529,-1
-819 -587 m 0,1537,1538
 -817 -578 -817 -578 -826.5 -578 c 128,-1,1539
 -836 -578 -836 -578 -836 -586 c 128,-1,1540
 -836 -594 -836 -594 -828 -594 c 128,-1,1541
 -820 -594 -820 -594 -820 -602.5 c 128,-1,1542
 -820 -611 -820 -611 -810 -611 c 2,1543,-1
 -799 -611 l 1,1544,-1
 -799 -699 l 1,1545,-1
 -799 -787 l 1,1546,-1
 -553 -787 l 1,1547,-1
 -307 -787 l 1,1548,-1
 -306 -696 l 1,1549,-1
 -309 -608 l 1,1550,1551
 -313 -611 -313 -611 -555 -611 c 2,1552,-1
 -798 -610 l 1,1553,-1
 -799 -600 l 2,1554,1555
 -800 -591 -800 -591 -810 -593 c 0,1556,1557
 -818 -595 -818 -595 -819 -594 c 128,-1,1558
 -820 -593 -820 -593 -819 -587 c 0,1537,1538
-219 -584 m 0,1559,1560
 -219 -578 -219 -578 -227.5 -578 c 128,-1,1561
 -236 -578 -236 -578 -236 -586 c 128,-1,1562
 -236 -594 -236 -594 -227.5 -594 c 128,-1,1563
 -219 -594 -219 -594 -219 -602.5 c 128,-1,1564
 -219 -611 -219 -611 -210 -611 c 2,1565,-1
 -202 -611 l 1,1566,-1
 -202 -699 l 1,1567,-1
 -202 -787 l 1,1568,-1
 9 -787 l 1,1569,-1
 220 -787 l 1,1570,-1
 220 -698 l 1,1571,-1
 220 -610 l 1,1572,-1
 10 -610 l 1,1573,-1
 -200 -610 l 1,1574,-1
 -202 -601 l 2,1575,1576
 -204 -593 -204 -593 -208 -592 c 0,1577,1578
 -219 -592 -219 -592 -219 -584 c 0,1559,1560
308 -584 m 0,1579,1580
 308 -578 308 -578 299.5 -578 c 128,-1,1581
 291 -578 291 -578 291 -586 c 128,-1,1582
 291 -594 291 -594 299.5 -594 c 128,-1,1583
 308 -594 308 -594 308 -602.5 c 128,-1,1584
 308 -611 308 -611 318 -611 c 2,1585,-1
 328 -611 l 1,1586,-1
 328 -699 l 1,1587,-1
 328 -787 l 1,1588,-1
 574 -787 l 1,1589,-1
 820 -787 l 1,1590,-1
 821 -696 l 1,1591,-1
 819 -608 l 1,1592,1593
 815 -611 815 -611 572 -610 c 2,1594,-1
 330 -610 l 1,1595,-1
 329 -600 l 1,1596,-1
 324 -593 l 1,1597,1598
 320 -595 320 -595 314 -592 c 128,-1,1599
 308 -589 308 -589 308 -584 c 0,1579,1580
909 -586 m 0,1600,1601
 911 -578 911 -578 901.5 -578 c 128,-1,1602
 892 -578 892 -578 892 -586 c 128,-1,1603
 892 -594 892 -594 900 -594 c 128,-1,1604
 908 -594 908 -594 909 -586 c 0,1600,1601
1429 -585 m 0,1605,1606
 1428 -576 1428 -576 1419.5 -576.5 c 128,-1,1607
 1411 -577 1411 -577 1411 -585.5 c 128,-1,1608
 1411 -594 1411 -594 1419.5 -594 c 128,-1,1609
 1428 -594 1428 -594 1428 -602.5 c 128,-1,1610
 1428 -611 1428 -611 1438 -611 c 2,1611,-1
 1448 -611 l 1,1612,-1
 1448 -699 l 1,1613,-1
 1448 -787 l 1,1614,-1
 1695 -787 l 1,1615,-1
 1941 -787 l 1,1616,-1
 1941 -697 l 1,1617,-1
 1945 -610 l 1,1618,1619
 1948 -612 1948 -612 1947 -608 c 0,1620,1621
 1944 -604 1944 -604 1939 -608 c 0,1622,1623
 1936 -611 1936 -611 1698.5 -611.5 c 128,-1,1624
 1461 -612 1461 -612 1453 -609 c 0,1625,1626
 1448 -607 1448 -607 1448 -600 c 0,1627,1628
 1448 -592 1448 -592 1439 -593 c 0,1629,1630
 1430 -593 1430 -593 1429 -585 c 0,1605,1606
2029 -584 m 0,1631,1632
 2029 -578 2029 -578 2020 -578 c 0,1633,1634
 2012 -578 2012 -578 2011.5 -586 c 128,-1,1635
 2011 -594 2011 -594 2020 -595 c 0,1636,1637
 2027 -596 2027 -596 2028 -603 c 0,1638,1639
 2030 -611 2030 -611 2038 -611 c 128,-1,1640
 2046 -611 2046 -611 2046 -601 c 256,1641,1642
 2046 -591 2046 -591 2043 -591 c 0,1643,1644
 2029 -593 2029 -593 2029 -584 c 0,1631,1632
-874 -582 m 0,1645,1646
 -874 -584 -874 -584 -877 -586 c 256,1647,1648
 -880 -588 -880 -588 -880 -585 c 0,1649,1650
 -880 -581 -880 -581 -877 -581 c 128,-1,1651
 -874 -581 -874 -581 -874 -582 c 0,1645,1646
846 -584 m 0,1652,1653
 848 -588 848 -588 845 -588 c 0,1654,1655
 841 -588 841 -588 841 -584.5 c 128,-1,1656
 841 -581 841 -581 842 -581 c 0,1657,1658
 844 -581 844 -581 846 -584 c 0,1652,1653
1960 -591 m 1,1659,1660
 1958 -594 1958 -594 1954 -594 c 1,1661,-1
 1955 -591 l 1,1662,-1
 1960 -591 l 1,1659,1660
-292 -596 m 1,1663,-1
 -295 -600 l 1,1664,1665
 -297 -598 -297 -598 -295 -595 c 2,1666,-1
 -292 -596 l 1,1663,-1
926 -600 m 2,1667,1668
 925 -591 925 -591 923 -591 c 0,1669,1670
 908 -594 908 -594 908 -603 c 0,1671,1672
 908 -611 908 -611 917 -611 c 2,1673,-1
 925 -611 l 1,1674,-1
 925 -699 l 1,1675,-1
 925 -787 l 1,1676,-1
 1133 -787 l 1,1677,-1
 1340 -787 l 1,1678,-1
 1341 -696 l 1,1679,-1
 1338 -608 l 1,1680,1681
 1335 -611 1335 -611 1131 -611 c 2,1682,-1
 927 -610 l 1,1683,-1
 926 -600 l 2,1667,1668
-787 -605 m 1,1684,-1
 -789 -601 l 1,1685,-1
 -787 -597 l 1,1686,1687
 -786 -601 -786 -601 -787 -605 c 1,1684,-1
228 -601 m 0,1688,1689
 230 -604 230 -604 227 -604 c 0,1690,1691
 223 -604 223 -604 223 -601 c 128,-1,1692
 223 -598 223 -598 225 -598 c 256,1693,1694
 227 -598 227 -598 228 -601 c 0,1688,1689
237 -609 m 1,1695,-1
 239 -603 l 1,1696,1697
 241 -605 241 -605 237 -609 c 1,1695,-1
-1134 -868 m 128,-1,1699
 -1134 -858 -1134 -858 -1144 -858 c 128,-1,1700
 -1154 -858 -1154 -858 -1154 -868 c 128,-1,1701
 -1154 -878 -1154 -878 -1144 -878 c 128,-1,1698
 -1134 -878 -1134 -878 -1134 -868 c 128,-1,1699
-535 -867 m 0,1702,1703
 -537 -858 -537 -858 -545 -858 c 128,-1,1704
 -553 -858 -553 -858 -553 -868 c 128,-1,1705
 -553 -878 -553 -878 -544.5 -878 c 128,-1,1706
 -536 -878 -536 -878 -536 -886.5 c 128,-1,1707
 -536 -895 -536 -895 -528 -895 c 2,1708,-1
 -519 -895 l 1,1709,-1
 -519 -982 l 1,1710,-1
 -519 -1070 l 1,1711,-1
 -308 -1070 l 1,1712,-1
 -98 -1070 l 1,1713,-1
 -97 -979 l 1,1714,-1
 -99 -892 l 1,1715,1716
 -104 -895 -104 -895 -310 -894 c 2,1717,-1
 -518 -893 l 1,1718,-1
 -519 -885 l 2,1719,1720
 -521 -876 -521 -876 -528 -876 c 128,-1,1721
 -535 -876 -535 -876 -535 -867 c 0,1702,1703
-4 -867 m 0,1722,1723
 -4 -858 -4 -858 -15 -858 c 256,1724,1725
 -26 -858 -26 -858 -26 -868 c 128,-1,1726
 -26 -878 -26 -878 -16 -878 c 128,-1,1727
 -6 -878 -6 -878 -6 -886.5 c 128,-1,1728
 -6 -895 -6 -895 2 -895 c 2,1729,-1
 11 -895 l 1,1730,-1
 11 -981 l 1,1731,-1
 10 -1069 l 1,1732,-1
 257 -1070 l 1,1733,-1
 503 -1070 l 1,1734,-1
 503 -982 l 1,1735,-1
 503 -893 l 1,1736,-1
 258 -893 l 2,1737,1738
 12 -893 12 -893 12 -886 c 128,-1,1739
 12 -879 12 -879 4 -878 c 0,1740,1741
 -5 -876 -5 -876 -4 -867 c 0,1722,1723
593 -867 m 256,1742,1743
 593 -858 593 -858 583.5 -858 c 128,-1,1744
 574 -858 574 -858 574 -868 c 128,-1,1745
 574 -878 574 -878 582.5 -878 c 128,-1,1746
 591 -878 591 -878 591 -886.5 c 128,-1,1747
 591 -895 591 -895 600 -895 c 2,1748,-1
 608 -895 l 1,1749,-1
 608 -982 l 1,1750,-1
 608 -1070 l 1,1751,-1
 819 -1070 l 1,1752,-1
 1030 -1070 l 1,1753,-1
 1030 -982 l 1,1754,-1
 1030 -895 l 1,1755,-1
 820 -894 l 1,1756,-1
 610 -893 l 1,1757,-1
 609 -886 l 2,1758,1759
 608 -878 608 -878 600.5 -877 c 128,-1,1760
 593 -876 593 -876 593 -867 c 256,1742,1743
1116 -867.5 m 128,-1,1762
 1116 -876 1116 -876 1105 -877 c 256,1763,1764
 1094 -878 1094 -878 1094 -867.5 c 128,-1,1765
 1094 -857 1094 -857 1105 -858 c 256,1766,1761
 1116 -859 1116 -859 1116 -867.5 c 128,-1,1762
1656 -864 m 256,1767,1768
 1654 -866 1654 -866 1650 -861 c 1,1769,1770
 1658 -862 1658 -862 1656 -864 c 256,1767,1768
1717 -860 m 1,1771,-1
 1709 -858 l 2,1772,1773
 1695 -858 1695 -858 1695 -868 c 128,-1,1774
 1695 -878 1695 -878 1703.5 -878 c 128,-1,1775
 1712 -878 1712 -878 1712 -886.5 c 128,-1,1776
 1712 -895 1712 -895 1720 -895 c 2,1777,-1
 1728 -895 l 1,1778,-1
 1728 -982 l 1,1779,-1
 1728 -1070 l 1,1780,-1
 1939 -1070 l 1,1781,-1
 2150 -1070 l 1,1782,-1
 2150 -981 l 1,1783,-1
 2150 -893 l 1,1784,-1
 1939 -894 l 1,1785,-1
 1728 -895 l 1,1786,-1
 1728 -887 l 2,1787,1788
 1728 -879 1728 -879 1721 -877 c 0,1789,1790
 1714 -876 1714 -876 1712.5 -869 c 128,-1,1791
 1711 -862 1711 -862 1717 -860 c 1,1771,-1
-71 -873 m 1,1792,-1
 -73 -874 l 1,1793,1794
 -75 -869 -75 -869 -78 -867 c 2,1795,-1
 -77 -865 l 1,1796,1797
 -72 -867 -72 -867 -71 -873 c 1,1792,-1
-62 -870 m 1,1798,-1
 -64 -873 l 1,1799,1800
 -67 -871 -67 -871 -67 -867 c 1,1801,-1
 -62 -870 l 1,1798,-1
-1116 -886 m 2,1802,1803
 -1117 -875 -1117 -875 -1125.5 -875.5 c 128,-1,1804
 -1134 -876 -1134 -876 -1134 -887 c 0,1805,1806
 -1134 -895 -1134 -895 -1125 -895 c 2,1807,-1
 -1116 -895 l 1,1808,-1
 -1117 -982 l 1,1809,-1
 -1118 -1070 l 1,1810,-1
 -871 -1070 l 1,1811,-1
 -624 -1070 l 1,1812,-1
 -623 -979 l 1,1813,-1
 -626 -892 l 1,1814,1815
 -630 -895 -630 -895 -872 -894 c 2,1816,-1
 -1115 -893 l 1,1817,-1
 -1116 -886 l 2,1802,1803
1045 -878 m 0,1818,1819
 1049 -875 1049 -875 1049 -882 c 2,1820,-1
 1047 -886 l 1,1821,1822
 1045 -883 1045 -883 1036 -883 c 0,1823,1824
 1028 -884 1028 -884 1028 -879 c 0,1825,1826
 1028 -875 1028 -875 1034 -878 c 0,1827,1828
 1040 -882 1040 -882 1045 -878 c 0,1818,1819
1637 -881 m 0,1829,1830
 1640 -887 1640 -887 1636 -887 c 256,1831,1832
 1632 -887 1632 -887 1632 -881 c 0,1833,1834
 1632 -874 1632 -874 1633 -874 c 128,-1,1835
 1634 -874 1634 -874 1637 -881 c 0,1829,1830
1132 -885 m 2,1836,1837
 1131 -877 1131 -877 1122.5 -877.5 c 128,-1,1838
 1114 -878 1114 -878 1114 -886.5 c 128,-1,1839
 1114 -895 1114 -895 1123 -895 c 2,1840,-1
 1131 -895 l 1,1841,-1
 1131 -982 l 1,1842,-1
 1131 -1070 l 1,1843,-1
 1378 -1070 l 1,1844,-1
 1624 -1070 l 1,1845,-1
 1625 -979 l 1,1846,-1
 1622 -892 l 1,1847,1848
 1618 -895 1618 -895 1375 -894 c 2,1849,-1
 1133 -893 l 1,1850,-1
 1132 -885 l 2,1836,1837
1627 -881.5 m 128,-1,1852
 1627 -885 1627 -885 1624 -885 c 0,1853,1854
 1620 -885 1620 -885 1622 -881 c 0,1855,1856
 1624 -878 1624 -878 1626 -878 c 0,1857,1851
 1627 -878 1627 -878 1627 -881.5 c 128,-1,1852
519 -889 m 0,1858,1859
 515 -890 515 -890 511 -889 c 0,1860,1861
 511 -886 511 -886 512.5 -884.5 c 128,-1,1862
 514 -883 514 -883 516 -884 c 0,1863,1864
 520 -885 520 -885 519 -889 c 0,1858,1859
1045 -891 m 0,1865,1866
 1047 -895 1047 -895 1044 -895 c 0,1867,1868
 1040 -895 1040 -895 1040 -891.5 c 128,-1,1869
 1040 -888 1040 -888 1041 -888 c 0,1870,1871
 1043 -888 1043 -888 1045 -891 c 0,1865,1866
-817 -1149 m 0,1872,1873
 -816 -1141 -816 -1141 -826 -1141 c 128,-1,1874
 -836 -1141 -836 -1141 -836 -1149.5 c 128,-1,1875
 -836 -1158 -836 -1158 -828 -1158 c 128,-1,1876
 -820 -1158 -820 -1158 -820 -1166.5 c 128,-1,1877
 -820 -1175 -820 -1175 -810 -1175 c 2,1878,-1
 -799 -1175 l 1,1879,-1
 -799 -1263 l 1,1880,-1
 -799 -1350 l 1,1881,-1
 -553 -1350 l 1,1882,-1
 -307 -1350 l 1,1883,-1
 -307 -1262 l 1,1884,-1
 -307 -1173 l 1,1885,-1
 -552 -1173 l 1,1886,-1
 -798 -1173 l 1,1887,-1
 -799 -1165 l 2,1888,1889
 -801 -1156 -801 -1156 -810 -1156 c 0,1890,1891
 -818 -1156 -818 -1156 -817 -1149 c 0,1872,1873
-217 -1149.5 m 128,-1,1893
 -217 -1143 -217 -1143 -226 -1142 c 0,1894,1895
 -236 -1141 -236 -1141 -236 -1149.5 c 128,-1,1896
 -236 -1158 -236 -1158 -227.5 -1158 c 128,-1,1897
 -219 -1158 -219 -1158 -219 -1166 c 128,-1,1898
 -219 -1174 -219 -1174 -211 -1176 c 2,1899,-1
 -204 -1177 l 1,1900,-1
 -203 -1263 l 1,1901,-1
 -202 -1350 l 1,1902,-1
 9 -1350 l 1,1903,-1
 220 -1350 l 1,1904,-1
 220 -1262 l 1,1905,-1
 220 -1173 l 1,1906,-1
 9 -1174 l 1,1907,-1
 -202 -1175 l 1,1908,-1
 -202 -1166 l 2,1909,1910
 -202 -1158 -202 -1158 -209 -1157 c 0,1911,1892
 -217 -1156 -217 -1156 -217 -1149.5 c 128,-1,1893
310 -1149 m 0,1912,1913
 310 -1141 310 -1141 300.5 -1141 c 128,-1,1914
 291 -1141 291 -1141 291 -1149.5 c 128,-1,1915
 291 -1158 291 -1158 299.5 -1158 c 128,-1,1916
 308 -1158 308 -1158 308 -1166.5 c 128,-1,1917
 308 -1175 308 -1175 318 -1175 c 2,1918,-1
 328 -1175 l 1,1919,-1
 328 -1263 l 1,1920,-1
 328 -1350 l 1,1921,-1
 574 -1350 l 1,1922,-1
 821 -1350 l 1,1923,-1
 821 -1262 l 1,1924,-1
 821 -1173 l 1,1925,-1
 574 -1174 l 1,1926,-1
 328 -1175 l 1,1927,-1
 328 -1165 l 2,1928,1929
 328 -1156 328 -1156 319 -1156 c 0,1930,1931
 309 -1156 309 -1156 310 -1149 c 0,1912,1913
911 -1149 m 0,1932,1933
 912 -1141 912 -1141 902 -1141 c 128,-1,1934
 892 -1141 892 -1141 892 -1149.5 c 128,-1,1935
 892 -1158 892 -1158 900 -1158 c 128,-1,1936
 908 -1158 908 -1158 908 -1166.5 c 128,-1,1937
 908 -1175 908 -1175 917 -1175 c 2,1938,-1
 925 -1175 l 1,1939,-1
 925 -1263 l 1,1940,-1
 925 -1350 l 1,1941,-1
 1133 -1350 l 1,1942,-1
 1340 -1350 l 1,1943,-1
 1340 -1262 l 1,1944,-1
 1340 -1173 l 1,1945,-1
 1133 -1174 l 1,1946,-1
 925 -1175 l 1,1947,-1
 925 -1165 l 2,1948,1949
 925 -1156 925 -1156 918 -1156 c 0,1950,1951
 910 -1156 910 -1156 911 -1149 c 0,1932,1933
1430 -1149.5 m 128,-1,1953
 1430 -1143 1430 -1143 1421 -1142 c 0,1954,1955
 1411 -1141 1411 -1141 1411 -1149.5 c 128,-1,1956
 1411 -1158 1411 -1158 1419.5 -1158 c 128,-1,1957
 1428 -1158 1428 -1158 1428 -1166.5 c 128,-1,1958
 1428 -1175 1428 -1175 1438 -1175 c 2,1959,-1
 1448 -1175 l 1,1960,-1
 1448 -1263 l 1,1961,-1
 1448 -1350 l 1,1962,-1
 1695 -1350 l 1,1963,-1
 1941 -1350 l 1,1964,-1
 1941 -1262 l 1,1965,-1
 1941 -1173 l 1,1966,-1
 1695 -1173 l 1,1967,-1
 1450 -1173 l 1,1968,-1
 1449 -1166 l 2,1969,1970
 1448 -1158 1448 -1158 1439 -1157 c 128,-1,1952
 1430 -1156 1430 -1156 1430 -1149.5 c 128,-1,1953
250 -1154 m 2,1971,-1
 248 -1155 l 1,1972,1973
 246 -1151 246 -1151 241 -1155 c 1,1974,-1
 237 -1155 l 1,1975,1976
 237 -1149 237 -1149 248 -1148 c 0,1977,1978
 249 -1148 249 -1148 249.5 -1149.5 c 128,-1,1979
 250 -1151 250 -1151 250 -1154 c 2,1971,-1
-291 -1160 m 0,1980,1981
 -291 -1162 -291 -1162 -292 -1163 c 0,1982,1983
 -297 -1161 -297 -1161 -295 -1158 c 0,1984,1985
 -291 -1152 -291 -1152 -291 -1160 c 0,1980,1981
-1100 1829 m 1,1986,-1
 -1100 1900 l 1,1987,-1
 -870 1900 l 1,1988,-1
 -641 1900 l 1,1989,-1
 -641 1829 l 1,1990,-1
 -641 1758 l 1,1991,-1
 -870 1758 l 1,1992,-1
 -1100 1758 l 1,1993,-1
 -1100 1829 l 1,1986,-1
-502 1829 m 1,1994,-1
 -502 1900 l 1,1995,-1
 -308 1900 l 1,1996,-1
 -114 1900 l 1,1997,-1
 -114 1829 l 1,1998,-1
 -114 1758 l 1,1999,-1
 -308 1758 l 1,2000,-1
 -502 1758 l 1,2001,-1
 -502 1829 l 1,1994,-1
28 1829 m 1,2002,-1
 28 1900 l 1,2003,-1
 257 1900 l 1,2004,-1
 486 1900 l 1,2005,-1
 486 1829 l 1,2006,-1
 486 1758 l 1,2007,-1
 257 1758 l 1,2008,-1
 28 1758 l 1,2009,-1
 28 1829 l 1,2002,-1
625 1829 m 1,2010,-1
 625 1900 l 1,2011,-1
 819 1900 l 1,2012,-1
 1013 1900 l 1,2013,-1
 1013 1829 l 1,2014,-1
 1013 1758 l 1,2015,-1
 819 1758 l 1,2016,-1
 625 1758 l 1,2017,-1
 625 1829 l 1,2010,-1
1148 1829 m 1,2018,-1
 1148 1900 l 1,2019,-1
 1378 1900 l 1,2020,-1
 1607 1900 l 1,2021,-1
 1607 1829 l 1,2022,-1
 1607 1758 l 1,2023,-1
 1378 1758 l 1,2024,-1
 1148 1758 l 1,2025,-1
 1148 1829 l 1,2018,-1
1745 1829 m 1,2026,-1
 1745 1900 l 1,2027,-1
 1939 1900 l 1,2028,-1
 2134 1900 l 1,2029,-1
 2134 1829 l 1,2030,-1
 2134 1758 l 1,2031,-1
 1939 1758 l 1,2032,-1
 1745 1758 l 1,2033,-1
 1745 1829 l 1,2026,-1
-782 1549 m 1,2034,-1
 -782 1620 l 1,2035,-1
 -553 1620 l 1,2036,-1
 -324 1620 l 1,2037,-1
 -324 1549 l 1,2038,-1
 -324 1478 l 1,2039,-1
 -553 1478 l 1,2040,-1
 -782 1478 l 1,2041,-1
 -782 1549 l 1,2034,-1
-185 1549 m 1,2042,-1
 -185 1620 l 1,2043,-1
 9 1620 l 1,2044,-1
 203 1620 l 1,2045,-1
 203 1549 l 1,2046,-1
 203 1478 l 1,2047,-1
 9 1478 l 1,2048,-1
 -185 1478 l 1,2049,-1
 -185 1549 l 1,2042,-1
345 1549 m 1,2050,-1
 345 1620 l 1,2051,-1
 574 1620 l 1,2052,-1
 804 1620 l 1,2053,-1
 804 1549 l 1,2054,-1
 804 1478 l 1,2055,-1
 574 1478 l 1,2056,-1
 345 1478 l 1,2057,-1
 345 1549 l 1,2050,-1
942 1549 m 1,2058,-1
 942 1620 l 1,2059,-1
 1133 1620 l 1,2060,-1
 1324 1620 l 1,2061,-1
 1324 1549 l 1,2062,-1
 1324 1478 l 1,2063,-1
 1133 1478 l 1,2064,-1
 942 1478 l 1,2065,-1
 942 1549 l 1,2058,-1
1465 1549 m 1,2066,-1
 1465 1620 l 1,2067,-1
 1695 1620 l 1,2068,-1
 1924 1620 l 1,2069,-1
 1924 1549 l 1,2070,-1
 1924 1478 l 1,2071,-1
 1695 1478 l 1,2072,-1
 1465 1478 l 1,2073,-1
 1465 1549 l 1,2066,-1
-502 1265 m 1,2074,-1
 -502 1336 l 1,2075,-1
 -308 1336 l 1,2076,-1
 -114 1336 l 1,2077,-1
 -114 1265 l 1,2078,-1
 -114 1194 l 1,2079,-1
 -308 1194 l 1,2080,-1
 -502 1194 l 1,2081,-1
 -502 1265 l 1,2074,-1
28 1265 m 1,2082,-1
 28 1336 l 1,2083,-1
 257 1336 l 1,2084,-1
 486 1336 l 1,2085,-1
 486 1265 l 1,2086,-1
 486 1194 l 1,2087,-1
 257 1194 l 1,2088,-1
 28 1194 l 1,2089,-1
 28 1265 l 1,2082,-1
1148 1265 m 1,2090,-1
 1148 1336 l 1,2091,-1
 1378 1336 l 1,2092,-1
 1607 1336 l 1,2093,-1
 1607 1265 l 1,2094,-1
 1607 1194 l 1,2095,-1
 1378 1194 l 1,2096,-1
 1148 1194 l 1,2097,-1
 1148 1265 l 1,2090,-1
-1100 1265 m 1,2098,-1
 -1100 1336 l 1,2099,-1
 -870 1336 l 1,2100,-1
 -641 1336 l 1,2101,-1
 -641 1265 l 1,2102,-1
 -641 1194 l 1,2103,-1
 -870 1194 l 1,2104,-1
 -1100 1194 l 1,2105,-1
 -1100 1265 l 1,2098,-1
625 1265 m 1,2106,-1
 625 1336 l 1,2107,-1
 819 1336 l 1,2108,-1
 1013 1336 l 1,2109,-1
 1013 1265 l 1,2110,-1
 1013 1194 l 1,2111,-1
 819 1194 l 1,2112,-1
 625 1194 l 1,2113,-1
 625 1265 l 1,2106,-1
1745 1265 m 1,2114,-1
 1745 1336 l 1,2115,-1
 1939 1336 l 1,2116,-1
 2134 1336 l 1,2117,-1
 2134 1265 l 1,2118,-1
 2134 1194 l 1,2119,-1
 1939 1194 l 1,2120,-1
 1745 1194 l 1,2121,-1
 1745 1265 l 1,2114,-1
345 985 m 1,2122,-1
 345 1056 l 1,2123,-1
 574 1056 l 1,2124,-1
 804 1056 l 1,2125,-1
 804 985 l 1,2126,-1
 804 914 l 1,2127,-1
 574 914 l 1,2128,-1
 345 914 l 1,2129,-1
 345 985 l 1,2122,-1
1465 985 m 1,2130,-1
 1465 1056 l 1,2131,-1
 1695 1056 l 1,2132,-1
 1924 1056 l 1,2133,-1
 1924 985 l 1,2134,-1
 1924 914 l 1,2135,-1
 1695 914 l 1,2136,-1
 1465 914 l 1,2137,-1
 1465 985 l 1,2130,-1
-782 985 m 1,2138,-1
 -782 1056 l 1,2139,-1
 -553 1056 l 1,2140,-1
 -324 1056 l 1,2141,-1
 -324 985 l 1,2142,-1
 -324 914 l 1,2143,-1
 -553 914 l 1,2144,-1
 -782 914 l 1,2145,-1
 -782 985 l 1,2138,-1
942 985 m 1,2146,-1
 942 1056 l 1,2147,-1
 1133 1056 l 1,2148,-1
 1324 1056 l 1,2149,-1
 1324 985 l 1,2150,-1
 1324 914 l 1,2151,-1
 1133 914 l 1,2152,-1
 942 914 l 1,2153,-1
 942 985 l 1,2146,-1
-185 985 m 1,2154,-1
 -185 1056 l 1,2155,-1
 9 1056 l 1,2156,-1
 203 1056 l 1,2157,-1
 203 985 l 1,2158,-1
 203 914 l 1,2159,-1
 9 914 l 1,2160,-1
 -185 914 l 1,2161,-1
 -185 985 l 1,2154,-1
-502 702 m 1,2162,-1
 -502 772 l 1,2163,-1
 -308 772 l 1,2164,-1
 -114 772 l 1,2165,-1
 -114 702 l 1,2166,-1
 -114 631 l 1,2167,-1
 -308 631 l 1,2168,-1
 -502 631 l 1,2169,-1
 -502 702 l 1,2162,-1
28 702 m 1,2170,-1
 28 772 l 1,2171,-1
 257 772 l 1,2172,-1
 486 772 l 1,2173,-1
 486 702 l 1,2174,-1
 486 631 l 1,2175,-1
 257 631 l 1,2176,-1
 28 631 l 1,2177,-1
 28 702 l 1,2170,-1
625 702 m 1,2178,-1
 625 772 l 1,2179,-1
 819 772 l 1,2180,-1
 1013 772 l 1,2181,-1
 1013 702 l 1,2182,-1
 1013 631 l 1,2183,-1
 819 631 l 1,2184,-1
 625 631 l 1,2185,-1
 625 702 l 1,2178,-1
1148 702 m 1,2186,-1
 1148 772 l 1,2187,-1
 1378 772 l 1,2188,-1
 1607 772 l 1,2189,-1
 1607 702 l 1,2190,-1
 1607 631 l 1,2191,-1
 1378 631 l 1,2192,-1
 1148 631 l 1,2193,-1
 1148 702 l 1,2186,-1
1745 702 m 1,2194,-1
 1745 772 l 1,2195,-1
 1939 772 l 1,2196,-1
 2134 772 l 1,2197,-1
 2134 702 l 1,2198,-1
 2134 631 l 1,2199,-1
 1939 631 l 1,2200,-1
 1745 631 l 1,2201,-1
 1745 702 l 1,2194,-1
-1100 702 m 1,2202,-1
 -1100 772 l 1,2203,-1
 -870 772 l 1,2204,-1
 -641 772 l 1,2205,-1
 -641 702 l 1,2206,-1
 -641 631 l 1,2207,-1
 -870 631 l 1,2208,-1
 -1100 631 l 1,2209,-1
 -1100 702 l 1,2202,-1
-782 422 m 1,2210,-1
 -782 492 l 1,2211,-1
 -553 492 l 1,2212,-1
 -324 492 l 1,2213,-1
 -324 422 l 1,2214,-1
 -324 351 l 1,2215,-1
 -553 351 l 1,2216,-1
 -782 351 l 1,2217,-1
 -782 422 l 1,2210,-1
-185 422 m 1,2218,-1
 -185 492 l 1,2219,-1
 9 492 l 1,2220,-1
 203 492 l 1,2221,-1
 203 422 l 1,2222,-1
 203 351 l 1,2223,-1
 9 351 l 1,2224,-1
 -185 351 l 1,2225,-1
 -185 422 l 1,2218,-1
942 422 m 1,2226,-1
 942 492 l 1,2227,-1
 1133 492 l 1,2228,-1
 1324 492 l 1,2229,-1
 1324 422 l 1,2230,-1
 1324 351 l 1,2231,-1
 1133 351 l 1,2232,-1
 942 351 l 1,2233,-1
 942 422 l 1,2226,-1
1465 422 m 1,2234,-1
 1465 492 l 1,2235,-1
 1695 492 l 1,2236,-1
 1924 492 l 1,2237,-1
 1924 422 l 1,2238,-1
 1924 351 l 1,2239,-1
 1695 351 l 1,2240,-1
 1465 351 l 1,2241,-1
 1465 422 l 1,2234,-1
345 422 m 1,2242,-1
 345 492 l 1,2243,-1
 574 492 l 1,2244,-1
 804 492 l 1,2245,-1
 804 422 l 1,2246,-1
 804 351 l 1,2247,-1
 574 351 l 1,2248,-1
 345 351 l 1,2249,-1
 345 422 l 1,2242,-1
-1100 138 m 1,2250,-1
 -1100 209 l 1,2251,-1
 -870 209 l 1,2252,-1
 -641 209 l 1,2253,-1
 -641 138 l 1,2254,-1
 -641 67 l 1,2255,-1
 -870 67 l 1,2256,-1
 -1100 67 l 1,2257,-1
 -1100 138 l 1,2250,-1
-502 138 m 1,2258,-1
 -502 209 l 1,2259,-1
 -308 209 l 1,2260,-1
 -114 209 l 1,2261,-1
 -114 138 l 1,2262,-1
 -114 67 l 1,2263,-1
 -308 67 l 1,2264,-1
 -502 67 l 1,2265,-1
 -502 138 l 1,2258,-1
28 138 m 1,2266,-1
 28 209 l 1,2267,-1
 257 209 l 1,2268,-1
 486 209 l 1,2269,-1
 486 138 l 1,2270,-1
 486 67 l 1,2271,-1
 257 67 l 1,2272,-1
 28 67 l 1,2273,-1
 28 138 l 1,2266,-1
625 138 m 1,2274,-1
 625 209 l 1,2275,-1
 819 209 l 1,2276,-1
 1013 209 l 1,2277,-1
 1013 138 l 1,2278,-1
 1013 67 l 1,2279,-1
 819 67 l 1,2280,-1
 625 67 l 1,2281,-1
 625 138 l 1,2274,-1
1148 138 m 1,2282,-1
 1148 209 l 1,2283,-1
 1378 209 l 1,2284,-1
 1607 209 l 1,2285,-1
 1607 138 l 1,2286,-1
 1607 67 l 1,2287,-1
 1378 67 l 1,2288,-1
 1148 67 l 1,2289,-1
 1148 138 l 1,2282,-1
1745 138 m 1,2290,-1
 1745 209 l 1,2291,-1
 1939 209 l 1,2292,-1
 2134 209 l 1,2293,-1
 2134 138 l 1,2294,-1
 2134 67 l 1,2295,-1
 1939 67 l 1,2296,-1
 1745 67 l 1,2297,-1
 1745 138 l 1,2290,-1
-782 -142 m 1,2298,-1
 -782 -71 l 1,2299,-1
 -553 -71 l 1,2300,-1
 -324 -71 l 1,2301,-1
 -324 -142 l 1,2302,-1
 -324 -213 l 1,2303,-1
 -553 -213 l 1,2304,-1
 -782 -213 l 1,2305,-1
 -782 -142 l 1,2298,-1
-185 -142 m 1,2306,-1
 -185 -71 l 1,2307,-1
 9 -71 l 1,2308,-1
 203 -71 l 1,2309,-1
 203 -142 l 1,2310,-1
 203 -213 l 1,2311,-1
 9 -213 l 1,2312,-1
 -185 -213 l 1,2313,-1
 -185 -142 l 1,2306,-1
942 -142 m 1,2314,-1
 942 -71 l 1,2315,-1
 1133 -71 l 1,2316,-1
 1324 -71 l 1,2317,-1
 1324 -142 l 1,2318,-1
 1324 -213 l 1,2319,-1
 1133 -213 l 1,2320,-1
 942 -213 l 1,2321,-1
 942 -142 l 1,2314,-1
1465 -142 m 1,2322,-1
 1465 -71 l 1,2323,-1
 1695 -71 l 1,2324,-1
 1924 -71 l 1,2325,-1
 1924 -142 l 1,2326,-1
 1924 -213 l 1,2327,-1
 1695 -213 l 1,2328,-1
 1465 -213 l 1,2329,-1
 1465 -142 l 1,2322,-1
345 -142 m 1,2330,-1
 345 -71 l 1,2331,-1
 574 -71 l 1,2332,-1
 804 -71 l 1,2333,-1
 804 -142 l 1,2334,-1
 804 -213 l 1,2335,-1
 574 -213 l 1,2336,-1
 345 -213 l 1,2337,-1
 345 -142 l 1,2330,-1
-502 -419 m 1,2338,-1
 -502 -348 l 1,2339,-1
 -308 -348 l 1,2340,-1
 -114 -348 l 1,2341,-1
 -114 -419 l 1,2342,-1
 -114 -490 l 1,2343,-1
 -308 -490 l 1,2344,-1
 -502 -490 l 1,2345,-1
 -502 -419 l 1,2338,-1
28 -419 m 1,2346,-1
 28 -348 l 1,2347,-1
 257 -348 l 1,2348,-1
 486 -348 l 1,2349,-1
 486 -419 l 1,2350,-1
 486 -490 l 1,2351,-1
 257 -490 l 1,2352,-1
 28 -490 l 1,2353,-1
 28 -419 l 1,2346,-1
1148 -419 m 1,2354,-1
 1148 -348 l 1,2355,-1
 1378 -348 l 1,2356,-1
 1607 -348 l 1,2357,-1
 1607 -419 l 1,2358,-1
 1607 -490 l 1,2359,-1
 1378 -490 l 1,2360,-1
 1148 -490 l 1,2361,-1
 1148 -419 l 1,2354,-1
1745 -419 m 1,2362,-1
 1745 -348 l 1,2363,-1
 1939 -348 l 1,2364,-1
 2134 -348 l 1,2365,-1
 2134 -419 l 1,2366,-1
 2134 -490 l 1,2367,-1
 1939 -490 l 1,2368,-1
 1745 -490 l 1,2369,-1
 1745 -419 l 1,2362,-1
-1100 -419 m 1,2370,-1
 -1100 -348 l 1,2371,-1
 -870 -348 l 1,2372,-1
 -641 -348 l 1,2373,-1
 -641 -419 l 1,2374,-1
 -641 -490 l 1,2375,-1
 -870 -490 l 1,2376,-1
 -1100 -490 l 1,2377,-1
 -1100 -419 l 1,2370,-1
625 -419 m 1,2378,-1
 625 -348 l 1,2379,-1
 819 -348 l 1,2380,-1
 1013 -348 l 1,2381,-1
 1013 -419 l 1,2382,-1
 1013 -490 l 1,2383,-1
 819 -490 l 1,2384,-1
 625 -490 l 1,2385,-1
 625 -419 l 1,2378,-1
-782 -699 m 1,2386,-1
 -782 -628 l 1,2387,-1
 -553 -628 l 1,2388,-1
 -324 -628 l 1,2389,-1
 -324 -699 l 1,2390,-1
 -324 -770 l 1,2391,-1
 -553 -770 l 1,2392,-1
 -782 -770 l 1,2393,-1
 -782 -699 l 1,2386,-1
-185 -699 m 1,2394,-1
 -185 -628 l 1,2395,-1
 9 -628 l 1,2396,-1
 203 -628 l 1,2397,-1
 203 -699 l 1,2398,-1
 203 -770 l 1,2399,-1
 9 -770 l 1,2400,-1
 -185 -770 l 1,2401,-1
 -185 -699 l 1,2394,-1
345 -699 m 1,2402,-1
 345 -628 l 1,2403,-1
 574 -628 l 1,2404,-1
 804 -628 l 1,2405,-1
 804 -699 l 1,2406,-1
 804 -770 l 1,2407,-1
 574 -770 l 1,2408,-1
 345 -770 l 1,2409,-1
 345 -699 l 1,2402,-1
1465 -699 m 1,2410,-1
 1465 -628 l 1,2411,-1
 1695 -628 l 1,2412,-1
 1924 -628 l 1,2413,-1
 1924 -699 l 1,2414,-1
 1924 -770 l 1,2415,-1
 1695 -770 l 1,2416,-1
 1465 -770 l 1,2417,-1
 1465 -699 l 1,2410,-1
942 -699 m 1,2418,-1
 942 -628 l 1,2419,-1
 1133 -628 l 1,2420,-1
 1324 -628 l 1,2421,-1
 1324 -699 l 1,2422,-1
 1324 -770 l 1,2423,-1
 1133 -770 l 1,2424,-1
 942 -770 l 1,2425,-1
 942 -699 l 1,2418,-1
-502 -982 m 1,2426,-1
 -502 -912 l 1,2427,-1
 -308 -912 l 1,2428,-1
 -114 -912 l 1,2429,-1
 -114 -982 l 1,2430,-1
 -114 -1053 l 1,2431,-1
 -308 -1053 l 1,2432,-1
 -502 -1053 l 1,2433,-1
 -502 -982 l 1,2426,-1
28 -982 m 1,2434,-1
 28 -912 l 1,2435,-1
 257 -912 l 1,2436,-1
 486 -912 l 1,2437,-1
 486 -982 l 1,2438,-1
 486 -1053 l 1,2439,-1
 257 -1053 l 1,2440,-1
 28 -1053 l 1,2441,-1
 28 -982 l 1,2434,-1
625 -982 m 1,2442,-1
 625 -912 l 1,2443,-1
 819 -912 l 1,2444,-1
 1013 -912 l 1,2445,-1
 1013 -982 l 1,2446,-1
 1013 -1053 l 1,2447,-1
 819 -1053 l 1,2448,-1
 625 -1053 l 1,2449,-1
 625 -982 l 1,2442,-1
1745 -982 m 1,2450,-1
 1745 -912 l 1,2451,-1
 1939 -912 l 1,2452,-1
 2134 -912 l 1,2453,-1
 2134 -982 l 1,2454,-1
 2134 -1053 l 1,2455,-1
 1939 -1053 l 1,2456,-1
 1745 -1053 l 1,2457,-1
 1745 -982 l 1,2450,-1
-1100 -982 m 1,2458,-1
 -1100 -912 l 1,2459,-1
 -870 -912 l 1,2460,-1
 -641 -912 l 1,2461,-1
 -641 -982 l 1,2462,-1
 -641 -1053 l 1,2463,-1
 -870 -1053 l 1,2464,-1
 -1100 -1053 l 1,2465,-1
 -1100 -982 l 1,2458,-1
1148 -982 m 1,2466,-1
 1148 -912 l 1,2467,-1
 1378 -912 l 1,2468,-1
 1607 -912 l 1,2469,-1
 1607 -982 l 1,2470,-1
 1607 -1053 l 1,2471,-1
 1378 -1053 l 1,2472,-1
 1148 -1053 l 1,2473,-1
 1148 -982 l 1,2466,-1
-782 -1263 m 1,2474,-1
 -782 -1192 l 1,2475,-1
 -553 -1192 l 1,2476,-1
 -324 -1192 l 1,2477,-1
 -324 -1263 l 1,2478,-1
 -324 -1334 l 1,2479,-1
 -553 -1334 l 1,2480,-1
 -782 -1334 l 1,2481,-1
 -782 -1263 l 1,2474,-1
-185 -1263 m 1,2482,-1
 -185 -1192 l 1,2483,-1
 9 -1192 l 1,2484,-1
 203 -1192 l 1,2485,-1
 203 -1263 l 1,2486,-1
 203 -1334 l 1,2487,-1
 9 -1334 l 1,2488,-1
 -185 -1334 l 1,2489,-1
 -185 -1263 l 1,2482,-1
345 -1263 m 1,2490,-1
 345 -1192 l 1,2491,-1
 574 -1192 l 1,2492,-1
 804 -1192 l 1,2493,-1
 804 -1263 l 1,2494,-1
 804 -1334 l 1,2495,-1
 574 -1334 l 1,2496,-1
 345 -1334 l 1,2497,-1
 345 -1263 l 1,2490,-1
942 -1263 m 1,2498,-1
 942 -1192 l 1,2499,-1
 1133 -1192 l 1,2500,-1
 1324 -1192 l 1,2501,-1
 1324 -1263 l 1,2502,-1
 1324 -1334 l 1,2503,-1
 1133 -1334 l 1,2504,-1
 942 -1334 l 1,2505,-1
 942 -1263 l 1,2498,-1
1465 -1263 m 1,2506,-1
 1465 -1192 l 1,2507,-1
 1695 -1192 l 1,2508,-1
 1924 -1192 l 1,2509,-1
 1924 -1263 l 1,2510,-1
 1924 -1334 l 1,2511,-1
 1695 -1334 l 1,2512,-1
 1465 -1334 l 1,2513,-1
 1465 -1263 l 1,2506,-1
-1188 1549 m 1,2514,-1
 -1188 1620 l 1,2515,-1
 -1056 1620 l 1,2516,-1
 -924 1620 l 1,2517,-1
 -924 1549 l 1,2518,-1
 -924 1478 l 1,2519,-1
 -1056 1478 l 1,2520,-1
 -1188 1478 l 1,2521,-1
 -1188 1549 l 1,2514,-1
2063 1549 m 1,2522,-1
 2063 1620 l 1,2523,-1
 2125 1620 l 1,2524,-1
 2188 1620 l 1,2525,-1
 2188 1549 l 1,2526,-1
 2188 1478 l 1,2527,-1
 2125 1478 l 1,2528,-1
 2063 1478 l 1,2529,-1
 2063 1549 l 1,2522,-1
-1188 985 m 1,2530,-1
 -1188 1056 l 1,2531,-1
 -1056 1056 l 1,2532,-1
 -924 1056 l 1,2533,-1
 -924 985 l 1,2534,-1
 -924 914 l 1,2535,-1
 -1056 914 l 1,2536,-1
 -1188 914 l 1,2537,-1
 -1188 985 l 1,2530,-1
2063 985 m 1,2538,-1
 2063 1056 l 1,2539,-1
 2125 1056 l 1,2540,-1
 2188 1056 l 1,2541,-1
 2188 985 l 1,2542,-1
 2188 914 l 1,2543,-1
 2125 914 l 1,2544,-1
 2063 914 l 1,2545,-1
 2063 985 l 1,2538,-1
-1188 422 m 1,2546,-1
 -1188 492 l 1,2547,-1
 -1056 492 l 1,2548,-1
 -924 492 l 1,2549,-1
 -924 422 l 1,2550,-1
 -924 351 l 1,2551,-1
 -1056 351 l 1,2552,-1
 -1188 351 l 1,2553,-1
 -1188 422 l 1,2546,-1
2063 422 m 1,2554,-1
 2063 492 l 1,2555,-1
 2125 492 l 1,2556,-1
 2188 492 l 1,2557,-1
 2188 422 l 1,2558,-1
 2188 351 l 1,2559,-1
 2125 351 l 1,2560,-1
 2063 351 l 1,2561,-1
 2063 422 l 1,2554,-1
-1188 -142 m 1,2562,-1
 -1188 -71 l 1,2563,-1
 -1056 -71 l 1,2564,-1
 -924 -71 l 1,2565,-1
 -924 -142 l 1,2566,-1
 -924 -213 l 1,2567,-1
 -1056 -213 l 1,2568,-1
 -1188 -213 l 1,2569,-1
 -1188 -142 l 1,2562,-1
2063 -142 m 1,2570,-1
 2063 -71 l 1,2571,-1
 2125 -71 l 1,2572,-1
 2188 -71 l 1,2573,-1
 2188 -142 l 1,2574,-1
 2188 -213 l 1,2575,-1
 2125 -213 l 1,2576,-1
 2063 -213 l 1,2577,-1
 2063 -142 l 1,2570,-1
-1188 -699 m 1,2578,-1
 -1188 -628 l 1,2579,-1
 -1056 -628 l 1,2580,-1
 -924 -628 l 1,2581,-1
 -924 -699 l 1,2582,-1
 -924 -770 l 1,2583,-1
 -1056 -770 l 1,2584,-1
 -1188 -770 l 1,2585,-1
 -1188 -699 l 1,2578,-1
2063 -699 m 1,2586,-1
 2063 -628 l 1,2587,-1
 2125 -628 l 1,2588,-1
 2188 -628 l 1,2589,-1
 2188 -699 l 1,2590,-1
 2188 -770 l 1,2591,-1
 2125 -770 l 1,2592,-1
 2063 -770 l 1,2593,-1
 2063 -699 l 1,2586,-1
-1188 -1263 m 1,2594,-1
 -1188 -1192 l 1,2595,-1
 -1056 -1192 l 1,2596,-1
 -924 -1192 l 1,2597,-1
 -924 -1263 l 1,2598,-1
 -924 -1334 l 1,2599,-1
 -1056 -1334 l 1,2600,-1
 -1188 -1334 l 1,2601,-1
 -1188 -1263 l 1,2594,-1
2063 -1263 m 1,2602,-1
 2063 -1192 l 1,2603,-1
 2125 -1192 l 1,2604,-1
 2188 -1192 l 1,2605,-1
 2188 -1263 l 1,2606,-1
 2188 -1334 l 1,2607,-1
 2125 -1334 l 1,2608,-1
 2063 -1334 l 1,2609,-1
 2063 -1263 l 1,2602,-1
EndSplineSet
Validated: 165
EndChar

StartChar: quotesingle
Encoding: 39 39 10
Width: 500
GlyphClass: 2
Flags: W
LayerCount: 2
Fore
SplineSet
327 746 m 1,0,-1
 294 516 l 1,1,-1
 210 516 l 1,2,-1
 204 746 l 1,3,-1
 327 746 l 1,0,-1
EndSplineSet
Validated: 1
EndChar

StartChar: parenleft
Encoding: 40 40 11
Width: 500
GlyphClass: 2
Flags: W
LayerCount: 2
Fore
SplineSet
370 -213 m 1,0,-1
 302 -213 l 2,1,2
 213 -213 213 -213 154 -173 c 0,3,4
 85 -126 85 -126 85 -39 c 2,5,-1
 85 611 l 2,6,7
 85 690 85 690 147 745 c 0,8,9
 206 797 206 797 287 797 c 2,10,-1
 370 797 l 1,11,-1
 370 711 l 1,12,-1
 275 711 l 2,13,14
 245 711 245 711 223 678.5 c 128,-1,15
 201 646 201 646 201 612 c 2,16,-1
 201 -32 l 2,17,18
 201 -93 201 -93 234 -112 c 0,19,20
 259 -127 259 -127 327 -127 c 0,21,22
 330 -127 330 -127 370 -126 c 1,23,-1
 370 -213 l 1,0,-1
EndSplineSet
Validated: 1
EndChar

StartChar: parenright
Encoding: 41 41 12
Width: 500
GlyphClass: 2
Flags: W
LayerCount: 2
Fore
SplineSet
427 -39 m 2,0,1
 427 -126 427 -126 358 -173 c 0,2,3
 299 -213 299 -213 210 -213 c 2,4,-1
 142 -213 l 1,5,-1
 142 -126 l 1,6,-1
 185 -127 l 2,7,8
 256 -127 256 -127 281 -111 c 0,9,10
 311 -91 311 -91 311 -32 c 2,11,-1
 311 612 l 2,12,13
 311 646 311 646 289 678.5 c 128,-1,14
 267 711 267 711 237 711 c 2,15,-1
 142 711 l 1,16,-1
 142 797 l 1,17,-1
 224 797 l 2,18,19
 306 797 306 797 365 745 c 0,20,21
 427 690 427 690 427 611 c 2,22,-1
 427 -39 l 2,0,1
EndSplineSet
Validated: 1
EndChar

StartChar: asterisk
Encoding: 42 42 13
Width: 500
GlyphClass: 2
Flags: W
LayerCount: 2
Fore
SplineSet
434 361 m 1,0,-1
 362 339 l 1,1,-1
 414 282 l 1,2,-1
 332 196 l 1,3,-1
 277 250 l 1,4,-1
 256 174 l 1,5,-1
 144 206 l 1,6,-1
 162 283 l 1,7,-1
 89 264 l 1,8,-1
 59 382 l 1,9,-1
 131 404 l 1,10,-1
 79 461 l 1,11,-1
 161 547 l 1,12,-1
 216 493 l 1,13,-1
 237 569 l 1,14,-1
 349 537 l 1,15,-1
 331 460 l 1,16,-1
 404 479 l 1,17,-1
 434 361 l 1,0,-1
EndSplineSet
Validated: 1
EndChar

StartChar: plus
Encoding: 43 43 14
Width: 500
GlyphClass: 2
Flags: W
LayerCount: 2
Fore
SplineSet
407 318 m 1,0,-1
 291 318 l 1,1,-1
 291 201 l 1,2,-1
 204 201 l 1,3,-1
 204 318 l 1,4,-1
 88 318 l 1,5,-1
 88 404 l 1,6,-1
 204 404 l 1,7,-1
 204 510 l 1,8,-1
 291 510 l 1,9,-1
 291 404 l 1,10,-1
 407 404 l 1,11,-1
 407 318 l 1,0,-1
EndSplineSet
Validated: 1
EndChar

StartChar: comma
Encoding: 44 44 15
Width: 500
GlyphClass: 2
Flags: W
LayerCount: 2
Fore
SplineSet
319 66 m 1,0,-1
 286 -163 l 1,1,-1
 201 -163 l 1,2,-1
 195 66 l 1,3,-1
 319 66 l 1,0,-1
EndSplineSet
Validated: 1
EndChar

StartChar: hyphen
Encoding: 45 45 16
AltUni2: 002010.ffffffff.0
Width: 500
GlyphClass: 2
Flags: W
LayerCount: 2
Fore
SplineSet
470 262 m 1,0,-1
 44 262 l 1,1,-1
 44 349 l 1,2,-1
 470 349 l 1,3,-1
 470 262 l 1,0,-1
EndSplineSet
Validated: 1
EndChar

StartChar: period
Encoding: 46 46 17
Width: 500
GlyphClass: 2
Flags: W
LayerCount: 2
Fore
SplineSet
324 -14 m 1,0,-1
 191 -14 l 1,1,-1
 191 89 l 1,2,-1
 324 89 l 1,3,-1
 324 -14 l 1,0,-1
EndSplineSet
Validated: 1
EndChar

StartChar: slash
Encoding: 47 47 18
Width: 500
GlyphClass: 2
Flags: W
LayerCount: 2
Fore
SplineSet
482 676 m 1,0,-1
 118 -15 l 1,1,-1
 27 -15 l 1,2,-1
 393 676 l 1,3,-1
 482 676 l 1,0,-1
EndSplineSet
Validated: 1
EndChar

StartChar: zero
Encoding: 48 48 19
Width: 500
GlyphClass: 2
Flags: W
LayerCount: 2
Fore
SplineSet
476 171 m 2,0,1
 476 105 476 105 448 52 c 0,2,3
 412 -16 412 -16 344 -16 c 2,4,-1
 157 -16 l 2,5,6
 89 -16 89 -16 53 52 c 0,7,8
 25 105 25 105 25 171 c 2,9,-1
 25 486 l 2,10,11
 25 553 25 553 53 606 c 0,12,13
 89 676 89 676 157 676 c 2,14,-1
 344 676 l 2,15,16
 412 676 412 676 448 606 c 0,17,18
 476 553 476 553 476 486 c 2,19,-1
 476 171 l 2,0,1
299 589 m 1,20,21
 293 590 293 590 288 590 c 2,22,-1
 213 590 l 2,23,24
 184 590 184 590 167 555 c 0,25,26
 152 525 152 525 152 486 c 2,27,-1
 152 171 l 1,28,-1
 299 589 l 1,20,21
349 171 m 2,29,-1
 349 483 l 1,30,-1
 206 70 l 1,31,32
 209 69 209 69 213 69 c 2,33,-1
 288 69 l 2,34,35
 317 69 317 69 334 103 c 0,36,37
 349 133 349 133 349 171 c 2,29,-1
EndSplineSet
Validated: 1
EndChar

StartChar: one
Encoding: 49 49 20
Width: 500
GlyphClass: 2
Flags: W
LayerCount: 2
Fore
SplineSet
469 -15 m 1,0,-1
 32 -15 l 1,1,-1
 32 70 l 1,2,-1
 190 70 l 1,3,-1
 190 591 l 1,4,-1
 89 591 l 1,5,-1
 89 677 l 1,6,-1
 322 677 l 1,7,-1
 322 70 l 1,8,-1
 469 70 l 1,9,-1
 469 -15 l 1,0,-1
EndSplineSet
Validated: 1
EndChar

StartChar: two
Encoding: 50 50 21
Width: 500
GlyphClass: 2
Flags: W
LayerCount: 2
Fore
SplineSet
480 -15 m 1,0,-1
 32 -15 l 1,1,-1
 32 193 l 2,2,3
 32 261 32 261 57 312 c 0,4,5
 91 381 91 381 160 381 c 2,6,-1
 290 381 l 2,7,8
 320 381 320 381 337 416 c 0,9,10
 351 445 351 445 351 485 c 0,11,12
 351 523 351 523 339 551 c 0,13,14
 323 590 323 590 290 590 c 2,15,-1
 96 590 l 1,16,-1
 96 676 l 1,17,-1
 346 676 l 2,18,19
 415 676 415 676 451 604 c 0,20,21
 478 550 478 550 478 483 c 0,22,23
 478 415 478 415 451 364 c 0,24,25
 415 296 415 296 346 296 c 2,26,-1
 216 296 l 2,27,28
 162 296 162 296 162 193 c 2,29,-1
 162 70 l 1,30,-1
 480 70 l 1,31,-1
 480 -15 l 1,0,-1
EndSplineSet
Validated: 1
EndChar

StartChar: three
Encoding: 51 51 22
Width: 500
GlyphClass: 2
Flags: W
LayerCount: 2
Fore
SplineSet
480 174 m 0,0,1
 480 107 480 107 453 54 c 0,2,3
 417 -16 417 -16 348 -16 c 2,4,-1
 41 -16 l 1,5,-1
 41 69 l 1,6,-1
 292 69 l 2,7,8
 326 69 326 69 342 109 c 0,9,10
 353 138 353 138 353 178 c 0,11,12
 353 217 353 217 342 245 c 0,13,14
 326 284 326 284 293 284 c 2,15,-1
 173 284 l 1,16,-1
 173 370 l 1,17,-1
 292 370 l 2,18,19
 326 370 326 370 342 410 c 0,20,21
 353 439 353 439 353 479 c 0,22,23
 353 520 353 520 342 549 c 0,24,25
 326 590 326 590 292 590 c 2,26,-1
 41 590 l 1,27,-1
 41 676 l 1,28,-1
 348 676 l 2,29,30
 418 676 418 676 453 604 c 0,31,32
 480 550 480 550 480 482 c 0,33,34
 480 385 480 385 433 327 c 1,35,36
 480 269 480 269 480 174 c 0,0,1
EndSplineSet
Validated: 1
EndChar

StartChar: four
Encoding: 52 52 23
Width: 500
GlyphClass: 2
Flags: W
LayerCount: 2
Fore
SplineSet
483 110 m 1,0,-1
 412 110 l 1,1,-1
 412 -15 l 1,2,-1
 290 -15 l 1,3,-1
 290 110 l 1,4,-1
 31 108 l 1,5,-1
 31 202 l 1,6,-1
 250 676 l 1,7,-1
 412 676 l 1,8,-1
 412 192 l 1,9,-1
 483 192 l 1,10,-1
 483 110 l 1,0,-1
290 192 m 1,11,-1
 290 547 l 1,12,-1
 116 192 l 1,13,-1
 290 192 l 1,11,-1
EndSplineSet
Validated: 1
EndChar

StartChar: five
Encoding: 53 53 24
Width: 500
GlyphClass: 2
Flags: W
LayerCount: 2
Fore
SplineSet
484 193 m 0,0,1
 484 122 484 122 456 64 c 0,2,3
 419 -15 419 -15 348 -15 c 2,4,-1
 33 -15 l 1,5,-1
 33 70 l 1,6,-1
 292 70 l 2,7,8
 328 70 328 70 345 116 c 0,9,10
 357 149 357 149 357 191 c 0,11,12
 357 296 357 296 300 296 c 2,13,-1
 33 296 l 1,14,-1
 33 676 l 1,15,-1
 432 676 l 1,16,-1
 432 590 l 1,17,-1
 160 590 l 1,18,-1
 160 381 l 1,19,-1
 356 381 l 2,20,21
 424 381 424 381 459 312 c 0,22,23
 484 260 484 260 484 193 c 0,0,1
EndSplineSet
Validated: 1
EndChar

StartChar: six
Encoding: 54 54 25
Width: 500
GlyphClass: 2
Flags: W
LayerCount: 2
Fore
SplineSet
482 153 m 2,0,1
 482 68 482 68 459 32 c 0,2,3
 427 -15 427 -15 340 -15 c 2,4,-1
 176 -15 l 2,5,6
 89 -15 89 -15 57 32 c 0,7,8
 34 68 34 68 34 153 c 2,9,-1
 34 511 l 2,10,11
 34 596 34 596 57 632 c 0,12,13
 89 679 89 679 176 679 c 2,14,-1
 402 679 l 1,15,-1
 402 594 l 1,16,-1
 219 594 l 2,17,18
 184 594 184 594 173 563 c 0,19,20
 167 546 167 546 167 503 c 2,21,-1
 167 410 l 1,22,-1
 369 410 l 2,23,24
 429 410 429 410 458 364 c 0,25,26
 482 326 482 326 482 270 c 2,27,-1
 482 153 l 2,0,1
349 143 m 2,28,-1
 348 266 l 2,29,30
 348 325 348 325 320 325 c 2,31,-1
 167 325 l 1,32,-1
 167 162 l 2,33,34
 167 118 167 118 173 102 c 0,35,36
 184 70 184 70 219 70 c 2,37,-1
 298 70 l 2,38,39
 330 70 330 70 341 93 c 0,40,41
 349 108 349 108 349 143 c 2,28,-1
EndSplineSet
Validated: 1
EndChar

StartChar: seven
Encoding: 55 55 26
Width: 500
GlyphClass: 2
Flags: W
LayerCount: 2
Fore
SplineSet
492 676 m 1,0,-1
 213 -15 l 1,1,-1
 84 -15 l 1,2,-1
 335 594 l 1,3,-1
 24 594 l 1,4,-1
 24 676 l 1,5,-1
 492 676 l 1,0,-1
EndSplineSet
Validated: 1
EndChar

StartChar: eight
Encoding: 56 56 27
Width: 500
GlyphClass: 2
Flags: W
LayerCount: 2
Fore
SplineSet
480 174 m 0,0,1
 480 107 480 107 453 54 c 0,2,3
 418 -16 418 -16 349 -16 c 2,4,-1
 152 -16 l 2,5,6
 83 -16 83 -16 47 54 c 0,7,8
 20 107 20 107 20 174 c 0,9,10
 20 269 20 269 68 327 c 1,11,12
 20 385 20 385 20 482 c 0,13,14
 20 550 20 550 47 604 c 0,15,16
 83 676 83 676 152 676 c 2,17,-1
 349 676 l 2,18,19
 418 676 418 676 454 604 c 0,20,21
 480 550 480 550 480 482 c 0,22,23
 480 385 480 385 433 327 c 1,24,25
 480 269 480 269 480 174 c 0,0,1
354 479 m 0,26,27
 354 520 354 520 342 549 c 0,28,29
 326 590 326 590 293 590 c 2,30,-1
 208 590 l 2,31,32
 174 590 174 590 158 549 c 0,33,34
 147 520 147 520 147 479 c 0,35,36
 147 439 147 439 158 410 c 0,37,38
 174 370 174 370 208 370 c 2,39,-1
 293 370 l 2,40,41
 326 370 326 370 342 410 c 0,42,43
 354 439 354 439 354 479 c 0,26,27
354 178 m 0,44,45
 354 217 354 217 342 245 c 0,46,47
 326 284 326 284 293 284 c 2,48,-1
 208 284 l 2,49,50
 174 284 174 284 158 245 c 0,51,52
 147 217 147 217 147 178 c 0,53,54
 147 138 147 138 159 109 c 0,55,56
 175 69 175 69 208 69 c 2,57,-1
 293 69 l 2,58,59
 326 69 326 69 342 109 c 0,60,61
 354 138 354 138 354 178 c 0,44,45
EndSplineSet
Validated: 1
EndChar

StartChar: nine
Encoding: 57 57 28
Width: 500
GlyphClass: 2
Flags: W
LayerCount: 2
Fore
SplineSet
481 153 m 2,0,1
 481 68 481 68 457 32 c 0,2,3
 425 -15 425 -15 338 -15 c 2,4,-1
 65 -15 l 1,5,-1
 65 70 l 1,6,-1
 295 70 l 2,7,8
 330 70 330 70 341 101 c 0,9,10
 347 118 347 118 347 161 c 2,11,-1
 347 289 l 1,12,-1
 145 289 l 2,13,14
 85 289 85 289 56 335 c 0,15,16
 32 373 32 373 32 429 c 2,17,-1
 32 511 l 2,18,19
 32 596 32 596 56 632 c 0,20,21
 87 679 87 679 174 679 c 2,22,-1
 338 679 l 2,23,24
 425 679 425 679 457 632 c 0,25,26
 481 596 481 596 481 511 c 2,27,-1
 481 153 l 2,0,1
347 374 m 1,28,-1
 347 502 l 2,29,30
 347 546 347 546 341 562 c 0,31,32
 330 594 330 594 295 594 c 2,33,-1
 217 594 l 2,34,35
 184 594 184 594 173 571 c 0,36,37
 166 556 166 556 166 521 c 0,38,39
 166 518 166 518 165 496.5 c 128,-1,40
 164 475 164 475 164 460 c 0,41,42
 164 419 164 419 167 403 c 0,43,44
 174 374 174 374 195 374 c 2,45,-1
 347 374 l 1,28,-1
EndSplineSet
Validated: 1
EndChar

StartChar: colon
Encoding: 58 58 29
Width: 500
GlyphClass: 2
Flags: W
LayerCount: 2
Fore
SplineSet
315 420 m 256,0,1
 315 393 315 393 303 371 c 0,2,3
 287 342 287 342 256 342 c 256,4,5
 225 342 225 342 209 371 c 0,6,7
 197 393 197 393 197 420 c 256,8,9
 197 447 197 447 209 469 c 0,10,11
 225 497 225 497 256 497 c 256,12,13
 287 497 287 497 303 469 c 0,14,15
 315 447 315 447 315 420 c 256,0,1
315 179 m 256,16,17
 315 152 315 152 303 130 c 0,18,19
 287 101 287 101 256 101 c 256,20,21
 225 101 225 101 209 130 c 0,22,23
 197 152 197 152 197 179 c 256,24,25
 197 206 197 206 209 228 c 0,26,27
 225 257 225 257 256 257 c 256,28,29
 287 257 287 257 303 228 c 0,30,31
 315 206 315 206 315 179 c 256,16,17
EndSplineSet
Validated: 1
EndChar

StartChar: semicolon
Encoding: 59 59 30
Width: 500
GlyphClass: 2
Flags: W
LayerCount: 2
Fore
SplineSet
318 421 m 256,0,1
 318 394 318 394 306 372 c 0,2,3
 290 343 290 343 259 343 c 256,4,5
 228 343 228 343 212 372 c 0,6,7
 200 394 200 394 200 421 c 256,8,9
 200 448 200 448 212 470 c 0,10,11
 228 498 228 498 259 498 c 256,12,13
 290 498 290 498 306 470 c 0,14,15
 318 448 318 448 318 421 c 256,0,1
313 242 m 1,16,-1
 296 52 l 1,17,-1
 197 52 l 1,18,-1
 197 242 l 1,19,-1
 313 242 l 1,16,-1
EndSplineSet
Validated: 1
EndChar

StartChar: less
Encoding: 60 60 31
Width: 500
GlyphClass: 2
Flags: W
LayerCount: 2
Fore
SplineSet
380 70 m 1,0,-1
 66 343 l 1,1,-1
 380 626 l 1,2,-1
 380 513 l 1,3,-1
 195 348 l 1,4,-1
 380 183 l 1,5,-1
 380 70 l 1,0,-1
EndSplineSet
Validated: 1
EndChar

StartChar: equal
Encoding: 61 61 32
Width: 500
GlyphClass: 2
Flags: W
LayerCount: 2
Fore
SplineSet
424 343 m 1,0,-1
 72 343 l 1,1,-1
 72 430 l 1,2,-1
 424 430 l 1,3,-1
 424 343 l 1,0,-1
424 169 m 1,4,-1
 72 169 l 1,5,-1
 72 255 l 1,6,-1
 424 255 l 1,7,-1
 424 169 l 1,4,-1
EndSplineSet
Validated: 1
EndChar

StartChar: greater
Encoding: 62 62 33
Width: 500
GlyphClass: 2
Flags: W
LayerCount: 2
Fore
SplineSet
422 343 m 1,0,-1
 108 70 l 1,1,-1
 108 183 l 1,2,-1
 292 348 l 1,3,-1
 108 513 l 1,4,-1
 108 626 l 1,5,-1
 422 343 l 1,0,-1
EndSplineSet
Validated: 1
EndChar

StartChar: question
Encoding: 63 63 34
Width: 500
GlyphClass: 2
Flags: W
LayerCount: 2
Fore
SplineSet
478 483 m 0,0,1
 478 415 478 415 451 364 c 0,2,3
 416 296 416 296 347 296 c 2,4,-1
 297 296 l 2,5,6
 222 296 222 296 222 150 c 1,7,-1
 167 150 l 1,8,9
 140 211 140 211 140 243 c 0,10,11
 140 296 140 296 175 338.5 c 128,-1,12
 210 381 210 381 265 381 c 2,13,-1
 291 381 l 2,14,15
 321 381 321 381 338 416 c 0,16,17
 352 445 352 445 352 485 c 0,18,19
 352 523 352 523 340 551 c 0,20,21
 324 590 324 590 291 590 c 2,22,-1
 49 590 l 1,23,-1
 49 676 l 1,24,-1
 347 676 l 2,25,26
 415 676 415 676 451 604 c 0,27,28
 478 550 478 550 478 483 c 0,0,1
258 -15 m 1,29,-1
 126 -15 l 1,30,-1
 126 107 l 1,31,-1
 258 107 l 1,32,-1
 258 -15 l 1,29,-1
EndSplineSet
Validated: 1
EndChar

StartChar: at
Encoding: 64 64 35
Width: 500
GlyphClass: 2
Flags: W
LayerCount: 2
Fore
SplineSet
465 164 m 1,0,-1
 210 164 l 2,1,2
 174 164 174 164 156 198 c 0,3,4
 142 223 142 223 142 255 c 0,5,6
 142 309 142 309 163 331 c 0,7,8
 180 349 180 349 219 349 c 0,9,10
 228 349 228 349 244 348 c 0,11,12
 264 347 264 347 272 347 c 1,13,14
 273 368 273 368 273 375 c 0,15,16
 273 409 273 409 274 402 c 1,17,18
 272 419 272 419 258 419 c 0,19,20
 256 419 256 419 236.5 418 c 128,-1,21
 217 417 217 417 196 417 c 1,22,-1
 196 472 l 1,23,-1
 254 472 l 2,24,25
 318 472 318 472 339 424 c 0,26,27
 352 396 352 396 352 333 c 2,28,-1
 352 219 l 1,29,-1
 390 219 l 1,30,-1
 390 457 l 2,31,32
 390 504 390 504 369 504 c 2,33,-1
 139 504 l 2,34,35
 120 504 120 504 114 480 c 0,36,37
 111 469 111 469 111 435 c 0,38,39
 111 430 111 430 111 422 c 0,40,41
 112 414 112 414 112 411 c 2,42,-1
 112 203 l 2,43,44
 112 200 112 200 111 192 c 0,45,46
 111 185 111 185 111 181 c 0,47,48
 111 133 111 133 139 133 c 2,49,-1
 465 133 l 1,50,-1
 465 77 l 1,51,-1
 133 77 l 2,52,53
 36 77 36 77 36 172 c 2,54,-1
 36 442 l 2,55,56
 36 490 36 490 57 521 c 0,57,58
 82 559 82 559 133 559 c 2,59,-1
 379 559 l 2,60,61
 432 559 432 559 452 523 c 0,62,63
 465 498 465 498 465 448 c 2,64,-1
 465 164 l 1,0,-1
271 219 m 1,65,-1
 271 291 l 1,66,-1
 228 291 l 2,67,68
 217 291 217 291 217 253 c 0,69,70
 217 219 217 219 228 219 c 2,71,-1
 271 219 l 1,65,-1
EndSplineSet
Validated: 1
EndChar

StartChar: A
Encoding: 65 65 36
Width: 500
GlyphClass: 2
Flags: W
LayerCount: 2
Fore
SplineSet
481 -16 m 1,0,-1
 348 -16 l 1,1,-1
 322 129 l 1,2,-1
 180 129 l 1,3,-1
 154 -16 l 1,4,-1
 20 -16 l 1,5,-1
 168 675 l 1,6,-1
 333 675 l 1,7,-1
 481 -16 l 1,0,-1
306 215 m 1,8,-1
 251 507 l 1,9,-1
 196 215 l 1,10,-1
 306 215 l 1,8,-1
EndSplineSet
Validated: 1
EndChar

StartChar: B
Encoding: 66 66 37
Width: 500
GlyphClass: 2
Flags: W
LayerCount: 2
Fore
SplineSet
486 174 m 0,0,1
 486 107 486 107 459 54 c 0,2,3
 423 -16 423 -16 354 -16 c 2,4,-1
 34 -16 l 1,5,-1
 34 676 l 1,6,-1
 354 676 l 2,7,8
 423 676 423 676 459 604 c 0,9,10
 486 550 486 550 486 482 c 0,11,12
 486 385 486 385 438 327 c 1,13,14
 486 269 486 269 486 174 c 0,0,1
359 479 m 0,15,16
 359 520 359 520 348 549 c 0,17,18
 331 590 331 590 298 590 c 2,19,-1
 166 590 l 1,20,-1
 166 370 l 1,21,-1
 298 370 l 2,22,23
 332 370 332 370 348 410 c 0,24,25
 359 439 359 439 359 479 c 0,15,16
359 178 m 0,26,27
 359 217 359 217 347 245 c 0,28,29
 331 284 331 284 298 284 c 2,30,-1
 166 284 l 1,31,-1
 166 69 l 1,32,-1
 298 69 l 2,33,34
 331 69 331 69 347 109 c 0,35,36
 359 138 359 138 359 178 c 0,26,27
EndSplineSet
Validated: 1
EndChar

StartChar: C
Encoding: 67 67 38
Width: 500
GlyphClass: 2
Flags: W
LayerCount: 2
Fore
SplineSet
451 -16 m 1,0,-1
 172 -16 l 2,1,2
 104 -16 104 -16 68 52 c 0,3,4
 41 105 41 105 41 171 c 2,5,-1
 41 486 l 2,6,7
 41 553 41 553 68 606 c 0,8,9
 104 676 104 676 172 676 c 2,10,-1
 451 676 l 1,11,-1
 451 590 l 1,12,-1
 229 590 l 2,13,14
 199 590 199 590 182 555 c 0,15,16
 167 525 167 525 167 486 c 2,17,-1
 167 171 l 2,18,19
 167 133 167 133 182 103 c 0,20,21
 199 69 199 69 229 69 c 2,22,-1
 451 69 l 1,23,-1
 451 -16 l 1,0,-1
EndSplineSet
Validated: 1
EndChar

StartChar: D
Encoding: 68 68 39
Width: 500
GlyphClass: 2
Flags: W
LayerCount: 2
Fore
SplineSet
476 171 m 2,0,1
 476 105 476 105 449 52 c 0,2,3
 413 -16 413 -16 345 -16 c 2,4,-1
 34 -16 l 1,5,-1
 34 676 l 1,6,-1
 345 676 l 2,7,8
 413 676 413 676 449 606 c 0,9,10
 476 553 476 553 476 486 c 2,11,-1
 476 171 l 2,0,1
350 171 m 2,12,-1
 350 486 l 2,13,14
 350 525 350 525 335 555 c 0,15,16
 318 590 318 590 289 590 c 2,17,-1
 167 590 l 1,18,-1
 167 69 l 1,19,-1
 289 69 l 2,20,21
 318 69 318 69 335 103 c 0,22,23
 350 133 350 133 350 171 c 2,12,-1
EndSplineSet
Validated: 1
EndChar

StartChar: E
Encoding: 69 69 40
Width: 500
GlyphClass: 2
Flags: W
LayerCount: 2
Fore
SplineSet
459 -15 m 1,0,-1
 37 -15 l 1,1,-1
 37 676 l 1,2,-1
 459 676 l 1,3,-1
 459 590 l 1,4,-1
 171 590 l 1,5,-1
 171 374 l 1,6,-1
 381 374 l 1,7,-1
 381 289 l 1,8,-1
 171 289 l 1,9,-1
 171 70 l 1,10,-1
 459 70 l 1,11,-1
 459 -15 l 1,0,-1
EndSplineSet
Validated: 1
EndChar

StartChar: F
Encoding: 70 70 41
Width: 500
GlyphClass: 2
Flags: W
LayerCount: 2
Fore
SplineSet
467 590 m 1,0,-1
 169 590 l 1,1,-1
 169 374 l 1,2,-1
 388 374 l 1,3,-1
 388 289 l 1,4,-1
 169 289 l 1,5,-1
 169 -15 l 1,6,-1
 35 -15 l 1,7,-1
 35 676 l 1,8,-1
 467 676 l 1,9,-1
 467 590 l 1,0,-1
EndSplineSet
Validated: 1
EndChar

StartChar: G
Encoding: 71 71 42
Width: 500
GlyphClass: 2
Flags: W
LayerCount: 2
Fore
SplineSet
463 -16 m 1,0,-1
 164 -16 l 2,1,2
 96 -16 96 -16 60 52 c 0,3,4
 33 105 33 105 33 171 c 2,5,-1
 33 486 l 2,6,7
 33 553 33 553 60 606 c 0,8,9
 96 676 96 676 164 676 c 2,10,-1
 453 676 l 1,11,-1
 453 590 l 1,12,-1
 220 590 l 2,13,14
 191 590 191 590 174 555 c 0,15,16
 159 525 159 525 159 486 c 2,17,-1
 159 171 l 2,18,19
 159 133 159 133 174 103 c 0,20,21
 191 69 191 69 220 69 c 2,22,-1
 341 69 l 1,23,-1
 341 289 l 1,24,-1
 227 289 l 1,25,-1
 227 375 l 1,26,-1
 463 375 l 1,27,-1
 463 -16 l 1,0,-1
EndSplineSet
Validated: 1
EndChar

StartChar: H
Encoding: 72 72 43
Width: 500
GlyphClass: 2
Flags: W
LayerCount: 2
Fore
SplineSet
480 -15 m 1,0,-1
 348 -15 l 1,1,-1
 348 289 l 1,2,-1
 162 289 l 1,3,-1
 162 -15 l 1,4,-1
 28 -15 l 1,5,-1
 28 676 l 1,6,-1
 162 676 l 1,7,-1
 162 374 l 1,8,-1
 348 374 l 1,9,-1
 348 676 l 1,10,-1
 480 676 l 1,11,-1
 480 -15 l 1,0,-1
EndSplineSet
Validated: 1
EndChar

StartChar: I
Encoding: 73 73 44
Width: 500
GlyphClass: 2
Flags: W
LayerCount: 2
Fore
SplineSet
467 -15 m 1,0,-1
 43 -15 l 1,1,-1
 43 70 l 1,2,-1
 188 70 l 1,3,-1
 188 590 l 1,4,-1
 43 590 l 1,5,-1
 43 676 l 1,6,-1
 467 676 l 1,7,-1
 467 590 l 1,8,-1
 322 590 l 1,9,-1
 322 70 l 1,10,-1
 467 70 l 1,11,-1
 467 -15 l 1,0,-1
EndSplineSet
Validated: 1
EndChar

StartChar: J
Encoding: 74 74 45
Width: 500
GlyphClass: 2
Flags: W
LayerCount: 2
Fore
SplineSet
462 171 m 2,0,1
 462 105 462 105 434 52 c 0,2,3
 398 -16 398 -16 330 -16 c 2,4,-1
 42 -16 l 1,5,-1
 42 69 l 1,6,-1
 274 69 l 2,7,8
 303 69 303 69 320 103 c 0,9,10
 335 133 335 133 335 171 c 2,11,-1
 335 590 l 1,12,-1
 165 590 l 1,13,-1
 165 676 l 1,14,-1
 462 676 l 1,15,-1
 462 171 l 2,0,1
EndSplineSet
Validated: 1
EndChar

StartChar: K
Encoding: 75 75 46
Width: 500
GlyphClass: 2
Flags: W
LayerCount: 2
Fore
SplineSet
495 676 m 1,0,-1
 231 346 l 1,1,-1
 493 -15 l 1,2,-1
 340 -15 l 1,3,-1
 171 262 l 1,4,-1
 171 -15 l 1,5,-1
 37 -15 l 1,6,-1
 37 676 l 1,7,-1
 171 676 l 1,8,-1
 171 422 l 1,9,-1
 340 676 l 1,10,-1
 495 676 l 1,0,-1
EndSplineSet
Validated: 1
EndChar

StartChar: L
Encoding: 76 76 47
Width: 500
GlyphClass: 2
Flags: W
LayerCount: 2
Fore
SplineSet
471 -15 m 1,0,-1
 32 -15 l 1,1,-1
 32 680 l 1,2,-1
 164 680 l 1,3,-1
 164 72 l 1,4,-1
 471 72 l 1,5,-1
 471 -15 l 1,0,-1
EndSplineSet
Validated: 1
EndChar

StartChar: M
Encoding: 77 77 48
Width: 500
GlyphClass: 2
Flags: W
LayerCount: 2
Fore
SplineSet
476 -15 m 1,0,-1
 368 -15 l 1,1,-1
 368 361 l 1,2,-1
 350 224 l 1,3,-1
 311 -15 l 1,4,-1
 196 -15 l 1,5,-1
 157 224 l 1,6,-1
 141 357 l 1,7,-1
 141 -15 l 1,8,-1
 31 -15 l 1,9,-1
 31 676 l 1,10,-1
 175 676 l 1,11,-1
 241 269 l 1,12,-1
 254 149 l 1,13,-1
 267 269 l 1,14,-1
 332 676 l 1,15,-1
 476 676 l 1,16,-1
 476 -15 l 1,0,-1
EndSplineSet
Validated: 1
EndChar

StartChar: N
Encoding: 78 78 49
Width: 500
GlyphClass: 2
Flags: W
LayerCount: 2
Fore
SplineSet
476 -15 m 1,0,-1
 321 -15 l 1,1,-1
 140 396 l 1,2,-1
 140 -15 l 1,3,-1
 31 -15 l 1,4,-1
 31 676 l 1,5,-1
 168 676 l 1,6,-1
 367 209 l 1,7,-1
 367 676 l 1,8,-1
 476 676 l 1,9,-1
 476 -15 l 1,0,-1
EndSplineSet
Validated: 1
EndChar

StartChar: O
Encoding: 79 79 50
Width: 500
GlyphClass: 2
Flags: W
LayerCount: 2
Fore
SplineSet
479 171 m 2,0,1
 479 105 479 105 451 52 c 0,2,3
 416 -16 416 -16 347 -16 c 2,4,-1
 157 -16 l 2,5,6
 89 -16 89 -16 53 52 c 0,7,8
 25 105 25 105 25 171 c 2,9,-1
 25 486 l 2,10,11
 25 553 25 553 53 606 c 0,12,13
 89 676 89 676 157 676 c 2,14,-1
 347 676 l 2,15,16
 416 676 416 676 452 606 c 0,17,18
 479 553 479 553 479 486 c 2,19,-1
 479 171 l 2,0,1
352 171 m 2,20,-1
 352 486 l 2,21,22
 352 525 352 525 338 555 c 0,23,24
 320 590 320 590 291 590 c 2,25,-1
 213 590 l 2,26,27
 184 590 184 590 167 555 c 0,28,29
 152 525 152 525 152 486 c 2,30,-1
 152 171 l 2,31,32
 152 133 152 133 167 103 c 0,33,34
 184 69 184 69 213 69 c 2,35,-1
 291 69 l 2,36,37
 321 69 321 69 338 103 c 0,38,39
 352 133 352 133 352 171 c 2,20,-1
EndSplineSet
Validated: 1
EndChar

StartChar: P
Encoding: 80 80 51
Width: 500
GlyphClass: 2
Flags: W
LayerCount: 2
Fore
SplineSet
473 459 m 0,0,1
 473 387 473 387 448 330 c 0,2,3
 413 249 413 249 341 249 c 2,4,-1
 163 249 l 1,5,-1
 163 -15 l 1,6,-1
 30 -15 l 1,7,-1
 30 676 l 1,8,-1
 341 676 l 2,9,10
 408 676 408 676 445 595 c 0,11,12
 473 533 473 533 473 459 c 0,0,1
346 461 m 0,13,14
 346 590 346 590 285 590 c 2,15,-1
 163 590 l 1,16,-1
 163 335 l 1,17,-1
 285 335 l 2,18,19
 346 335 346 335 346 461 c 0,13,14
EndSplineSet
Validated: 1
EndChar

StartChar: Q
Encoding: 81 81 52
Width: 500
GlyphClass: 2
Flags: W
LayerCount: 2
Fore
SplineSet
477 171 m 2,0,1
 477 105 477 105 450 52 c 0,2,3
 414 -16 414 -16 346 -16 c 2,4,-1
 330 -16 l 1,5,-1
 361 -84 l 1,6,-1
 259 -84 l 1,7,-1
 228 -16 l 1,8,-1
 157 -16 l 2,9,10
 89 -16 89 -16 53 52 c 0,11,12
 25 105 25 105 25 171 c 2,13,-1
 25 486 l 2,14,15
 25 553 25 553 53 606 c 0,16,17
 89 676 89 676 157 676 c 2,18,-1
 346 676 l 2,19,20
 414 676 414 676 450 606 c 0,21,22
 477 553 477 553 477 486 c 2,23,-1
 477 171 l 2,0,1
351 171 m 2,24,-1
 351 486 l 2,25,26
 351 525 351 525 336 555 c 0,27,28
 319 590 319 590 289 590 c 2,29,-1
 213 590 l 2,30,31
 184 590 184 590 167 555 c 0,32,33
 152 525 152 525 152 486 c 2,34,-1
 152 171 l 2,35,36
 152 133 152 133 167 103 c 0,37,38
 184 69 184 69 213 69 c 2,39,-1
 289 69 l 2,40,41
 319 69 319 69 336 103 c 0,42,43
 351 133 351 133 351 171 c 2,24,-1
EndSplineSet
Validated: 1
EndChar

StartChar: R
Encoding: 82 82 53
Width: 500
GlyphClass: 2
Flags: W
LayerCount: 2
Fore
SplineSet
478 484 m 0,0,1
 478 382 478 382 418 326 c 1,2,3
 473 277 473 277 473 152 c 2,4,-1
 473 -15 l 1,5,-1
 346 -15 l 1,6,-1
 346 152 l 2,7,8
 346 284 346 284 285 284 c 2,9,-1
 165 284 l 1,10,-1
 165 -15 l 1,11,-1
 33 -15 l 1,12,-1
 33 676 l 1,13,-1
 343 676 l 2,14,15
 412 676 412 676 449 605 c 0,16,17
 478 551 478 551 478 484 c 0,0,1
349 479 m 0,18,19
 349 520 349 520 337 549 c 0,20,21
 321 590 321 590 287 590 c 2,22,-1
 165 590 l 1,23,-1
 165 370 l 1,24,-1
 287 370 l 2,25,26
 321 370 321 370 337 410 c 0,27,28
 349 439 349 439 349 479 c 0,18,19
EndSplineSet
Validated: 1
EndChar

StartChar: S
Encoding: 83 83 54
Width: 500
GlyphClass: 2
Flags: W
LayerCount: 2
Fore
SplineSet
475 199 m 0,0,1
 475 127 475 127 448 67 c 0,2,3
 411 -15 411 -15 340 -15 c 2,4,-1
 54 -15 l 1,5,-1
 54 70 l 1,6,-1
 284 70 l 2,7,8
 319 70 319 70 336 113 c 0,9,10
 349 144 349 144 349 185 c 0,11,12
 349 247 349 247 320 268 c 0,13,14
 297 285 297 285 235 285 c 0,15,16
 224 285 224 285 200 285 c 0,17,18
 175 284 175 284 162 284 c 0,19,20
 92 284 92 284 56 355 c 0,21,22
 30 408 30 408 30 477 c 0,23,24
 30 545 30 545 56 601 c 0,25,26
 92 676 92 676 162 676 c 2,27,-1
 442 676 l 1,28,-1
 442 590 l 1,29,-1
 218 590 l 2,30,31
 188 590 188 590 171 557 c 0,32,33
 157 529 157 529 157 491 c 0,34,35
 157 452 157 452 171 425 c 0,36,37
 188 393 188 393 218 393 c 2,38,-1
 347 393 l 2,39,40
 417 393 417 393 451 320 c 0,41,42
 475 267 475 267 475 199 c 0,0,1
EndSplineSet
Validated: 1
EndChar

StartChar: T
Encoding: 84 84 55
Width: 500
GlyphClass: 2
Flags: W
LayerCount: 2
Fore
SplineSet
454 594 m 1,0,-1
 315 594 l 1,1,-1
 315 -15 l 1,2,-1
 183 -15 l 1,3,-1
 183 594 l 1,4,-1
 38 594 l 1,5,-1
 38 679 l 1,6,-1
 454 679 l 1,7,-1
 454 594 l 1,0,-1
EndSplineSet
Validated: 1
EndChar

StartChar: U
Encoding: 85 85 56
Width: 500
GlyphClass: 2
Flags: W
LayerCount: 2
Fore
SplineSet
481 171 m 2,0,1
 481 105 481 105 454 52 c 0,2,3
 418 -16 418 -16 349 -16 c 2,4,-1
 164 -16 l 2,5,6
 95 -16 95 -16 59 52 c 0,7,8
 32 105 32 105 32 171 c 2,9,-1
 32 674 l 1,10,-1
 159 674 l 1,11,-1
 159 171 l 2,12,13
 159 133 159 133 173 103 c 0,14,15
 190 69 190 69 220 69 c 2,16,-1
 293 69 l 2,17,18
 323 69 323 69 340 103 c 0,19,20
 354 133 354 133 354 171 c 2,21,-1
 354 674 l 1,22,-1
 481 674 l 1,23,-1
 481 171 l 2,0,1
EndSplineSet
Validated: 1
EndChar

StartChar: V
Encoding: 86 86 57
Width: 500
GlyphClass: 2
Flags: W
LayerCount: 2
Fore
SplineSet
487 676 m 1,0,-1
 339 -15 l 1,1,-1
 174 -15 l 1,2,-1
 26 676 l 1,3,-1
 159 676 l 1,4,-1
 254 160 l 1,5,6
 264 242 264 242 293 377 c 0,7,8
 333 566 333 566 354 676 c 1,9,-1
 487 676 l 1,0,-1
EndSplineSet
Validated: 1
EndChar

StartChar: W
Encoding: 87 87 58
Width: 500
GlyphClass: 2
Flags: W
LayerCount: 2
Fore
SplineSet
505 676 m 1,0,-1
 417 -15 l 1,1,-1
 278 -15 l 1,2,-1
 253 176 l 1,3,-1
 229 -15 l 1,4,-1
 90 -15 l 1,5,-1
 1 676 l 1,6,-1
 134 676 l 1,7,-1
 175 203 l 1,8,-1
 213 496 l 1,9,-1
 293 496 l 1,10,-1
 332 200 l 1,11,12
 344 354 344 354 372 676 c 1,13,-1
 505 676 l 1,0,-1
EndSplineSet
Validated: 1
EndChar

StartChar: X
Encoding: 88 88 59
Width: 500
GlyphClass: 2
Flags: W
LayerCount: 2
Fore
SplineSet
479 676 m 1,0,-1
 326 324 l 1,1,-1
 478 -15 l 1,2,-1
 334 -15 l 1,3,-1
 252 213 l 1,4,-1
 167 -15 l 1,5,-1
 19 -15 l 1,6,-1
 171 324 l 1,7,-1
 19 676 l 1,8,-1
 158 676 l 1,9,-1
 245 436 l 1,10,-1
 340 676 l 1,11,-1
 479 676 l 1,0,-1
EndSplineSet
Validated: 1
EndChar

StartChar: Y
Encoding: 89 89 60
Width: 500
GlyphClass: 2
Flags: W
LayerCount: 2
Fore
SplineSet
493 676 m 1,0,-1
 318 234 l 1,1,-1
 318 -15 l 1,2,-1
 186 -15 l 1,3,-1
 185 236 l 1,4,-1
 16 676 l 1,5,-1
 158 676 l 1,6,-1
 255 366 l 1,7,-1
 351 676 l 1,8,-1
 493 676 l 1,0,-1
EndSplineSet
Validated: 1
EndChar

StartChar: Z
Encoding: 90 90 61
Width: 500
GlyphClass: 2
Flags: W
LayerCount: 2
Fore
SplineSet
473 676 m 1,0,-1
 473 605 l 1,1,-1
 189 70 l 1,2,-1
 473 70 l 1,3,-1
 473 -15 l 1,4,-1
 33 -15 l 1,5,-1
 33 40 l 1,6,-1
 331 590 l 1,7,-1
 33 590 l 1,8,-1
 33 676 l 1,9,-1
 473 676 l 1,0,-1
EndSplineSet
Validated: 1
EndChar

